<?xml version="1.0" encoding="utf-8" standalone="no"?>
<!DOCTYPE svg PUBLIC "-//W3C//DTD SVG 1.1//EN"
  "http://www.w3.org/Graphics/SVG/1.1/DTD/svg11.dtd">
<svg xmlns:xlink="http://www.w3.org/1999/xlink" width="360pt" height="216pt" viewBox="0 0 360 216" xmlns="http://www.w3.org/2000/svg" version="1.1">
 <metadata>
  <rdf:RDF xmlns:dc="http://purl.org/dc/elements/1.1/" xmlns:cc="http://creativecommons.org/ns#" xmlns:rdf="http://www.w3.org/1999/02/22-rdf-syntax-ns#">
   <cc:Work>
    <dc:type rdf:resource="http://purl.org/dc/dcmitype/StillImage"/>
    <dc:date>2025-07-03T15:01:15.878875</dc:date>
    <dc:format>image/svg+xml</dc:format>
    <dc:creator>
     <cc:Agent>
      <dc:title>Matplotlib v3.9.3, https://matplotlib.org/</dc:title>
     </cc:Agent>
    </dc:creator>
   </cc:Work>
  </rdf:RDF>
 </metadata>
 <defs>
  <style type="text/css">*{stroke-linejoin: round; stroke-linecap: butt}</style>
 </defs>
 <g id="figure_1">
  <g id="patch_1">
   <path d="M 0 216 
L 360 216 
L 360 0 
L 0 0 
z
" style="fill: #ffffff"/>
  </g>
  <g id="axes_1">
   <g id="patch_2">
    <path d="M 46.64 174.04 
L 336.555 174.04 
L 336.555 26.88 
L 46.64 26.88 
z
" style="fill: #ffffff"/>
   </g>
   <g id="patch_3">
    <path d="M 191.5975 174.04 
L 288.235833 174.04 
L 288.235833 26.88 
L 191.5975 26.88 
z
" clip-path="url(#p83458ddcc7)" style="fill: #d3d3d3; opacity: 0.2; stroke: #000000; stroke-linejoin: miter"/>
   </g>
   <g id="matplotlib.axis_1">
    <g id="xtick_1">
     <g id="line2d_1">
      <defs>
       <path id="m343c2a6470" d="M 0 0 
L 0 3.5 
" style="stroke: #000000; stroke-width: 0.8"/>
      </defs>
      <g>
       <use xlink:href="#m343c2a6470" x="46.64" y="174.04" style="stroke: #000000; stroke-width: 0.8"/>
      </g>
     </g>
     <g id="text_1">
      <!-- −200 -->
      <g transform="translate(32.906406 188.638438) scale(0.1 -0.1)">
       <defs>
        <path id="DejaVuSans-2212" d="M 678 2272 
L 4684 2272 
L 4684 1741 
L 678 1741 
L 678 2272 
z
" transform="scale(0.015625)"/>
        <path id="DejaVuSans-32" d="M 1228 531 
L 3431 531 
L 3431 0 
L 469 0 
L 469 531 
Q 828 903 1448 1529 
Q 2069 2156 2228 2338 
Q 2531 2678 2651 2914 
Q 2772 3150 2772 3378 
Q 2772 3750 2511 3984 
Q 2250 4219 1831 4219 
Q 1534 4219 1204 4116 
Q 875 4013 500 3803 
L 500 4441 
Q 881 4594 1212 4672 
Q 1544 4750 1819 4750 
Q 2544 4750 2975 4387 
Q 3406 4025 3406 3419 
Q 3406 3131 3298 2873 
Q 3191 2616 2906 2266 
Q 2828 2175 2409 1742 
Q 1991 1309 1228 531 
z
" transform="scale(0.015625)"/>
        <path id="DejaVuSans-30" d="M 2034 4250 
Q 1547 4250 1301 3770 
Q 1056 3291 1056 2328 
Q 1056 1369 1301 889 
Q 1547 409 2034 409 
Q 2525 409 2770 889 
Q 3016 1369 3016 2328 
Q 3016 3291 2770 3770 
Q 2525 4250 2034 4250 
z
M 2034 4750 
Q 2819 4750 3233 4129 
Q 3647 3509 3647 2328 
Q 3647 1150 3233 529 
Q 2819 -91 2034 -91 
Q 1250 -91 836 529 
Q 422 1150 422 2328 
Q 422 3509 836 4129 
Q 1250 4750 2034 4750 
z
" transform="scale(0.015625)"/>
       </defs>
       <use xlink:href="#DejaVuSans-2212"/>
       <use xlink:href="#DejaVuSans-32" x="83.789062"/>
       <use xlink:href="#DejaVuSans-30" x="147.412109"/>
       <use xlink:href="#DejaVuSans-30" x="211.035156"/>
      </g>
     </g>
    </g>
    <g id="xtick_2">
     <g id="line2d_2">
      <g>
       <use xlink:href="#m343c2a6470" x="94.959167" y="174.04" style="stroke: #000000; stroke-width: 0.8"/>
      </g>
     </g>
     <g id="text_2">
      <!-- 0 -->
      <g transform="translate(91.777917 188.638438) scale(0.1 -0.1)">
       <use xlink:href="#DejaVuSans-30"/>
      </g>
     </g>
    </g>
    <g id="xtick_3">
     <g id="line2d_3">
      <g>
       <use xlink:href="#m343c2a6470" x="143.278333" y="174.04" style="stroke: #000000; stroke-width: 0.8"/>
      </g>
     </g>
     <g id="text_3">
      <!-- 200 -->
      <g transform="translate(133.734583 188.638438) scale(0.1 -0.1)">
       <use xlink:href="#DejaVuSans-32"/>
       <use xlink:href="#DejaVuSans-30" x="63.623047"/>
       <use xlink:href="#DejaVuSans-30" x="127.246094"/>
      </g>
     </g>
    </g>
    <g id="xtick_4">
     <g id="line2d_4">
      <g>
       <use xlink:href="#m343c2a6470" x="191.5975" y="174.04" style="stroke: #000000; stroke-width: 0.8"/>
      </g>
     </g>
     <g id="text_4">
      <!-- 400 -->
      <g transform="translate(182.05375 188.638438) scale(0.1 -0.1)">
       <defs>
        <path id="DejaVuSans-34" d="M 2419 4116 
L 825 1625 
L 2419 1625 
L 2419 4116 
z
M 2253 4666 
L 3047 4666 
L 3047 1625 
L 3713 1625 
L 3713 1100 
L 3047 1100 
L 3047 0 
L 2419 0 
L 2419 1100 
L 313 1100 
L 313 1709 
L 2253 4666 
z
" transform="scale(0.015625)"/>
       </defs>
       <use xlink:href="#DejaVuSans-34"/>
       <use xlink:href="#DejaVuSans-30" x="63.623047"/>
       <use xlink:href="#DejaVuSans-30" x="127.246094"/>
      </g>
     </g>
    </g>
    <g id="xtick_5">
     <g id="line2d_5">
      <g>
       <use xlink:href="#m343c2a6470" x="239.916667" y="174.04" style="stroke: #000000; stroke-width: 0.8"/>
      </g>
     </g>
     <g id="text_5">
      <!-- 600 -->
      <g transform="translate(230.372917 188.638438) scale(0.1 -0.1)">
       <defs>
        <path id="DejaVuSans-36" d="M 2113 2584 
Q 1688 2584 1439 2293 
Q 1191 2003 1191 1497 
Q 1191 994 1439 701 
Q 1688 409 2113 409 
Q 2538 409 2786 701 
Q 3034 994 3034 1497 
Q 3034 2003 2786 2293 
Q 2538 2584 2113 2584 
z
M 3366 4563 
L 3366 3988 
Q 3128 4100 2886 4159 
Q 2644 4219 2406 4219 
Q 1781 4219 1451 3797 
Q 1122 3375 1075 2522 
Q 1259 2794 1537 2939 
Q 1816 3084 2150 3084 
Q 2853 3084 3261 2657 
Q 3669 2231 3669 1497 
Q 3669 778 3244 343 
Q 2819 -91 2113 -91 
Q 1303 -91 875 529 
Q 447 1150 447 2328 
Q 447 3434 972 4092 
Q 1497 4750 2381 4750 
Q 2619 4750 2861 4703 
Q 3103 4656 3366 4563 
z
" transform="scale(0.015625)"/>
       </defs>
       <use xlink:href="#DejaVuSans-36"/>
       <use xlink:href="#DejaVuSans-30" x="63.623047"/>
       <use xlink:href="#DejaVuSans-30" x="127.246094"/>
      </g>
     </g>
    </g>
    <g id="xtick_6">
     <g id="line2d_6">
      <g>
       <use xlink:href="#m343c2a6470" x="288.235833" y="174.04" style="stroke: #000000; stroke-width: 0.8"/>
      </g>
     </g>
     <g id="text_6">
      <!-- 800 -->
      <g transform="translate(278.692083 188.638438) scale(0.1 -0.1)">
       <defs>
        <path id="DejaVuSans-38" d="M 2034 2216 
Q 1584 2216 1326 1975 
Q 1069 1734 1069 1313 
Q 1069 891 1326 650 
Q 1584 409 2034 409 
Q 2484 409 2743 651 
Q 3003 894 3003 1313 
Q 3003 1734 2745 1975 
Q 2488 2216 2034 2216 
z
M 1403 2484 
Q 997 2584 770 2862 
Q 544 3141 544 3541 
Q 544 4100 942 4425 
Q 1341 4750 2034 4750 
Q 2731 4750 3128 4425 
Q 3525 4100 3525 3541 
Q 3525 3141 3298 2862 
Q 3072 2584 2669 2484 
Q 3125 2378 3379 2068 
Q 3634 1759 3634 1313 
Q 3634 634 3220 271 
Q 2806 -91 2034 -91 
Q 1263 -91 848 271 
Q 434 634 434 1313 
Q 434 1759 690 2068 
Q 947 2378 1403 2484 
z
M 1172 3481 
Q 1172 3119 1398 2916 
Q 1625 2713 2034 2713 
Q 2441 2713 2670 2916 
Q 2900 3119 2900 3481 
Q 2900 3844 2670 4047 
Q 2441 4250 2034 4250 
Q 1625 4250 1398 4047 
Q 1172 3844 1172 3481 
z
" transform="scale(0.015625)"/>
       </defs>
       <use xlink:href="#DejaVuSans-38"/>
       <use xlink:href="#DejaVuSans-30" x="63.623047"/>
       <use xlink:href="#DejaVuSans-30" x="127.246094"/>
      </g>
     </g>
    </g>
    <g id="xtick_7">
     <g id="line2d_7">
      <g>
       <use xlink:href="#m343c2a6470" x="336.555" y="174.04" style="stroke: #000000; stroke-width: 0.8"/>
      </g>
     </g>
     <g id="text_7">
      <!-- 1000 -->
      <g transform="translate(323.83 188.638438) scale(0.1 -0.1)">
       <defs>
        <path id="DejaVuSans-31" d="M 794 531 
L 1825 531 
L 1825 4091 
L 703 3866 
L 703 4441 
L 1819 4666 
L 2450 4666 
L 2450 531 
L 3481 531 
L 3481 0 
L 794 0 
L 794 531 
z
" transform="scale(0.015625)"/>
       </defs>
       <use xlink:href="#DejaVuSans-31"/>
       <use xlink:href="#DejaVuSans-30" x="63.623047"/>
       <use xlink:href="#DejaVuSans-30" x="127.246094"/>
       <use xlink:href="#DejaVuSans-30" x="190.869141"/>
      </g>
     </g>
    </g>
    <g id="text_8">
     <!-- Time (ms) -->
     <g transform="translate(166.398281 202.316563) scale(0.1 -0.1)">
      <defs>
       <path id="DejaVuSans-54" d="M -19 4666 
L 3928 4666 
L 3928 4134 
L 2272 4134 
L 2272 0 
L 1638 0 
L 1638 4134 
L -19 4134 
L -19 4666 
z
" transform="scale(0.015625)"/>
       <path id="DejaVuSans-69" d="M 603 3500 
L 1178 3500 
L 1178 0 
L 603 0 
L 603 3500 
z
M 603 4863 
L 1178 4863 
L 1178 4134 
L 603 4134 
L 603 4863 
z
" transform="scale(0.015625)"/>
       <path id="DejaVuSans-6d" d="M 3328 2828 
Q 3544 3216 3844 3400 
Q 4144 3584 4550 3584 
Q 5097 3584 5394 3201 
Q 5691 2819 5691 2113 
L 5691 0 
L 5113 0 
L 5113 2094 
Q 5113 2597 4934 2840 
Q 4756 3084 4391 3084 
Q 3944 3084 3684 2787 
Q 3425 2491 3425 1978 
L 3425 0 
L 2847 0 
L 2847 2094 
Q 2847 2600 2669 2842 
Q 2491 3084 2119 3084 
Q 1678 3084 1418 2786 
Q 1159 2488 1159 1978 
L 1159 0 
L 581 0 
L 581 3500 
L 1159 3500 
L 1159 2956 
Q 1356 3278 1631 3431 
Q 1906 3584 2284 3584 
Q 2666 3584 2933 3390 
Q 3200 3197 3328 2828 
z
" transform="scale(0.015625)"/>
       <path id="DejaVuSans-65" d="M 3597 1894 
L 3597 1613 
L 953 1613 
Q 991 1019 1311 708 
Q 1631 397 2203 397 
Q 2534 397 2845 478 
Q 3156 559 3463 722 
L 3463 178 
Q 3153 47 2828 -22 
Q 2503 -91 2169 -91 
Q 1331 -91 842 396 
Q 353 884 353 1716 
Q 353 2575 817 3079 
Q 1281 3584 2069 3584 
Q 2775 3584 3186 3129 
Q 3597 2675 3597 1894 
z
M 3022 2063 
Q 3016 2534 2758 2815 
Q 2500 3097 2075 3097 
Q 1594 3097 1305 2825 
Q 1016 2553 972 2059 
L 3022 2063 
z
" transform="scale(0.015625)"/>
       <path id="DejaVuSans-20" transform="scale(0.015625)"/>
       <path id="DejaVuSans-28" d="M 1984 4856 
Q 1566 4138 1362 3434 
Q 1159 2731 1159 2009 
Q 1159 1288 1364 580 
Q 1569 -128 1984 -844 
L 1484 -844 
Q 1016 -109 783 600 
Q 550 1309 550 2009 
Q 550 2706 781 3412 
Q 1013 4119 1484 4856 
L 1984 4856 
z
" transform="scale(0.015625)"/>
       <path id="DejaVuSans-73" d="M 2834 3397 
L 2834 2853 
Q 2591 2978 2328 3040 
Q 2066 3103 1784 3103 
Q 1356 3103 1142 2972 
Q 928 2841 928 2578 
Q 928 2378 1081 2264 
Q 1234 2150 1697 2047 
L 1894 2003 
Q 2506 1872 2764 1633 
Q 3022 1394 3022 966 
Q 3022 478 2636 193 
Q 2250 -91 1575 -91 
Q 1294 -91 989 -36 
Q 684 19 347 128 
L 347 722 
Q 666 556 975 473 
Q 1284 391 1588 391 
Q 1994 391 2212 530 
Q 2431 669 2431 922 
Q 2431 1156 2273 1281 
Q 2116 1406 1581 1522 
L 1381 1569 
Q 847 1681 609 1914 
Q 372 2147 372 2553 
Q 372 3047 722 3315 
Q 1072 3584 1716 3584 
Q 2034 3584 2315 3537 
Q 2597 3491 2834 3397 
z
" transform="scale(0.015625)"/>
       <path id="DejaVuSans-29" d="M 513 4856 
L 1013 4856 
Q 1481 4119 1714 3412 
Q 1947 2706 1947 2009 
Q 1947 1309 1714 600 
Q 1481 -109 1013 -844 
L 513 -844 
Q 928 -128 1133 580 
Q 1338 1288 1338 2009 
Q 1338 2731 1133 3434 
Q 928 4138 513 4856 
z
" transform="scale(0.015625)"/>
      </defs>
      <use xlink:href="#DejaVuSans-54"/>
      <use xlink:href="#DejaVuSans-69" x="57.958984"/>
      <use xlink:href="#DejaVuSans-6d" x="85.742188"/>
      <use xlink:href="#DejaVuSans-65" x="183.154297"/>
      <use xlink:href="#DejaVuSans-20" x="244.677734"/>
      <use xlink:href="#DejaVuSans-28" x="276.464844"/>
      <use xlink:href="#DejaVuSans-6d" x="315.478516"/>
      <use xlink:href="#DejaVuSans-73" x="412.890625"/>
      <use xlink:href="#DejaVuSans-29" x="464.990234"/>
     </g>
    </g>
   </g>
   <g id="matplotlib.axis_2">
    <g id="ytick_1">
     <g id="line2d_8">
      <defs>
       <path id="mc4970a430b" d="M 0 0 
L -3.5 0 
" style="stroke: #000000; stroke-width: 0.8"/>
      </defs>
      <g>
       <use xlink:href="#mc4970a430b" x="46.64" y="154.449205" style="stroke: #000000; stroke-width: 0.8"/>
      </g>
     </g>
     <g id="text_9">
      <!-- −1 -->
      <g transform="translate(24.897813 158.248424) scale(0.1 -0.1)">
       <use xlink:href="#DejaVuSans-2212"/>
       <use xlink:href="#DejaVuSans-31" x="83.789062"/>
      </g>
     </g>
    </g>
    <g id="ytick_2">
     <g id="line2d_9">
      <g>
       <use xlink:href="#mc4970a430b" x="46.64" y="127.83518" style="stroke: #000000; stroke-width: 0.8"/>
      </g>
     </g>
     <g id="text_10">
      <!-- 0 -->
      <g transform="translate(33.2775 131.634398) scale(0.1 -0.1)">
       <use xlink:href="#DejaVuSans-30"/>
      </g>
     </g>
    </g>
    <g id="ytick_3">
     <g id="line2d_10">
      <g>
       <use xlink:href="#mc4970a430b" x="46.64" y="101.221155" style="stroke: #000000; stroke-width: 0.8"/>
      </g>
     </g>
     <g id="text_11">
      <!-- 1 -->
      <g transform="translate(33.2775 105.020373) scale(0.1 -0.1)">
       <use xlink:href="#DejaVuSans-31"/>
      </g>
     </g>
    </g>
    <g id="ytick_4">
     <g id="line2d_11">
      <g>
       <use xlink:href="#mc4970a430b" x="46.64" y="74.607129" style="stroke: #000000; stroke-width: 0.8"/>
      </g>
     </g>
     <g id="text_12">
      <!-- 2 -->
      <g transform="translate(33.2775 78.406348) scale(0.1 -0.1)">
       <use xlink:href="#DejaVuSans-32"/>
      </g>
     </g>
    </g>
    <g id="ytick_5">
     <g id="line2d_12">
      <g>
       <use xlink:href="#mc4970a430b" x="46.64" y="47.993104" style="stroke: #000000; stroke-width: 0.8"/>
      </g>
     </g>
     <g id="text_13">
      <!-- 3 -->
      <g transform="translate(33.2775 51.792323) scale(0.1 -0.1)">
       <defs>
        <path id="DejaVuSans-33" d="M 2597 2516 
Q 3050 2419 3304 2112 
Q 3559 1806 3559 1356 
Q 3559 666 3084 287 
Q 2609 -91 1734 -91 
Q 1441 -91 1130 -33 
Q 819 25 488 141 
L 488 750 
Q 750 597 1062 519 
Q 1375 441 1716 441 
Q 2309 441 2620 675 
Q 2931 909 2931 1356 
Q 2931 1769 2642 2001 
Q 2353 2234 1838 2234 
L 1294 2234 
L 1294 2753 
L 1863 2753 
Q 2328 2753 2575 2939 
Q 2822 3125 2822 3475 
Q 2822 3834 2567 4026 
Q 2313 4219 1838 4219 
Q 1578 4219 1281 4162 
Q 984 4106 628 3988 
L 628 4550 
Q 988 4650 1302 4700 
Q 1616 4750 1894 4750 
Q 2613 4750 3031 4423 
Q 3450 4097 3450 3541 
Q 3450 3153 3228 2886 
Q 3006 2619 2597 2516 
z
" transform="scale(0.015625)"/>
       </defs>
       <use xlink:href="#DejaVuSans-33"/>
      </g>
     </g>
    </g>
    <g id="text_14">
     <!-- Amplitude (μV) -->
     <g transform="translate(18.818125 138.174844) rotate(-90) scale(0.1 -0.1)">
      <defs>
       <path id="DejaVuSans-41" d="M 2188 4044 
L 1331 1722 
L 3047 1722 
L 2188 4044 
z
M 1831 4666 
L 2547 4666 
L 4325 0 
L 3669 0 
L 3244 1197 
L 1141 1197 
L 716 0 
L 50 0 
L 1831 4666 
z
" transform="scale(0.015625)"/>
       <path id="DejaVuSans-70" d="M 1159 525 
L 1159 -1331 
L 581 -1331 
L 581 3500 
L 1159 3500 
L 1159 2969 
Q 1341 3281 1617 3432 
Q 1894 3584 2278 3584 
Q 2916 3584 3314 3078 
Q 3713 2572 3713 1747 
Q 3713 922 3314 415 
Q 2916 -91 2278 -91 
Q 1894 -91 1617 61 
Q 1341 213 1159 525 
z
M 3116 1747 
Q 3116 2381 2855 2742 
Q 2594 3103 2138 3103 
Q 1681 3103 1420 2742 
Q 1159 2381 1159 1747 
Q 1159 1113 1420 752 
Q 1681 391 2138 391 
Q 2594 391 2855 752 
Q 3116 1113 3116 1747 
z
" transform="scale(0.015625)"/>
       <path id="DejaVuSans-6c" d="M 603 4863 
L 1178 4863 
L 1178 0 
L 603 0 
L 603 4863 
z
" transform="scale(0.015625)"/>
       <path id="DejaVuSans-74" d="M 1172 4494 
L 1172 3500 
L 2356 3500 
L 2356 3053 
L 1172 3053 
L 1172 1153 
Q 1172 725 1289 603 
Q 1406 481 1766 481 
L 2356 481 
L 2356 0 
L 1766 0 
Q 1100 0 847 248 
Q 594 497 594 1153 
L 594 3053 
L 172 3053 
L 172 3500 
L 594 3500 
L 594 4494 
L 1172 4494 
z
" transform="scale(0.015625)"/>
       <path id="DejaVuSans-75" d="M 544 1381 
L 544 3500 
L 1119 3500 
L 1119 1403 
Q 1119 906 1312 657 
Q 1506 409 1894 409 
Q 2359 409 2629 706 
Q 2900 1003 2900 1516 
L 2900 3500 
L 3475 3500 
L 3475 0 
L 2900 0 
L 2900 538 
Q 2691 219 2414 64 
Q 2138 -91 1772 -91 
Q 1169 -91 856 284 
Q 544 659 544 1381 
z
M 1991 3584 
L 1991 3584 
z
" transform="scale(0.015625)"/>
       <path id="DejaVuSans-64" d="M 2906 2969 
L 2906 4863 
L 3481 4863 
L 3481 0 
L 2906 0 
L 2906 525 
Q 2725 213 2448 61 
Q 2172 -91 1784 -91 
Q 1150 -91 751 415 
Q 353 922 353 1747 
Q 353 2572 751 3078 
Q 1150 3584 1784 3584 
Q 2172 3584 2448 3432 
Q 2725 3281 2906 2969 
z
M 947 1747 
Q 947 1113 1208 752 
Q 1469 391 1925 391 
Q 2381 391 2643 752 
Q 2906 1113 2906 1747 
Q 2906 2381 2643 2742 
Q 2381 3103 1925 3103 
Q 1469 3103 1208 2742 
Q 947 2381 947 1747 
z
" transform="scale(0.015625)"/>
       <path id="DejaVuSans-3bc" d="M 544 -1331 
L 544 3500 
L 1119 3500 
L 1119 1325 
Q 1119 872 1334 640 
Q 1550 409 1972 409 
Q 2434 409 2667 671 
Q 2900 934 2900 1459 
L 2900 3500 
L 3475 3500 
L 3475 806 
Q 3475 619 3529 530 
Q 3584 441 3700 441 
Q 3728 441 3778 458 
Q 3828 475 3916 513 
L 3916 50 
Q 3788 -22 3673 -56 
Q 3559 -91 3450 -91 
Q 3234 -91 3106 31 
Q 2978 153 2931 403 
Q 2775 156 2548 32 
Q 2322 -91 2016 -91 
Q 1697 -91 1473 31 
Q 1250 153 1119 397 
L 1119 -1331 
L 544 -1331 
z
" transform="scale(0.015625)"/>
       <path id="DejaVuSans-56" d="M 1831 0 
L 50 4666 
L 709 4666 
L 2188 738 
L 3669 4666 
L 4325 4666 
L 2547 0 
L 1831 0 
z
" transform="scale(0.015625)"/>
      </defs>
      <use xlink:href="#DejaVuSans-41"/>
      <use xlink:href="#DejaVuSans-6d" x="68.408203"/>
      <use xlink:href="#DejaVuSans-70" x="165.820312"/>
      <use xlink:href="#DejaVuSans-6c" x="229.296875"/>
      <use xlink:href="#DejaVuSans-69" x="257.080078"/>
      <use xlink:href="#DejaVuSans-74" x="284.863281"/>
      <use xlink:href="#DejaVuSans-75" x="324.072266"/>
      <use xlink:href="#DejaVuSans-64" x="387.451172"/>
      <use xlink:href="#DejaVuSans-65" x="450.927734"/>
      <use xlink:href="#DejaVuSans-20" x="512.451172"/>
      <use xlink:href="#DejaVuSans-28" x="544.238281"/>
      <use xlink:href="#DejaVuSans-3bc" x="583.251953"/>
      <use xlink:href="#DejaVuSans-56" x="646.875"/>
      <use xlink:href="#DejaVuSans-29" x="715.283203"/>
     </g>
    </g>
   </g>
   <g id="line2d_13">
    <path d="M 46.64 123.991436 
L 47.606383 123.69995 
L 49.055958 122.861336 
L 49.780746 122.560125 
L 50.505533 122.531883 
L 51.230321 122.772522 
L 52.679896 123.60717 
L 54.129471 124.578821 
L 55.095854 125.470832 
L 57.270217 127.680385 
L 57.995004 128.050218 
L 58.719792 128.150409 
L 59.444579 128.024619 
L 60.410963 127.588008 
L 62.102133 126.695185 
L 62.826921 126.579236 
L 63.793304 126.713269 
L 64.759688 126.83594 
L 65.484475 126.716781 
L 67.658838 126.048451 
L 68.383625 126.18668 
L 69.108413 126.584557 
L 70.799583 127.635615 
L 71.765967 127.843698 
L 73.940329 127.967008 
L 76.356288 127.787625 
L 77.081075 128.226674 
L 79.013842 129.75496 
L 79.738629 130.021536 
L 80.705013 130.119711 
L 81.912992 130.00834 
L 84.087354 129.626846 
L 84.812142 129.781131 
L 86.261717 130.210592 
L 86.986504 130.178451 
L 88.436079 129.988747 
L 88.919271 130.138927 
L 89.644058 130.663487 
L 91.093633 131.969799 
L 91.576825 132.181366 
L 92.301613 132.198342 
L 94.475975 131.720028 
L 95.200763 131.940848 
L 96.167146 132.572552 
L 97.375125 133.374889 
L 98.099913 133.533523 
L 98.583104 133.438443 
L 99.307892 133.050437 
L 100.515871 132.317211 
L 101.240658 132.143123 
L 102.448638 132.216959 
L 103.415021 132.184947 
L 104.381404 131.888763 
L 106.072575 131.059428 
L 108.488533 129.75475 
L 108.971725 129.84035 
L 109.454917 130.192346 
L 109.938108 130.813287 
L 110.904492 132.588179 
L 113.562046 138.083057 
L 114.286833 141.001227 
L 115.011621 145.027866 
L 116.944388 156.705984 
L 117.669175 159.591354 
L 118.393963 161.464959 
L 119.11875 162.676947 
L 119.843538 163.526926 
L 120.568325 164.022327 
L 121.051517 164.012618 
L 121.534708 163.579639 
L 122.0179 162.596574 
L 122.501092 160.967243 
L 122.984283 158.644445 
L 123.709071 153.896942 
L 124.675454 145.632902 
L 126.125029 130.862589 
L 128.057796 108.819118 
L 130.473754 77.815914 
L 132.164925 57.178716 
L 133.131308 47.483193 
L 133.856096 41.790784 
L 134.580883 37.696639 
L 135.064075 35.926451 
L 135.547267 34.948279 
L 135.788863 34.75589 
L 136.030458 34.758514 
L 136.272054 34.952518 
L 136.755246 35.895654 
L 137.238438 37.538727 
L 137.963225 41.173564 
L 138.929608 47.724566 
L 140.379183 59.582539 
L 142.553546 79.386588 
L 145.452696 105.510853 
L 148.11025 127.361636 
L 149.318229 135.868401 
L 150.526208 142.944517 
L 151.734188 148.891816 
L 152.700571 152.824712 
L 153.666954 155.879585 
L 154.391742 157.577016 
L 155.116529 158.818112 
L 155.841317 159.701607 
L 156.8077 160.51153 
L 158.015679 161.186687 
L 159.465254 161.707035 
L 160.914829 162.24213 
L 162.606 162.97833 
L 163.330788 162.985999 
L 163.813979 162.796433 
L 164.538767 162.24044 
L 165.988342 160.656172 
L 166.954725 159.727362 
L 167.679513 159.279569 
L 168.4043 159.069913 
L 170.578663 158.775839 
L 171.30345 158.242485 
L 172.028238 157.40103 
L 174.2026 154.593061 
L 174.927388 154.03034 
L 175.652175 153.736132 
L 178.068133 153.187875 
L 178.792921 152.628403 
L 180.484092 151.156777 
L 181.450475 150.689861 
L 182.658454 150.155362 
L 183.624838 149.464937 
L 185.074413 148.372005 
L 186.523988 147.658772 
L 188.456754 146.679964 
L 189.423138 145.965355 
L 191.355904 144.258361 
L 192.080692 144.006401 
L 192.805479 144.023425 
L 193.771863 144.095905 
L 194.49665 143.874043 
L 195.221438 143.347581 
L 199.086971 140.003735 
L 200.29495 139.062931 
L 201.502929 138.191043 
L 202.227717 137.317646 
L 203.1941 135.621563 
L 204.402079 133.553952 
L 205.126867 132.738066 
L 206.334846 131.482254 
L 207.059633 130.247875 
L 208.026017 127.943295 
L 210.200379 122.465183 
L 211.89155 118.325685 
L 214.065913 112.614895 
L 214.7907 111.419537 
L 217.206658 108.124611 
L 219.864213 103.407257 
L 220.589 102.667846 
L 221.796979 101.877918 
L 223.004958 101.014384 
L 224.212938 99.859976 
L 225.420917 98.42512 
L 226.3873 96.975078 
L 227.595279 94.69999 
L 228.561663 92.97122 
L 229.044854 92.422307 
L 229.528046 92.195251 
L 230.011238 92.281115 
L 231.702408 93.160775 
L 232.1856 93.051574 
L 233.876771 92.242333 
L 234.359963 92.356089 
L 235.08475 92.86166 
L 236.051133 93.594309 
L 236.534325 93.725098 
L 237.017517 93.614744 
L 237.742304 93.065397 
L 238.708688 92.216997 
L 239.191879 92.048648 
L 239.675071 92.15823 
L 240.158263 92.530963 
L 241.607838 94.029835 
L 242.091029 94.125599 
L 242.574221 93.847769 
L 243.057413 93.232234 
L 244.506988 91.010387 
L 244.990179 90.790314 
L 245.473371 91.019565 
L 245.956563 91.669507 
L 246.68135 93.162399 
L 247.889329 95.658116 
L 248.614117 96.558706 
L 249.097308 96.872124 
L 249.822096 97.025206 
L 251.754863 97.108391 
L 252.47965 97.493225 
L 253.204438 98.165744 
L 254.170821 99.476215 
L 256.345183 102.8397 
L 259.969121 106.930969 
L 260.693908 107.397169 
L 261.1771 107.484682 
L 261.901888 107.319856 
L 263.351463 106.775918 
L 263.834654 106.82074 
L 264.559442 107.153415 
L 265.767421 107.795361 
L 267.216996 108.293714 
L 267.700188 108.720275 
L 268.183379 109.403183 
L 269.149763 111.353851 
L 270.116146 113.207048 
L 270.599338 113.79317 
L 271.082529 114.09581 
L 271.565721 114.136512 
L 272.048913 113.966817 
L 272.7737 113.463988 
L 274.223275 112.386451 
L 274.706467 112.250502 
L 275.189658 112.339194 
L 275.67285 112.686815 
L 276.397638 113.635646 
L 278.088808 116.238928 
L 278.813596 116.936946 
L 281.47115 118.96378 
L 282.920725 120.280841 
L 283.645513 120.671579 
L 284.3703 120.826824 
L 285.819875 121.009046 
L 286.544663 121.382147 
L 287.752642 122.056205 
L 288.235833 122.076084 
L 288.719025 121.897041 
L 289.927004 121.213458 
L 290.410196 121.225452 
L 290.893388 121.533856 
L 291.618175 122.450666 
L 292.826154 124.085333 
L 293.309346 124.427525 
L 293.792538 124.555437 
L 295.483708 124.691783 
L 296.208496 125.178295 
L 297.899667 126.844846 
L 300.315625 129.041677 
L 301.040413 129.432367 
L 301.7652 129.552231 
L 302.731583 129.424635 
L 303.939563 129.266904 
L 304.66435 129.402511 
L 305.389138 129.783914 
L 306.838713 130.72576 
L 307.5635 130.860989 
L 308.288288 130.653201 
L 309.979458 129.880759 
L 310.704246 129.956135 
L 312.395417 130.412098 
L 314.328183 130.562733 
L 315.052971 130.964141 
L 317.710525 132.908945 
L 318.435313 133.114907 
L 318.918504 133.108966 
L 319.401696 132.914015 
L 319.884888 132.469651 
L 320.368079 131.749754 
L 321.092867 130.197557 
L 323.750421 123.63555 
L 324.233613 123.142462 
L 324.716804 122.992729 
L 325.199996 123.121722 
L 326.891167 123.954562 
L 327.374358 123.852851 
L 327.85755 123.543763 
L 328.823933 122.550862 
L 330.031913 121.386203 
L 331.239892 120.647308 
L 332.689467 119.948943 
L 333.414254 119.831636 
L 334.139042 119.949398 
L 336.071808 120.462224 
L 336.796596 120.449528 
L 336.796596 120.449528 
" clip-path="url(#p83458ddcc7)" style="fill: none; stroke: #000080; stroke-linecap: square"/>
   </g>
   <g id="line2d_14">
    <path d="M 46.64 124.642261 
L 47.847979 126.393143 
L 48.331171 126.822717 
L 48.814363 126.99376 
L 49.297554 126.913592 
L 50.022342 126.465703 
L 50.988725 125.793925 
L 51.471917 125.629689 
L 51.955108 125.629456 
L 52.679896 125.875902 
L 54.129471 126.473615 
L 54.854258 126.500258 
L 56.787025 126.332632 
L 57.511813 126.596813 
L 59.686175 127.687233 
L 60.652558 127.748303 
L 61.860538 127.804253 
L 64.0349 128.220627 
L 64.759688 127.849245 
L 66.209263 126.808343 
L 66.93405 126.627476 
L 67.900433 126.737607 
L 69.591604 127.22423 
L 72.007563 128.181821 
L 72.973946 128.13408 
L 74.423521 127.968696 
L 75.389904 128.109015 
L 76.839479 128.361821 
L 78.047458 128.260397 
L 79.980225 128.066058 
L 81.188204 127.912948 
L 83.362567 127.427621 
L 84.087354 127.671946 
L 84.812142 128.1937 
L 86.261717 129.300103 
L 86.986504 129.497119 
L 87.952888 129.433073 
L 88.919271 129.424882 
L 89.885654 129.690163 
L 91.093633 130.086797 
L 91.818421 130.102671 
L 92.543208 129.889652 
L 93.509592 129.547915 
L 93.992783 129.554495 
L 94.475975 129.777982 
L 94.959167 130.22988 
L 96.167146 131.892234 
L 96.891933 132.676027 
L 97.375125 132.910313 
L 97.858317 132.881696 
L 98.341508 132.623584 
L 99.307892 131.733656 
L 100.274275 130.897967 
L 100.999063 130.521152 
L 101.965446 130.293368 
L 103.415021 130.217877 
L 104.864596 130.417116 
L 106.314171 130.559325 
L 109.213321 130.538937 
L 110.179704 130.8632 
L 110.904492 131.315192 
L 111.629279 132.038044 
L 112.354067 133.134077 
L 113.078854 134.724121 
L 113.803642 136.987075 
L 114.528429 140.107668 
L 115.494813 145.536442 
L 116.944388 154.100471 
L 117.669175 157.226315 
L 118.393963 159.247714 
L 119.11875 160.405248 
L 119.843538 161.018624 
L 120.326729 161.185157 
L 120.809921 161.109568 
L 121.293113 160.698383 
L 121.776304 159.839308 
L 122.259496 158.427032 
L 122.742688 156.386444 
L 123.467475 152.108133 
L 124.433858 144.460297 
L 126.125029 128.450669 
L 128.057796 108.399923 
L 129.507371 91.011595 
L 132.648117 52.044652 
L 133.6145 43.055643 
L 134.339288 38.148883 
L 134.822479 35.848909 
L 135.305671 34.346209 
L 135.788863 33.635542 
L 136.030458 33.569091 
L 136.272054 33.68712 
L 136.755246 34.440392 
L 137.238438 35.803647 
L 137.963225 38.74181 
L 138.929608 43.79571 
L 140.137588 51.554493 
L 141.345567 61.165404 
L 142.795142 74.821357 
L 148.11025 127.18855 
L 149.318229 135.856448 
L 150.526208 142.892421 
L 151.492592 147.363715 
L 152.458975 150.790393 
L 153.183763 152.713146 
L 154.150146 154.576745 
L 155.358125 156.303661 
L 157.532488 159.059416 
L 158.498871 159.921419 
L 160.673233 161.603948 
L 161.639617 162.420837 
L 162.122808 162.645168 
L 162.606 162.678034 
L 163.089192 162.518276 
L 163.813979 162.012102 
L 165.021958 161.069305 
L 165.746746 160.781441 
L 166.954725 160.697187 
L 167.679513 160.533871 
L 168.4043 160.105195 
L 169.853875 158.787825 
L 171.061854 157.853192 
L 174.685792 155.481383 
L 175.410579 155.360804 
L 176.376963 155.444188 
L 177.826538 155.616674 
L 178.551325 155.477659 
L 179.517708 155.020124 
L 180.725688 154.469513 
L 181.450475 154.389624 
L 182.175263 154.531069 
L 184.349625 155.228307 
L 185.074413 155.117353 
L 185.7992 154.768662 
L 187.490371 153.791074 
L 188.215158 153.701713 
L 188.939946 153.935501 
L 189.664733 154.458246 
L 191.5975 156.131644 
L 192.322288 156.404602 
L 193.047075 156.449908 
L 194.738246 156.230358 
L 196.187821 155.882285 
L 197.154204 155.43671 
L 198.603779 154.666543 
L 199.328567 154.537629 
L 200.29495 154.680291 
L 201.019738 154.775681 
L 201.502929 154.697182 
L 201.986121 154.445041 
L 202.710908 153.722997 
L 203.918888 151.962949 
L 205.126867 150.292309 
L 206.818038 148.10039 
L 207.784421 146.279513 
L 209.475592 142.915047 
L 211.408358 139.439368 
L 213.099529 135.439959 
L 214.549104 132.322816 
L 215.998679 129.129671 
L 217.206658 125.756024 
L 218.656233 121.691264 
L 219.381021 120.241327 
L 220.105808 119.324592 
L 220.830596 118.792279 
L 222.280171 117.885945 
L 223.246554 116.994287 
L 224.454533 115.590514 
L 225.662513 113.851367 
L 226.870492 112.084112 
L 227.595279 111.361976 
L 228.320067 110.969579 
L 229.769642 110.365796 
L 230.494429 109.687777 
L 232.427196 107.540779 
L 232.910388 107.381733 
L 233.393579 107.441695 
L 234.359963 107.934722 
L 235.08475 108.213726 
L 235.567942 108.199826 
L 236.051133 108.001974 
L 236.775921 107.442975 
L 238.225496 106.178505 
L 238.950283 105.811919 
L 239.675071 105.710798 
L 240.399858 105.853015 
L 241.366242 106.339994 
L 244.023796 108.062153 
L 244.748583 108.084183 
L 246.198158 107.936722 
L 246.68135 108.118478 
L 247.406138 108.68983 
L 249.097308 110.303595 
L 250.063692 110.848163 
L 251.754863 111.75408 
L 254.170821 113.208846 
L 255.3788 113.568507 
L 256.345183 113.915975 
L 257.069971 114.477492 
L 257.794758 115.368843 
L 259.727525 117.985843 
L 260.452313 118.525943 
L 261.418696 118.951597 
L 263.834654 119.842875 
L 269.391358 122.942706 
L 271.082529 123.545074 
L 275.431254 124.881181 
L 276.639233 125.351283 
L 277.364021 125.878583 
L 278.088808 126.687569 
L 279.296788 128.511213 
L 280.263171 129.774063 
L 280.746363 130.115007 
L 281.229554 130.206902 
L 281.712746 130.054298 
L 282.437533 129.462973 
L 283.887108 128.046954 
L 284.611896 127.757304 
L 285.336683 127.785387 
L 287.26945 128.097705 
L 289.685408 127.950694 
L 290.410196 127.787386 
L 291.134983 127.325427 
L 292.584558 126.097235 
L 293.06775 126.014929 
L 293.550942 126.203321 
L 294.275729 126.860327 
L 295.242113 127.808086 
L 295.725304 128.073199 
L 296.208496 128.152927 
L 297.174879 127.973055 
L 298.141263 127.848783 
L 298.86605 127.974114 
L 299.832433 128.40287 
L 300.798817 129.083571 
L 302.489988 130.397165 
L 303.214775 130.626027 
L 304.422754 130.877247 
L 305.147542 131.355432 
L 306.597117 132.517269 
L 307.080308 132.55351 
L 307.5635 132.290445 
L 308.046692 131.753944 
L 309.979458 129.17277 
L 310.46265 128.925444 
L 311.187438 128.892459 
L 312.637013 129.274783 
L 313.844992 129.714822 
L 314.569779 130.16145 
L 315.294567 130.815798 
L 316.26095 132.021316 
L 317.952121 134.260668 
L 318.435313 134.561007 
L 318.918504 134.550253 
L 319.401696 134.188676 
L 319.884888 133.492797 
L 320.609675 131.977379 
L 323.025633 126.337145 
L 323.992017 124.800357 
L 324.716804 124.065676 
L 325.199996 123.798181 
L 325.683188 123.716839 
L 326.166379 123.81228 
L 326.891167 124.20087 
L 327.85755 124.77616 
L 328.340742 124.894794 
L 328.823933 124.835303 
L 329.548721 124.457909 
L 331.481488 123.17468 
L 334.622233 121.740089 
L 335.105425 121.778417 
L 335.830213 122.122149 
L 336.555 122.756959 
L 336.796596 123.021515 
L 336.796596 123.021515 
" clip-path="url(#p83458ddcc7)" style="fill: none; stroke: #006400; stroke-linecap: square"/>
   </g>
   <g id="line2d_15">
    <path d="M 46.64 125.219935 
L 47.364787 125.284035 
L 48.572767 125.463441 
L 49.055958 125.345952 
L 49.53915 125.063058 
L 50.263938 124.34548 
L 51.955108 122.398272 
L 52.4383 122.145471 
L 52.921492 122.112454 
L 53.404683 122.280652 
L 54.129471 122.793236 
L 56.303833 124.510589 
L 59.686175 126.699947 
L 60.894154 127.491853 
L 61.618942 127.746962 
L 62.343729 127.779349 
L 63.793304 127.713769 
L 64.518092 128.004369 
L 66.450858 129.114939 
L 66.93405 129.102023 
L 67.658838 128.83972 
L 69.591604 127.709041 
L 71.041179 126.917322 
L 71.765967 126.780468 
L 72.490754 126.964643 
L 73.457138 127.583135 
L 74.665117 128.373304 
L 75.873096 128.883603 
L 77.805863 129.658495 
L 78.772246 130.262432 
L 80.705013 131.629168 
L 81.188204 131.721617 
L 81.671396 131.621887 
L 82.154588 131.327605 
L 83.120971 130.354478 
L 83.845758 129.660218 
L 84.32895 129.401826 
L 84.812142 129.370575 
L 85.295333 129.552688 
L 86.986504 130.566042 
L 87.469696 130.580756 
L 88.194483 130.306923 
L 89.644058 129.569993 
L 90.368846 129.438991 
L 92.784804 129.453234 
L 93.751188 129.568846 
L 94.717571 129.973907 
L 96.408742 130.829517 
L 97.133529 130.894396 
L 97.858317 130.721144 
L 99.066296 130.374919 
L 99.549488 130.416595 
L 100.274275 130.763086 
L 102.690233 132.653058 
L 103.656617 133.522894 
L 105.347788 135.240936 
L 105.830979 135.387902 
L 106.314171 135.245602 
L 106.797363 134.833861 
L 108.488533 132.988912 
L 108.971725 132.898918 
L 109.454917 133.113582 
L 109.938108 133.585258 
L 113.803642 138.626197 
L 114.286833 140.01415 
L 115.011621 143.077498 
L 116.2196 149.839812 
L 117.185983 154.687966 
L 117.910771 157.108333 
L 118.393963 158.136995 
L 119.11875 159.076101 
L 119.843538 159.628872 
L 120.568325 159.903926 
L 121.051517 159.818115 
L 121.534708 159.364699 
L 122.0179 158.400202 
L 122.501092 156.804012 
L 122.984283 154.507724 
L 123.709071 149.777647 
L 124.675454 141.571893 
L 126.125029 126.977025 
L 128.057796 105.044773 
L 131.923329 60.602017 
L 133.372904 46.260314 
L 134.097692 40.660066 
L 134.822479 36.72348 
L 135.305671 35.163462 
L 135.788863 34.468737 
L 136.030458 34.431646 
L 136.272054 34.587977 
L 136.755246 35.432069 
L 137.238438 36.898602 
L 137.963225 40.060972 
L 138.929608 45.678506 
L 140.137588 54.297949 
L 141.587163 66.339469 
L 149.318229 134.565754 
L 150.284613 140.543182 
L 151.250996 145.288186 
L 152.458975 150.031083 
L 153.666954 153.798523 
L 154.874933 156.799555 
L 155.841317 158.723197 
L 156.566104 159.791272 
L 157.290892 160.492376 
L 158.015679 160.883714 
L 160.673233 161.899529 
L 162.606 163.313391 
L 163.330788 163.47422 
L 164.055575 163.34592 
L 165.021958 162.860547 
L 167.679513 161.110694 
L 169.612279 159.734915 
L 170.578663 159.376408 
L 173.477813 158.490983 
L 174.444196 157.88462 
L 177.343346 155.718201 
L 178.068133 155.653615 
L 179.034517 155.900495 
L 180.242496 156.240301 
L 182.175263 156.601991 
L 183.141646 157.118515 
L 184.591221 157.9929 
L 187.007179 159.059687 
L 187.731967 159.867109 
L 188.69835 161.3444 
L 190.389521 164.056721 
L 191.114308 164.904266 
L 191.839096 165.459085 
L 192.805479 165.884157 
L 194.255054 166.516646 
L 195.704629 167.224914 
L 196.429417 167.350909 
L 197.154204 167.267757 
L 198.120588 166.885214 
L 199.086971 166.253536 
L 200.053354 165.316719 
L 201.019738 163.965916 
L 202.710908 161.438805 
L 203.435696 160.744404 
L 205.368463 159.170317 
L 206.09325 158.228864 
L 207.059633 156.56798 
L 208.9924 153.0351 
L 210.441975 150.549423 
L 211.166763 148.824486 
L 212.374742 145.174744 
L 213.824317 140.917453 
L 215.032296 138.188834 
L 216.240275 135.384322 
L 219.139425 127.685811 
L 220.105808 126.162534 
L 222.038575 123.337084 
L 223.48815 121.201262 
L 224.696129 119.819718 
L 225.904108 118.382123 
L 226.870492 116.816398 
L 228.320067 114.324455 
L 229.044854 113.505714 
L 229.769642 113.079902 
L 231.219217 112.541629 
L 231.944004 111.913183 
L 233.151983 110.344941 
L 233.876771 109.507177 
L 234.601558 108.991719 
L 235.326346 108.778085 
L 236.534325 108.507806 
L 237.259113 108.083557 
L 238.467092 107.253719 
L 238.950283 107.116701 
L 239.433475 107.163254 
L 240.158263 107.5126 
L 241.366242 108.172631 
L 242.091029 108.285509 
L 243.057413 108.359525 
L 243.540604 108.584404 
L 244.023796 109.0178 
L 244.748583 110.002905 
L 246.198158 112.074141 
L 246.922946 112.718935 
L 247.889329 113.23425 
L 249.097308 113.59249 
L 250.546883 113.690574 
L 251.271671 113.833754 
L 251.996458 114.239293 
L 252.721246 114.931472 
L 255.137204 117.556194 
L 257.069971 119.014374 
L 258.761142 120.09946 
L 259.727525 120.489029 
L 260.452313 120.568967 
L 262.626675 120.467598 
L 263.351463 120.792692 
L 264.317846 121.55178 
L 266.009017 123.008383 
L 266.733804 123.319975 
L 267.700188 123.417719 
L 268.666571 123.525532 
L 269.391358 123.865253 
L 270.357742 124.702734 
L 272.290508 126.525833 
L 273.256892 127.231621 
L 273.981679 127.501901 
L 274.464871 127.466612 
L 274.948063 127.245795 
L 276.880829 125.903847 
L 277.364021 125.917804 
L 277.847213 126.185682 
L 278.572 127.002309 
L 280.021575 128.943492 
L 280.504767 129.303416 
L 280.987958 129.448657 
L 281.712746 129.368021 
L 283.162321 129.054324 
L 285.095088 128.841564 
L 286.061471 128.411502 
L 287.511046 127.673355 
L 287.994238 127.670764 
L 288.477429 127.87 
L 289.443813 128.656921 
L 290.1686 129.152842 
L 290.651792 129.258071 
L 291.134983 129.153884 
L 291.859771 128.721511 
L 292.826154 128.159466 
L 293.309346 128.091356 
L 293.792538 128.205879 
L 294.517325 128.626412 
L 296.208496 129.958041 
L 297.658071 131.142312 
L 298.141263 131.322389 
L 298.624454 131.274399 
L 299.107646 130.988864 
L 301.040413 129.397258 
L 301.523604 129.427321 
L 302.006796 129.687734 
L 302.731583 130.364404 
L 304.66435 132.623192 
L 305.872329 134.056726 
L 306.355521 134.414167 
L 306.838713 134.495916 
L 307.321904 134.226398 
L 307.805096 133.595367 
L 308.529883 132.146514 
L 309.737863 129.618571 
L 310.46265 128.615235 
L 311.187438 127.991184 
L 312.153821 127.487458 
L 312.878608 127.319263 
L 313.603396 127.430132 
L 314.328183 127.894398 
L 315.294567 128.95945 
L 316.744142 130.647631 
L 317.952121 131.714691 
L 318.676908 132.173289 
L 319.1601 132.325247 
L 319.643292 132.289516 
L 320.126483 132.017944 
L 320.609675 131.477286 
L 321.334463 130.149074 
L 322.300846 127.630455 
L 323.508825 124.351866 
L 324.233613 123.003814 
L 324.716804 122.525993 
L 325.199996 122.390006 
L 325.683188 122.542152 
L 326.407975 123.120491 
L 328.099146 124.692193 
L 328.823933 125.01166 
L 329.307125 125.033806 
L 330.031913 124.80653 
L 332.931063 123.356835 
L 335.347021 122.664267 
L 336.796596 122.6088 
L 336.796596 122.6088 
" clip-path="url(#p83458ddcc7)" style="fill: none; stroke: #b22222; stroke-linecap: square"/>
   </g>
   <g id="line2d_16">
    <path d="M 94.959167 174.04 
L 94.959167 26.88 
" clip-path="url(#p83458ddcc7)" style="fill: none; stroke-dasharray: 1.85,0.8; stroke-dashoffset: 0; stroke: #000000; stroke-opacity: 0.7; stroke-width: 0.5"/>
   </g>
   <g id="patch_4">
    <path d="M 46.64 174.04 
L 46.64 26.88 
" style="fill: none; stroke: #000000; stroke-width: 0.8; stroke-linejoin: miter; stroke-linecap: square"/>
   </g>
   <g id="patch_5">
    <path d="M 46.64 174.04 
L 336.555 174.04 
" style="fill: none; stroke: #000000; stroke-width: 0.8; stroke-linejoin: miter; stroke-linecap: square"/>
   </g>
   <g id="text_15">
    <!-- Pool: Central -->
    <g transform="translate(153.413125 20.88) scale(0.12 -0.12)">
     <defs>
      <path id="DejaVuSans-50" d="M 1259 4147 
L 1259 2394 
L 2053 2394 
Q 2494 2394 2734 2622 
Q 2975 2850 2975 3272 
Q 2975 3691 2734 3919 
Q 2494 4147 2053 4147 
L 1259 4147 
z
M 628 4666 
L 2053 4666 
Q 2838 4666 3239 4311 
Q 3641 3956 3641 3272 
Q 3641 2581 3239 2228 
Q 2838 1875 2053 1875 
L 1259 1875 
L 1259 0 
L 628 0 
L 628 4666 
z
" transform="scale(0.015625)"/>
      <path id="DejaVuSans-6f" d="M 1959 3097 
Q 1497 3097 1228 2736 
Q 959 2375 959 1747 
Q 959 1119 1226 758 
Q 1494 397 1959 397 
Q 2419 397 2687 759 
Q 2956 1122 2956 1747 
Q 2956 2369 2687 2733 
Q 2419 3097 1959 3097 
z
M 1959 3584 
Q 2709 3584 3137 3096 
Q 3566 2609 3566 1747 
Q 3566 888 3137 398 
Q 2709 -91 1959 -91 
Q 1206 -91 779 398 
Q 353 888 353 1747 
Q 353 2609 779 3096 
Q 1206 3584 1959 3584 
z
" transform="scale(0.015625)"/>
      <path id="DejaVuSans-3a" d="M 750 794 
L 1409 794 
L 1409 0 
L 750 0 
L 750 794 
z
M 750 3309 
L 1409 3309 
L 1409 2516 
L 750 2516 
L 750 3309 
z
" transform="scale(0.015625)"/>
      <path id="DejaVuSans-43" d="M 4122 4306 
L 4122 3641 
Q 3803 3938 3442 4084 
Q 3081 4231 2675 4231 
Q 1875 4231 1450 3742 
Q 1025 3253 1025 2328 
Q 1025 1406 1450 917 
Q 1875 428 2675 428 
Q 3081 428 3442 575 
Q 3803 722 4122 1019 
L 4122 359 
Q 3791 134 3420 21 
Q 3050 -91 2638 -91 
Q 1578 -91 968 557 
Q 359 1206 359 2328 
Q 359 3453 968 4101 
Q 1578 4750 2638 4750 
Q 3056 4750 3426 4639 
Q 3797 4528 4122 4306 
z
" transform="scale(0.015625)"/>
      <path id="DejaVuSans-6e" d="M 3513 2113 
L 3513 0 
L 2938 0 
L 2938 2094 
Q 2938 2591 2744 2837 
Q 2550 3084 2163 3084 
Q 1697 3084 1428 2787 
Q 1159 2491 1159 1978 
L 1159 0 
L 581 0 
L 581 3500 
L 1159 3500 
L 1159 2956 
Q 1366 3272 1645 3428 
Q 1925 3584 2291 3584 
Q 2894 3584 3203 3211 
Q 3513 2838 3513 2113 
z
" transform="scale(0.015625)"/>
      <path id="DejaVuSans-72" d="M 2631 2963 
Q 2534 3019 2420 3045 
Q 2306 3072 2169 3072 
Q 1681 3072 1420 2755 
Q 1159 2438 1159 1844 
L 1159 0 
L 581 0 
L 581 3500 
L 1159 3500 
L 1159 2956 
Q 1341 3275 1631 3429 
Q 1922 3584 2338 3584 
Q 2397 3584 2469 3576 
Q 2541 3569 2628 3553 
L 2631 2963 
z
" transform="scale(0.015625)"/>
      <path id="DejaVuSans-61" d="M 2194 1759 
Q 1497 1759 1228 1600 
Q 959 1441 959 1056 
Q 959 750 1161 570 
Q 1363 391 1709 391 
Q 2188 391 2477 730 
Q 2766 1069 2766 1631 
L 2766 1759 
L 2194 1759 
z
M 3341 1997 
L 3341 0 
L 2766 0 
L 2766 531 
Q 2569 213 2275 61 
Q 1981 -91 1556 -91 
Q 1019 -91 701 211 
Q 384 513 384 1019 
Q 384 1609 779 1909 
Q 1175 2209 1959 2209 
L 2766 2209 
L 2766 2266 
Q 2766 2663 2505 2880 
Q 2244 3097 1772 3097 
Q 1472 3097 1187 3025 
Q 903 2953 641 2809 
L 641 3341 
Q 956 3463 1253 3523 
Q 1550 3584 1831 3584 
Q 2591 3584 2966 3190 
Q 3341 2797 3341 1997 
z
" transform="scale(0.015625)"/>
     </defs>
     <use xlink:href="#DejaVuSans-50"/>
     <use xlink:href="#DejaVuSans-6f" x="56.677734"/>
     <use xlink:href="#DejaVuSans-6f" x="117.859375"/>
     <use xlink:href="#DejaVuSans-6c" x="179.041016"/>
     <use xlink:href="#DejaVuSans-3a" x="206.824219"/>
     <use xlink:href="#DejaVuSans-20" x="240.515625"/>
     <use xlink:href="#DejaVuSans-43" x="272.302734"/>
     <use xlink:href="#DejaVuSans-65" x="342.126953"/>
     <use xlink:href="#DejaVuSans-6e" x="403.650391"/>
     <use xlink:href="#DejaVuSans-74" x="467.029297"/>
     <use xlink:href="#DejaVuSans-72" x="506.238281"/>
     <use xlink:href="#DejaVuSans-61" x="547.351562"/>
     <use xlink:href="#DejaVuSans-6c" x="608.630859"/>
    </g>
   </g>
  </g>
 </g>
 <defs>
  <clipPath id="p83458ddcc7">
   <rect x="46.64" y="26.88" width="289.915" height="147.16"/>
  </clipPath>
 </defs>
</svg>
