<?xml version="1.0" encoding="utf-8" standalone="no"?>
<!DOCTYPE svg PUBLIC "-//W3C//DTD SVG 1.1//EN"
  "http://www.w3.org/Graphics/SVG/1.1/DTD/svg11.dtd">
<svg xmlns:xlink="http://www.w3.org/1999/xlink" width="360pt" height="216pt" viewBox="0 0 360 216" xmlns="http://www.w3.org/2000/svg" version="1.1">
 <metadata>
  <rdf:RDF xmlns:dc="http://purl.org/dc/elements/1.1/" xmlns:cc="http://creativecommons.org/ns#" xmlns:rdf="http://www.w3.org/1999/02/22-rdf-syntax-ns#">
   <cc:Work>
    <dc:type rdf:resource="http://purl.org/dc/dcmitype/StillImage"/>
    <dc:date>2025-07-03T15:01:16.040433</dc:date>
    <dc:format>image/svg+xml</dc:format>
    <dc:creator>
     <cc:Agent>
      <dc:title>Matplotlib v3.9.3, https://matplotlib.org/</dc:title>
     </cc:Agent>
    </dc:creator>
   </cc:Work>
  </rdf:RDF>
 </metadata>
 <defs>
  <style type="text/css">*{stroke-linejoin: round; stroke-linecap: butt}</style>
 </defs>
 <g id="figure_1">
  <g id="patch_1">
   <path d="M 0 216 
L 360 216 
L 360 0 
L 0 0 
z
" style="fill: #ffffff"/>
  </g>
  <g id="axes_1">
   <g id="patch_2">
    <path d="M 46.64 174.04 
L 336.555 174.04 
L 336.555 26.88 
L 46.64 26.88 
z
" style="fill: #ffffff"/>
   </g>
   <g id="patch_3">
    <path d="M 191.5975 174.04 
L 288.235833 174.04 
L 288.235833 26.88 
L 191.5975 26.88 
z
" clip-path="url(#p6d245bb759)" style="fill: #d3d3d3; opacity: 0.2; stroke: #000000; stroke-linejoin: miter"/>
   </g>
   <g id="matplotlib.axis_1">
    <g id="xtick_1">
     <g id="line2d_1">
      <defs>
       <path id="m0f0bdb281f" d="M 0 0 
L 0 3.5 
" style="stroke: #000000; stroke-width: 0.8"/>
      </defs>
      <g>
       <use xlink:href="#m0f0bdb281f" x="46.64" y="174.04" style="stroke: #000000; stroke-width: 0.8"/>
      </g>
     </g>
     <g id="text_1">
      <!-- −200 -->
      <g transform="translate(32.906406 188.638438) scale(0.1 -0.1)">
       <defs>
        <path id="DejaVuSans-2212" d="M 678 2272 
L 4684 2272 
L 4684 1741 
L 678 1741 
L 678 2272 
z
" transform="scale(0.015625)"/>
        <path id="DejaVuSans-32" d="M 1228 531 
L 3431 531 
L 3431 0 
L 469 0 
L 469 531 
Q 828 903 1448 1529 
Q 2069 2156 2228 2338 
Q 2531 2678 2651 2914 
Q 2772 3150 2772 3378 
Q 2772 3750 2511 3984 
Q 2250 4219 1831 4219 
Q 1534 4219 1204 4116 
Q 875 4013 500 3803 
L 500 4441 
Q 881 4594 1212 4672 
Q 1544 4750 1819 4750 
Q 2544 4750 2975 4387 
Q 3406 4025 3406 3419 
Q 3406 3131 3298 2873 
Q 3191 2616 2906 2266 
Q 2828 2175 2409 1742 
Q 1991 1309 1228 531 
z
" transform="scale(0.015625)"/>
        <path id="DejaVuSans-30" d="M 2034 4250 
Q 1547 4250 1301 3770 
Q 1056 3291 1056 2328 
Q 1056 1369 1301 889 
Q 1547 409 2034 409 
Q 2525 409 2770 889 
Q 3016 1369 3016 2328 
Q 3016 3291 2770 3770 
Q 2525 4250 2034 4250 
z
M 2034 4750 
Q 2819 4750 3233 4129 
Q 3647 3509 3647 2328 
Q 3647 1150 3233 529 
Q 2819 -91 2034 -91 
Q 1250 -91 836 529 
Q 422 1150 422 2328 
Q 422 3509 836 4129 
Q 1250 4750 2034 4750 
z
" transform="scale(0.015625)"/>
       </defs>
       <use xlink:href="#DejaVuSans-2212"/>
       <use xlink:href="#DejaVuSans-32" x="83.789062"/>
       <use xlink:href="#DejaVuSans-30" x="147.412109"/>
       <use xlink:href="#DejaVuSans-30" x="211.035156"/>
      </g>
     </g>
    </g>
    <g id="xtick_2">
     <g id="line2d_2">
      <g>
       <use xlink:href="#m0f0bdb281f" x="94.959167" y="174.04" style="stroke: #000000; stroke-width: 0.8"/>
      </g>
     </g>
     <g id="text_2">
      <!-- 0 -->
      <g transform="translate(91.777917 188.638438) scale(0.1 -0.1)">
       <use xlink:href="#DejaVuSans-30"/>
      </g>
     </g>
    </g>
    <g id="xtick_3">
     <g id="line2d_3">
      <g>
       <use xlink:href="#m0f0bdb281f" x="143.278333" y="174.04" style="stroke: #000000; stroke-width: 0.8"/>
      </g>
     </g>
     <g id="text_3">
      <!-- 200 -->
      <g transform="translate(133.734583 188.638438) scale(0.1 -0.1)">
       <use xlink:href="#DejaVuSans-32"/>
       <use xlink:href="#DejaVuSans-30" x="63.623047"/>
       <use xlink:href="#DejaVuSans-30" x="127.246094"/>
      </g>
     </g>
    </g>
    <g id="xtick_4">
     <g id="line2d_4">
      <g>
       <use xlink:href="#m0f0bdb281f" x="191.5975" y="174.04" style="stroke: #000000; stroke-width: 0.8"/>
      </g>
     </g>
     <g id="text_4">
      <!-- 400 -->
      <g transform="translate(182.05375 188.638438) scale(0.1 -0.1)">
       <defs>
        <path id="DejaVuSans-34" d="M 2419 4116 
L 825 1625 
L 2419 1625 
L 2419 4116 
z
M 2253 4666 
L 3047 4666 
L 3047 1625 
L 3713 1625 
L 3713 1100 
L 3047 1100 
L 3047 0 
L 2419 0 
L 2419 1100 
L 313 1100 
L 313 1709 
L 2253 4666 
z
" transform="scale(0.015625)"/>
       </defs>
       <use xlink:href="#DejaVuSans-34"/>
       <use xlink:href="#DejaVuSans-30" x="63.623047"/>
       <use xlink:href="#DejaVuSans-30" x="127.246094"/>
      </g>
     </g>
    </g>
    <g id="xtick_5">
     <g id="line2d_5">
      <g>
       <use xlink:href="#m0f0bdb281f" x="239.916667" y="174.04" style="stroke: #000000; stroke-width: 0.8"/>
      </g>
     </g>
     <g id="text_5">
      <!-- 600 -->
      <g transform="translate(230.372917 188.638438) scale(0.1 -0.1)">
       <defs>
        <path id="DejaVuSans-36" d="M 2113 2584 
Q 1688 2584 1439 2293 
Q 1191 2003 1191 1497 
Q 1191 994 1439 701 
Q 1688 409 2113 409 
Q 2538 409 2786 701 
Q 3034 994 3034 1497 
Q 3034 2003 2786 2293 
Q 2538 2584 2113 2584 
z
M 3366 4563 
L 3366 3988 
Q 3128 4100 2886 4159 
Q 2644 4219 2406 4219 
Q 1781 4219 1451 3797 
Q 1122 3375 1075 2522 
Q 1259 2794 1537 2939 
Q 1816 3084 2150 3084 
Q 2853 3084 3261 2657 
Q 3669 2231 3669 1497 
Q 3669 778 3244 343 
Q 2819 -91 2113 -91 
Q 1303 -91 875 529 
Q 447 1150 447 2328 
Q 447 3434 972 4092 
Q 1497 4750 2381 4750 
Q 2619 4750 2861 4703 
Q 3103 4656 3366 4563 
z
" transform="scale(0.015625)"/>
       </defs>
       <use xlink:href="#DejaVuSans-36"/>
       <use xlink:href="#DejaVuSans-30" x="63.623047"/>
       <use xlink:href="#DejaVuSans-30" x="127.246094"/>
      </g>
     </g>
    </g>
    <g id="xtick_6">
     <g id="line2d_6">
      <g>
       <use xlink:href="#m0f0bdb281f" x="288.235833" y="174.04" style="stroke: #000000; stroke-width: 0.8"/>
      </g>
     </g>
     <g id="text_6">
      <!-- 800 -->
      <g transform="translate(278.692083 188.638438) scale(0.1 -0.1)">
       <defs>
        <path id="DejaVuSans-38" d="M 2034 2216 
Q 1584 2216 1326 1975 
Q 1069 1734 1069 1313 
Q 1069 891 1326 650 
Q 1584 409 2034 409 
Q 2484 409 2743 651 
Q 3003 894 3003 1313 
Q 3003 1734 2745 1975 
Q 2488 2216 2034 2216 
z
M 1403 2484 
Q 997 2584 770 2862 
Q 544 3141 544 3541 
Q 544 4100 942 4425 
Q 1341 4750 2034 4750 
Q 2731 4750 3128 4425 
Q 3525 4100 3525 3541 
Q 3525 3141 3298 2862 
Q 3072 2584 2669 2484 
Q 3125 2378 3379 2068 
Q 3634 1759 3634 1313 
Q 3634 634 3220 271 
Q 2806 -91 2034 -91 
Q 1263 -91 848 271 
Q 434 634 434 1313 
Q 434 1759 690 2068 
Q 947 2378 1403 2484 
z
M 1172 3481 
Q 1172 3119 1398 2916 
Q 1625 2713 2034 2713 
Q 2441 2713 2670 2916 
Q 2900 3119 2900 3481 
Q 2900 3844 2670 4047 
Q 2441 4250 2034 4250 
Q 1625 4250 1398 4047 
Q 1172 3844 1172 3481 
z
" transform="scale(0.015625)"/>
       </defs>
       <use xlink:href="#DejaVuSans-38"/>
       <use xlink:href="#DejaVuSans-30" x="63.623047"/>
       <use xlink:href="#DejaVuSans-30" x="127.246094"/>
      </g>
     </g>
    </g>
    <g id="xtick_7">
     <g id="line2d_7">
      <g>
       <use xlink:href="#m0f0bdb281f" x="336.555" y="174.04" style="stroke: #000000; stroke-width: 0.8"/>
      </g>
     </g>
     <g id="text_7">
      <!-- 1000 -->
      <g transform="translate(323.83 188.638438) scale(0.1 -0.1)">
       <defs>
        <path id="DejaVuSans-31" d="M 794 531 
L 1825 531 
L 1825 4091 
L 703 3866 
L 703 4441 
L 1819 4666 
L 2450 4666 
L 2450 531 
L 3481 531 
L 3481 0 
L 794 0 
L 794 531 
z
" transform="scale(0.015625)"/>
       </defs>
       <use xlink:href="#DejaVuSans-31"/>
       <use xlink:href="#DejaVuSans-30" x="63.623047"/>
       <use xlink:href="#DejaVuSans-30" x="127.246094"/>
       <use xlink:href="#DejaVuSans-30" x="190.869141"/>
      </g>
     </g>
    </g>
    <g id="text_8">
     <!-- Time (ms) -->
     <g transform="translate(166.398281 202.316563) scale(0.1 -0.1)">
      <defs>
       <path id="DejaVuSans-54" d="M -19 4666 
L 3928 4666 
L 3928 4134 
L 2272 4134 
L 2272 0 
L 1638 0 
L 1638 4134 
L -19 4134 
L -19 4666 
z
" transform="scale(0.015625)"/>
       <path id="DejaVuSans-69" d="M 603 3500 
L 1178 3500 
L 1178 0 
L 603 0 
L 603 3500 
z
M 603 4863 
L 1178 4863 
L 1178 4134 
L 603 4134 
L 603 4863 
z
" transform="scale(0.015625)"/>
       <path id="DejaVuSans-6d" d="M 3328 2828 
Q 3544 3216 3844 3400 
Q 4144 3584 4550 3584 
Q 5097 3584 5394 3201 
Q 5691 2819 5691 2113 
L 5691 0 
L 5113 0 
L 5113 2094 
Q 5113 2597 4934 2840 
Q 4756 3084 4391 3084 
Q 3944 3084 3684 2787 
Q 3425 2491 3425 1978 
L 3425 0 
L 2847 0 
L 2847 2094 
Q 2847 2600 2669 2842 
Q 2491 3084 2119 3084 
Q 1678 3084 1418 2786 
Q 1159 2488 1159 1978 
L 1159 0 
L 581 0 
L 581 3500 
L 1159 3500 
L 1159 2956 
Q 1356 3278 1631 3431 
Q 1906 3584 2284 3584 
Q 2666 3584 2933 3390 
Q 3200 3197 3328 2828 
z
" transform="scale(0.015625)"/>
       <path id="DejaVuSans-65" d="M 3597 1894 
L 3597 1613 
L 953 1613 
Q 991 1019 1311 708 
Q 1631 397 2203 397 
Q 2534 397 2845 478 
Q 3156 559 3463 722 
L 3463 178 
Q 3153 47 2828 -22 
Q 2503 -91 2169 -91 
Q 1331 -91 842 396 
Q 353 884 353 1716 
Q 353 2575 817 3079 
Q 1281 3584 2069 3584 
Q 2775 3584 3186 3129 
Q 3597 2675 3597 1894 
z
M 3022 2063 
Q 3016 2534 2758 2815 
Q 2500 3097 2075 3097 
Q 1594 3097 1305 2825 
Q 1016 2553 972 2059 
L 3022 2063 
z
" transform="scale(0.015625)"/>
       <path id="DejaVuSans-20" transform="scale(0.015625)"/>
       <path id="DejaVuSans-28" d="M 1984 4856 
Q 1566 4138 1362 3434 
Q 1159 2731 1159 2009 
Q 1159 1288 1364 580 
Q 1569 -128 1984 -844 
L 1484 -844 
Q 1016 -109 783 600 
Q 550 1309 550 2009 
Q 550 2706 781 3412 
Q 1013 4119 1484 4856 
L 1984 4856 
z
" transform="scale(0.015625)"/>
       <path id="DejaVuSans-73" d="M 2834 3397 
L 2834 2853 
Q 2591 2978 2328 3040 
Q 2066 3103 1784 3103 
Q 1356 3103 1142 2972 
Q 928 2841 928 2578 
Q 928 2378 1081 2264 
Q 1234 2150 1697 2047 
L 1894 2003 
Q 2506 1872 2764 1633 
Q 3022 1394 3022 966 
Q 3022 478 2636 193 
Q 2250 -91 1575 -91 
Q 1294 -91 989 -36 
Q 684 19 347 128 
L 347 722 
Q 666 556 975 473 
Q 1284 391 1588 391 
Q 1994 391 2212 530 
Q 2431 669 2431 922 
Q 2431 1156 2273 1281 
Q 2116 1406 1581 1522 
L 1381 1569 
Q 847 1681 609 1914 
Q 372 2147 372 2553 
Q 372 3047 722 3315 
Q 1072 3584 1716 3584 
Q 2034 3584 2315 3537 
Q 2597 3491 2834 3397 
z
" transform="scale(0.015625)"/>
       <path id="DejaVuSans-29" d="M 513 4856 
L 1013 4856 
Q 1481 4119 1714 3412 
Q 1947 2706 1947 2009 
Q 1947 1309 1714 600 
Q 1481 -109 1013 -844 
L 513 -844 
Q 928 -128 1133 580 
Q 1338 1288 1338 2009 
Q 1338 2731 1133 3434 
Q 928 4138 513 4856 
z
" transform="scale(0.015625)"/>
      </defs>
      <use xlink:href="#DejaVuSans-54"/>
      <use xlink:href="#DejaVuSans-69" x="57.958984"/>
      <use xlink:href="#DejaVuSans-6d" x="85.742188"/>
      <use xlink:href="#DejaVuSans-65" x="183.154297"/>
      <use xlink:href="#DejaVuSans-20" x="244.677734"/>
      <use xlink:href="#DejaVuSans-28" x="276.464844"/>
      <use xlink:href="#DejaVuSans-6d" x="315.478516"/>
      <use xlink:href="#DejaVuSans-73" x="412.890625"/>
      <use xlink:href="#DejaVuSans-29" x="464.990234"/>
     </g>
    </g>
   </g>
   <g id="matplotlib.axis_2">
    <g id="ytick_1">
     <g id="line2d_8">
      <defs>
       <path id="m037111abfc" d="M 0 0 
L -3.5 0 
" style="stroke: #000000; stroke-width: 0.8"/>
      </defs>
      <g>
       <use xlink:href="#m037111abfc" x="46.64" y="168.106451" style="stroke: #000000; stroke-width: 0.8"/>
      </g>
     </g>
     <g id="text_9">
      <!-- −1 -->
      <g transform="translate(24.897813 171.90567) scale(0.1 -0.1)">
       <use xlink:href="#DejaVuSans-2212"/>
       <use xlink:href="#DejaVuSans-31" x="83.789062"/>
      </g>
     </g>
    </g>
    <g id="ytick_2">
     <g id="line2d_9">
      <g>
       <use xlink:href="#m037111abfc" x="46.64" y="135.30425" style="stroke: #000000; stroke-width: 0.8"/>
      </g>
     </g>
     <g id="text_10">
      <!-- 0 -->
      <g transform="translate(33.2775 139.103469) scale(0.1 -0.1)">
       <use xlink:href="#DejaVuSans-30"/>
      </g>
     </g>
    </g>
    <g id="ytick_3">
     <g id="line2d_10">
      <g>
       <use xlink:href="#m037111abfc" x="46.64" y="102.502049" style="stroke: #000000; stroke-width: 0.8"/>
      </g>
     </g>
     <g id="text_11">
      <!-- 1 -->
      <g transform="translate(33.2775 106.301268) scale(0.1 -0.1)">
       <use xlink:href="#DejaVuSans-31"/>
      </g>
     </g>
    </g>
    <g id="ytick_4">
     <g id="line2d_11">
      <g>
       <use xlink:href="#m037111abfc" x="46.64" y="69.699848" style="stroke: #000000; stroke-width: 0.8"/>
      </g>
     </g>
     <g id="text_12">
      <!-- 2 -->
      <g transform="translate(33.2775 73.499067) scale(0.1 -0.1)">
       <use xlink:href="#DejaVuSans-32"/>
      </g>
     </g>
    </g>
    <g id="ytick_5">
     <g id="line2d_12">
      <g>
       <use xlink:href="#m037111abfc" x="46.64" y="36.897647" style="stroke: #000000; stroke-width: 0.8"/>
      </g>
     </g>
     <g id="text_13">
      <!-- 3 -->
      <g transform="translate(33.2775 40.696866) scale(0.1 -0.1)">
       <defs>
        <path id="DejaVuSans-33" d="M 2597 2516 
Q 3050 2419 3304 2112 
Q 3559 1806 3559 1356 
Q 3559 666 3084 287 
Q 2609 -91 1734 -91 
Q 1441 -91 1130 -33 
Q 819 25 488 141 
L 488 750 
Q 750 597 1062 519 
Q 1375 441 1716 441 
Q 2309 441 2620 675 
Q 2931 909 2931 1356 
Q 2931 1769 2642 2001 
Q 2353 2234 1838 2234 
L 1294 2234 
L 1294 2753 
L 1863 2753 
Q 2328 2753 2575 2939 
Q 2822 3125 2822 3475 
Q 2822 3834 2567 4026 
Q 2313 4219 1838 4219 
Q 1578 4219 1281 4162 
Q 984 4106 628 3988 
L 628 4550 
Q 988 4650 1302 4700 
Q 1616 4750 1894 4750 
Q 2613 4750 3031 4423 
Q 3450 4097 3450 3541 
Q 3450 3153 3228 2886 
Q 3006 2619 2597 2516 
z
" transform="scale(0.015625)"/>
       </defs>
       <use xlink:href="#DejaVuSans-33"/>
      </g>
     </g>
    </g>
    <g id="text_14">
     <!-- Amplitude (μV) -->
     <g transform="translate(18.818125 138.174844) rotate(-90) scale(0.1 -0.1)">
      <defs>
       <path id="DejaVuSans-41" d="M 2188 4044 
L 1331 1722 
L 3047 1722 
L 2188 4044 
z
M 1831 4666 
L 2547 4666 
L 4325 0 
L 3669 0 
L 3244 1197 
L 1141 1197 
L 716 0 
L 50 0 
L 1831 4666 
z
" transform="scale(0.015625)"/>
       <path id="DejaVuSans-70" d="M 1159 525 
L 1159 -1331 
L 581 -1331 
L 581 3500 
L 1159 3500 
L 1159 2969 
Q 1341 3281 1617 3432 
Q 1894 3584 2278 3584 
Q 2916 3584 3314 3078 
Q 3713 2572 3713 1747 
Q 3713 922 3314 415 
Q 2916 -91 2278 -91 
Q 1894 -91 1617 61 
Q 1341 213 1159 525 
z
M 3116 1747 
Q 3116 2381 2855 2742 
Q 2594 3103 2138 3103 
Q 1681 3103 1420 2742 
Q 1159 2381 1159 1747 
Q 1159 1113 1420 752 
Q 1681 391 2138 391 
Q 2594 391 2855 752 
Q 3116 1113 3116 1747 
z
" transform="scale(0.015625)"/>
       <path id="DejaVuSans-6c" d="M 603 4863 
L 1178 4863 
L 1178 0 
L 603 0 
L 603 4863 
z
" transform="scale(0.015625)"/>
       <path id="DejaVuSans-74" d="M 1172 4494 
L 1172 3500 
L 2356 3500 
L 2356 3053 
L 1172 3053 
L 1172 1153 
Q 1172 725 1289 603 
Q 1406 481 1766 481 
L 2356 481 
L 2356 0 
L 1766 0 
Q 1100 0 847 248 
Q 594 497 594 1153 
L 594 3053 
L 172 3053 
L 172 3500 
L 594 3500 
L 594 4494 
L 1172 4494 
z
" transform="scale(0.015625)"/>
       <path id="DejaVuSans-75" d="M 544 1381 
L 544 3500 
L 1119 3500 
L 1119 1403 
Q 1119 906 1312 657 
Q 1506 409 1894 409 
Q 2359 409 2629 706 
Q 2900 1003 2900 1516 
L 2900 3500 
L 3475 3500 
L 3475 0 
L 2900 0 
L 2900 538 
Q 2691 219 2414 64 
Q 2138 -91 1772 -91 
Q 1169 -91 856 284 
Q 544 659 544 1381 
z
M 1991 3584 
L 1991 3584 
z
" transform="scale(0.015625)"/>
       <path id="DejaVuSans-64" d="M 2906 2969 
L 2906 4863 
L 3481 4863 
L 3481 0 
L 2906 0 
L 2906 525 
Q 2725 213 2448 61 
Q 2172 -91 1784 -91 
Q 1150 -91 751 415 
Q 353 922 353 1747 
Q 353 2572 751 3078 
Q 1150 3584 1784 3584 
Q 2172 3584 2448 3432 
Q 2725 3281 2906 2969 
z
M 947 1747 
Q 947 1113 1208 752 
Q 1469 391 1925 391 
Q 2381 391 2643 752 
Q 2906 1113 2906 1747 
Q 2906 2381 2643 2742 
Q 2381 3103 1925 3103 
Q 1469 3103 1208 2742 
Q 947 2381 947 1747 
z
" transform="scale(0.015625)"/>
       <path id="DejaVuSans-3bc" d="M 544 -1331 
L 544 3500 
L 1119 3500 
L 1119 1325 
Q 1119 872 1334 640 
Q 1550 409 1972 409 
Q 2434 409 2667 671 
Q 2900 934 2900 1459 
L 2900 3500 
L 3475 3500 
L 3475 806 
Q 3475 619 3529 530 
Q 3584 441 3700 441 
Q 3728 441 3778 458 
Q 3828 475 3916 513 
L 3916 50 
Q 3788 -22 3673 -56 
Q 3559 -91 3450 -91 
Q 3234 -91 3106 31 
Q 2978 153 2931 403 
Q 2775 156 2548 32 
Q 2322 -91 2016 -91 
Q 1697 -91 1473 31 
Q 1250 153 1119 397 
L 1119 -1331 
L 544 -1331 
z
" transform="scale(0.015625)"/>
       <path id="DejaVuSans-56" d="M 1831 0 
L 50 4666 
L 709 4666 
L 2188 738 
L 3669 4666 
L 4325 4666 
L 2547 0 
L 1831 0 
z
" transform="scale(0.015625)"/>
      </defs>
      <use xlink:href="#DejaVuSans-41"/>
      <use xlink:href="#DejaVuSans-6d" x="68.408203"/>
      <use xlink:href="#DejaVuSans-70" x="165.820312"/>
      <use xlink:href="#DejaVuSans-6c" x="229.296875"/>
      <use xlink:href="#DejaVuSans-69" x="257.080078"/>
      <use xlink:href="#DejaVuSans-74" x="284.863281"/>
      <use xlink:href="#DejaVuSans-75" x="324.072266"/>
      <use xlink:href="#DejaVuSans-64" x="387.451172"/>
      <use xlink:href="#DejaVuSans-65" x="450.927734"/>
      <use xlink:href="#DejaVuSans-20" x="512.451172"/>
      <use xlink:href="#DejaVuSans-28" x="544.238281"/>
      <use xlink:href="#DejaVuSans-3bc" x="583.251953"/>
      <use xlink:href="#DejaVuSans-56" x="646.875"/>
      <use xlink:href="#DejaVuSans-29" x="715.283203"/>
     </g>
    </g>
   </g>
   <g id="line2d_13">
    <path d="M 46.64 131.417241 
L 47.606383 130.419007 
L 49.055958 128.872429 
L 49.780746 128.440395 
L 50.505533 128.253501 
L 52.196704 128.128789 
L 53.163088 128.22004 
L 53.887875 128.523497 
L 54.612662 129.080461 
L 56.787025 131.013164 
L 57.753408 131.317642 
L 58.719792 131.627851 
L 59.444579 132.125153 
L 60.652558 133.366268 
L 61.860538 134.514213 
L 63.068517 135.279972 
L 64.759688 136.089711 
L 65.484475 136.192501 
L 66.209263 136.026105 
L 67.175646 135.448205 
L 68.142029 134.836779 
L 68.866817 134.662212 
L 69.591604 134.796393 
L 71.765967 135.73407 
L 73.215542 136.302787 
L 73.940329 136.315568 
L 74.423521 136.118183 
L 75.148308 135.557917 
L 76.114692 134.816468 
L 76.597883 134.69531 
L 77.081075 134.820919 
L 77.564267 135.188444 
L 78.289054 136.094046 
L 79.980225 138.561168 
L 80.463417 138.947817 
L 80.946608 139.049308 
L 81.4298 138.854216 
L 82.154588 138.161375 
L 83.120971 137.213298 
L 83.604163 136.990855 
L 84.087354 136.96999 
L 85.053738 137.263014 
L 86.261717 137.557916 
L 87.2281 137.794283 
L 87.952888 138.262301 
L 88.677675 139.063373 
L 90.610442 141.539373 
L 91.093633 141.835314 
L 91.818421 141.959243 
L 93.267996 141.941278 
L 93.751188 142.139587 
L 94.475975 142.745223 
L 95.442358 143.981566 
L 96.650338 145.527347 
L 97.375125 146.12554 
L 97.858317 146.319761 
L 98.341508 146.334913 
L 99.066296 146.04854 
L 100.032679 145.290407 
L 102.690233 142.732961 
L 105.106192 140.227158 
L 105.830979 139.834222 
L 106.555767 139.697432 
L 107.52215 139.820735 
L 108.488533 140.198772 
L 109.454917 140.88545 
L 110.662896 141.81206 
L 111.387683 142.058676 
L 112.354067 142.330652 
L 112.837258 142.813966 
L 113.32045 143.743969 
L 113.803642 145.163917 
L 114.770025 148.991621 
L 115.736408 152.671015 
L 116.461196 154.50252 
L 116.944388 155.210645 
L 117.669175 155.755227 
L 118.393963 156.266051 
L 118.877154 156.940803 
L 119.360346 158.049007 
L 120.085133 160.528136 
L 121.534708 166.093214 
L 122.0179 167.112626 
L 122.259496 167.336253 
L 122.501092 167.350909 
L 122.742688 167.151376 
L 123.225879 166.122863 
L 123.709071 164.325293 
L 124.433858 160.476624 
L 125.400242 153.888017 
L 126.366625 145.964415 
L 127.333008 136.143613 
L 128.299392 123.909763 
L 131.923329 74.190363 
L 132.889713 65.479545 
L 133.6145 60.92719 
L 134.097692 58.93795 
L 134.580883 57.84828 
L 134.822479 57.653211 
L 135.064075 57.693955 
L 135.305671 57.969361 
L 135.788863 59.204084 
L 136.272054 61.290156 
L 136.996842 65.788916 
L 137.963225 73.69231 
L 142.795142 116.920257 
L 144.003121 125.105067 
L 144.969504 130.192463 
L 145.935888 134.062158 
L 147.385463 138.697754 
L 148.835038 142.761426 
L 149.801421 144.967032 
L 151.0094 147.116863 
L 152.458975 149.300728 
L 153.183763 150.112331 
L 153.666954 150.434859 
L 154.150146 150.552763 
L 154.874933 150.413236 
L 157.290892 149.367879 
L 157.774083 148.965327 
L 158.257275 148.336684 
L 158.982063 146.906108 
L 161.398021 141.233095 
L 162.606 139.115264 
L 163.330788 137.277003 
L 164.055575 134.770866 
L 166.954725 123.745837 
L 167.921108 121.282122 
L 169.129088 118.919091 
L 170.578663 116.145239 
L 171.545046 113.755961 
L 173.719408 107.735328 
L 174.2026 106.929501 
L 174.685792 106.460622 
L 175.168983 106.296998 
L 175.652175 106.358721 
L 177.584942 106.990494 
L 178.309729 106.925252 
L 180.484092 106.451555 
L 181.208879 106.613403 
L 182.416858 106.937471 
L 182.90005 106.849076 
L 183.383242 106.539833 
L 184.108029 105.670485 
L 185.316008 103.643717 
L 189.423138 96.277481 
L 190.872713 93.202307 
L 191.5975 92.233577 
L 193.530267 90.348034 
L 194.013458 89.411406 
L 194.738246 87.440498 
L 196.429417 82.348271 
L 197.154204 80.930363 
L 198.845375 78.135201 
L 200.778142 73.939387 
L 201.744525 71.616927 
L 202.710908 68.723972 
L 204.160483 64.306511 
L 204.885271 62.907282 
L 205.610058 62.132095 
L 206.576442 61.2841 
L 207.059633 60.608817 
L 207.784421 59.108884 
L 208.750804 56.388975 
L 211.89155 46.887557 
L 213.341125 43.153577 
L 214.307508 41.260997 
L 215.273892 39.951503 
L 216.481871 38.387618 
L 218.414638 35.509024 
L 218.897829 35.145348 
L 219.381021 35.065148 
L 219.864213 35.256022 
L 220.589 35.872801 
L 221.555383 36.683587 
L 222.280171 36.934697 
L 223.004958 36.910018 
L 224.454533 36.56874 
L 226.870492 35.641944 
L 227.595279 35.257174 
L 228.561663 34.420805 
L 229.28645 33.79106 
L 229.769642 33.57932 
L 230.252833 33.62779 
L 230.736025 33.935593 
L 231.702408 35.010208 
L 232.668792 36.007839 
L 233.393579 36.461683 
L 234.843154 37.204648 
L 235.809538 38.01431 
L 236.775921 38.827382 
L 237.500708 39.18777 
L 239.191879 39.784462 
L 239.675071 40.261969 
L 240.399858 41.382334 
L 242.332625 44.882233 
L 242.815817 45.341901 
L 243.299008 45.571139 
L 244.748583 45.957729 
L 245.231775 46.50268 
L 245.714967 47.444493 
L 246.439754 49.515831 
L 247.889329 53.934699 
L 248.614117 55.356043 
L 249.822096 56.943085 
L 250.546883 58.052971 
L 251.513267 60.004263 
L 252.962842 62.987545 
L 254.654013 66.261116 
L 256.103588 70.087383 
L 257.069971 72.297809 
L 258.27795 74.368093 
L 262.626675 81.268547 
L 264.317846 83.031427 
L 265.525825 84.074351 
L 267.216996 85.330756 
L 267.700188 86.000074 
L 268.183379 86.964814 
L 268.908167 88.952899 
L 270.840933 94.83296 
L 271.565721 96.262078 
L 272.048913 96.844633 
L 272.532104 97.144839 
L 273.256892 97.236584 
L 273.981679 97.297463 
L 274.464871 97.56727 
L 274.948063 98.151473 
L 275.431254 99.085529 
L 276.397638 101.699484 
L 277.364021 104.293911 
L 278.088808 105.751038 
L 280.504767 109.60535 
L 282.679129 112.909163 
L 284.611896 115.660709 
L 287.027854 118.622405 
L 287.994238 119.851912 
L 288.719025 120.492391 
L 289.685408 121.039898 
L 292.342962 122.404437 
L 293.309346 123.186958 
L 294.275729 124.335088 
L 296.933283 127.91085 
L 299.349242 130.401795 
L 301.282008 133.202425 
L 301.7652 133.531219 
L 302.248392 133.647798 
L 303.214775 133.544115 
L 303.939563 133.52502 
L 304.66435 133.762136 
L 305.872329 134.568992 
L 306.597117 134.916425 
L 307.080308 134.951384 
L 307.805096 134.702795 
L 309.013075 134.090479 
L 309.496267 134.0541 
L 309.979458 134.211035 
L 310.704246 134.71724 
L 311.670629 135.373862 
L 312.153821 135.49384 
L 312.878608 135.381847 
L 314.569779 134.637263 
L 316.502546 133.736619 
L 317.227333 133.02259 
L 318.193717 131.572003 
L 319.401696 129.672291 
L 320.126483 128.860309 
L 320.851271 128.366505 
L 321.817654 128.055165 
L 322.784038 127.987788 
L 323.267229 128.111031 
L 323.750421 128.42677 
L 324.233613 128.993513 
L 324.9584 130.350377 
L 326.166379 133.482211 
L 327.132763 135.767833 
L 327.85755 136.879685 
L 328.340742 137.293859 
L 328.823933 137.463792 
L 329.307125 137.402682 
L 329.790317 137.103705 
L 330.273508 136.539138 
L 330.7567 135.685037 
L 331.481488 133.909421 
L 332.689467 130.682027 
L 333.172658 129.808532 
L 333.65585 129.309108 
L 334.139042 129.115225 
L 335.347021 128.911955 
L 335.830213 128.558122 
L 336.555 127.601757 
L 336.796596 127.208171 
L 336.796596 127.208171 
" clip-path="url(#p6d245bb759)" style="fill: none; stroke: #000080; stroke-linecap: square"/>
   </g>
   <g id="line2d_14">
    <path d="M 46.64 133.405305 
L 47.606383 135.751235 
L 48.089575 136.528077 
L 48.572767 136.981862 
L 49.055958 137.139998 
L 49.53915 137.074824 
L 51.230321 136.549027 
L 52.196704 136.692674 
L 52.921492 136.774935 
L 53.404683 136.65057 
L 53.887875 136.307695 
L 54.612662 135.369133 
L 56.545429 132.330093 
L 57.028621 132.004814 
L 57.511813 131.931203 
L 58.2366 132.151584 
L 59.202983 132.522986 
L 59.927771 132.556367 
L 60.894154 132.498143 
L 61.377346 132.647001 
L 61.860538 133.004399 
L 62.585325 133.876604 
L 63.551708 135.077907 
L 64.0349 135.384885 
L 64.518092 135.400895 
L 65.001283 135.171683 
L 66.450858 134.258223 
L 67.175646 134.200804 
L 68.142029 134.465983 
L 69.350008 135.013154 
L 70.316392 135.655512 
L 72.007563 136.879327 
L 72.73235 137.028111 
L 73.457138 136.826243 
L 74.423521 136.181515 
L 77.081075 134.210634 
L 79.738629 132.436435 
L 81.188204 131.864904 
L 82.396183 131.556421 
L 83.120971 131.615304 
L 83.604163 131.836348 
L 84.32895 132.478283 
L 85.053738 133.454934 
L 86.744908 135.953372 
L 87.469696 136.563068 
L 89.160867 137.580451 
L 89.885654 138.353069 
L 91.335229 140.049207 
L 91.818421 140.369334 
L 92.301613 140.490946 
L 93.0264 140.366162 
L 94.234379 139.979572 
L 94.959167 140.024506 
L 96.891933 140.547946 
L 97.375125 140.372558 
L 98.099913 139.806688 
L 100.757467 137.267094 
L 101.72385 136.708936 
L 102.448638 136.549281 
L 103.173425 136.682888 
L 104.139808 137.217733 
L 105.347788 137.898553 
L 106.314171 138.13987 
L 107.280554 138.106366 
L 108.971725 137.749246 
L 111.387683 137.195517 
L 111.870875 137.281116 
L 112.354067 137.578387 
L 112.837258 138.154606 
L 113.32045 139.051268 
L 114.045238 140.989392 
L 116.2196 147.708557 
L 116.702792 148.425176 
L 117.185983 148.726632 
L 117.669175 148.740628 
L 118.393963 148.72094 
L 118.877154 149.055395 
L 119.360346 149.894841 
L 119.843538 151.292355 
L 120.809921 155.209522 
L 121.534708 158.022268 
L 122.0179 159.268658 
L 122.259496 159.61726 
L 122.501092 159.759769 
L 122.742688 159.687809 
L 122.984283 159.399303 
L 123.467475 158.198942 
L 123.950667 156.25903 
L 124.675454 152.312434 
L 125.883433 144.16423 
L 126.849817 136.436029 
L 127.8162 126.888744 
L 129.024179 112.114466 
L 131.681733 77.796678 
L 132.648117 67.871041 
L 133.372904 62.052873 
L 134.097692 57.977304 
L 134.580883 56.359799 
L 135.064075 55.674109 
L 135.305671 55.68266 
L 135.547267 55.921129 
L 136.030458 57.059766 
L 136.51365 59.009345 
L 137.238438 63.185166 
L 138.446417 72.032278 
L 140.137588 84.227966 
L 143.278333 105.764831 
L 145.935888 124.852399 
L 147.143867 132.093888 
L 148.11025 136.650363 
L 148.835038 139.186772 
L 149.559825 141.004391 
L 150.284613 142.260511 
L 151.250996 143.429114 
L 153.183763 145.325214 
L 153.90855 145.729532 
L 154.391742 145.801855 
L 155.116529 145.639725 
L 156.082913 145.138361 
L 157.290892 144.267708 
L 158.257275 143.261981 
L 160.431638 140.812773 
L 161.156425 139.96319 
L 161.639617 139.13371 
L 162.122808 137.97532 
L 162.847596 135.574882 
L 164.055575 130.376666 
L 165.746746 123.155286 
L 166.954725 119.063295 
L 168.645896 114.203126 
L 169.853875 111.324173 
L 170.820258 109.644147 
L 171.786642 108.428904 
L 173.477813 106.677867 
L 174.2026 106.181795 
L 174.685792 106.041432 
L 175.410579 106.121135 
L 177.10175 106.646635 
L 177.826538 106.508211 
L 178.792921 105.934793 
L 179.759304 105.421752 
L 180.242496 105.37627 
L 180.725688 105.521299 
L 181.450475 106.060848 
L 182.90005 107.43812 
L 183.383242 107.646971 
L 183.866433 107.617065 
L 184.349625 107.340032 
L 185.074413 106.539136 
L 186.282392 104.676969 
L 187.490371 102.916534 
L 188.456754 101.869333 
L 189.906329 100.684686 
L 192.080692 99.12792 
L 192.805479 98.893473 
L 194.255054 98.600774 
L 194.738246 98.256613 
L 195.221438 97.652967 
L 195.704629 96.750291 
L 196.429417 94.867886 
L 198.362183 89.33816 
L 199.086971 88.201445 
L 199.811758 87.56467 
L 200.536546 86.971686 
L 201.261333 86.015154 
L 201.986121 84.596573 
L 203.677292 80.97976 
L 204.402079 79.987304 
L 206.576442 77.626032 
L 207.301229 76.189466 
L 209.233996 71.958412 
L 212.133146 66.835137 
L 213.099529 65.131161 
L 214.065913 63.962038 
L 215.515488 62.394381 
L 216.481871 60.966725 
L 218.897829 57.151317 
L 219.622617 56.469257 
L 220.347404 56.063786 
L 224.212938 54.622375 
L 226.145704 54.083746 
L 227.353683 53.774945 
L 228.320067 53.839848 
L 229.528046 53.966062 
L 230.252833 53.799975 
L 233.151983 52.693565 
L 233.876771 52.767416 
L 234.601558 53.0425 
L 235.326346 53.559979 
L 237.500708 55.517993 
L 238.225496 55.708349 
L 239.191879 55.915466 
L 239.675071 56.198616 
L 240.399858 56.93618 
L 241.366242 58.344068 
L 244.990179 64.311375 
L 245.956563 66.863532 
L 247.406138 70.845121 
L 248.130925 72.135096 
L 248.614117 72.627807 
L 249.338904 72.954436 
L 250.305288 73.240942 
L 250.788479 73.592328 
L 251.271671 74.165403 
L 251.996458 75.390899 
L 253.687629 78.552882 
L 254.412417 79.332486 
L 254.895608 79.566205 
L 256.586779 79.950418 
L 257.069971 80.392163 
L 257.794758 81.464358 
L 259.727525 84.784553 
L 260.935504 86.1663 
L 266.9754 92.644889 
L 268.183379 94.229297 
L 269.391358 96.243007 
L 272.290508 101.349617 
L 273.256892 103.178077 
L 276.156042 109.398296 
L 278.572 112.84515 
L 280.504767 116.512904 
L 280.987958 117.019703 
L 281.47115 117.247828 
L 281.954342 117.229667 
L 282.679129 116.912584 
L 283.645513 116.484318 
L 284.3703 116.475328 
L 285.336683 116.839664 
L 286.544663 117.283862 
L 289.202217 117.880423 
L 290.1686 118.205187 
L 290.893388 118.193027 
L 292.101367 117.968519 
L 292.584558 118.115925 
L 293.06775 118.534799 
L 293.550942 119.240716 
L 294.275729 120.743954 
L 296.208496 125.191885 
L 296.933283 126.103642 
L 297.658071 126.531147 
L 298.624454 127.004741 
L 299.349242 127.702178 
L 301.523604 130.335188 
L 302.731583 131.102734 
L 303.456371 131.656759 
L 304.181158 132.466384 
L 306.113925 134.94424 
L 306.597117 135.201978 
L 307.080308 135.207718 
L 307.805096 134.857119 
L 308.771479 134.311131 
L 309.254671 134.229418 
L 309.979458 134.383147 
L 311.187438 134.735112 
L 311.912225 134.611779 
L 312.878608 134.084709 
L 314.569779 133.111921 
L 315.536163 132.816959 
L 316.502546 132.747466 
L 317.468929 132.910215 
L 319.643292 133.596408 
L 320.368079 133.514962 
L 322.784038 133.008094 
L 323.508825 133.085816 
L 323.992017 133.312907 
L 324.475208 133.758391 
L 324.9584 134.462049 
L 325.683188 135.961136 
L 327.615954 140.441357 
L 328.099146 141.113743 
L 328.582338 141.445098 
L 329.065529 141.421316 
L 329.548721 141.090309 
L 330.273508 140.236604 
L 333.172658 136.1566 
L 335.347021 132.169801 
L 336.071808 131.527621 
L 336.796596 131.240468 
L 336.796596 131.240468 
" clip-path="url(#p6d245bb759)" style="fill: none; stroke: #006400; stroke-linecap: square"/>
   </g>
   <g id="line2d_15">
    <path d="M 46.64 132.178172 
L 47.123192 131.897562 
L 47.606383 131.84024 
L 48.331171 132.033645 
L 49.055958 132.264299 
L 49.53915 132.239617 
L 50.022342 131.960272 
L 50.505533 131.403743 
L 52.679896 128.286417 
L 53.163088 128.185326 
L 53.646279 128.368488 
L 54.612662 129.181658 
L 55.33745 129.667688 
L 55.820642 129.769537 
L 56.545429 129.621207 
L 57.511813 129.311925 
L 57.995004 129.319844 
L 58.478196 129.502102 
L 59.202983 130.07167 
L 63.068517 134.109914 
L 63.793304 135.175132 
L 65.726071 138.321435 
L 66.209263 138.588624 
L 66.692454 138.524089 
L 67.175646 138.202464 
L 68.625221 136.984759 
L 69.350008 136.728344 
L 72.007563 136.375224 
L 72.490754 136.481252 
L 72.973946 136.760562 
L 73.698733 137.477008 
L 75.148308 139.051708 
L 75.6315 139.31757 
L 76.114692 139.401702 
L 76.839479 139.265816 
L 78.047458 138.943042 
L 78.772246 139.038421 
L 80.705013 139.721627 
L 81.188204 139.571629 
L 81.671396 139.187041 
L 82.396183 138.225772 
L 83.845758 136.003358 
L 84.570546 135.371304 
L 85.053738 135.232748 
L 85.536929 135.311053 
L 86.261717 135.746578 
L 87.952888 137.070368 
L 88.919271 137.43758 
L 90.852038 137.748146 
L 93.509592 138.242276 
L 94.959167 138.870748 
L 95.92555 139.224072 
L 96.650338 139.295127 
L 97.616721 139.112901 
L 99.549488 138.580425 
L 100.274275 138.662318 
L 101.240658 139.04213 
L 101.965446 139.529727 
L 102.690233 140.28153 
L 103.656617 141.713684 
L 104.623 143.165457 
L 105.106192 143.641063 
L 105.589383 143.847262 
L 106.072575 143.776183 
L 106.797363 143.288139 
L 107.763746 142.540104 
L 108.246938 142.374157 
L 108.730129 142.409224 
L 109.454917 142.744359 
L 110.4213 143.242098 
L 110.904492 143.327807 
L 111.629279 143.1678 
L 113.32045 142.467962 
L 113.803642 142.632082 
L 114.286833 143.068147 
L 115.011621 144.104616 
L 115.978004 145.484898 
L 116.461196 145.866784 
L 116.944388 145.984404 
L 118.152367 145.920037 
L 118.635558 146.271502 
L 119.11875 147.09647 
L 119.601942 148.450905 
L 120.326729 151.318906 
L 121.776304 157.509818 
L 122.259496 158.742496 
L 122.501092 159.066601 
L 122.742688 159.168584 
L 122.984283 159.035977 
L 123.225879 158.663451 
L 123.709071 157.211003 
L 124.192263 154.895409 
L 124.91705 150.138823 
L 125.883433 142.18982 
L 127.091413 130.488561 
L 128.540988 114.049356 
L 131.440138 79.754899 
L 132.406521 71.435923 
L 133.131308 66.657585 
L 133.856096 63.162247 
L 134.339288 61.596917 
L 134.822479 60.70242 
L 135.064075 60.523142 
L 135.305671 60.529691 
L 135.547267 60.725485 
L 136.030458 61.690441 
L 136.51365 63.406433 
L 137.238438 67.26709 
L 138.204821 74.184465 
L 140.379183 90.58698 
L 144.244717 115.597176 
L 145.452696 122.015454 
L 148.11025 134.278166 
L 149.076633 138.158811 
L 149.801421 140.431408 
L 150.526208 142.05904 
L 151.250996 143.083982 
L 151.975783 143.67209 
L 155.841317 145.883995 
L 156.324508 145.910127 
L 156.8077 145.724666 
L 157.290892 145.308997 
L 158.015679 144.314293 
L 159.948446 141.320725 
L 161.639617 139.309266 
L 162.364404 137.877184 
L 163.089192 135.945697 
L 164.055575 132.742832 
L 165.746746 126.094844 
L 168.162704 116.553858 
L 169.129088 113.455861 
L 170.095471 111.172787 
L 171.061854 109.597574 
L 172.028238 108.483481 
L 172.994621 107.702333 
L 175.652175 105.836978 
L 176.376963 105.333305 
L 176.860154 105.177613 
L 177.343346 105.229924 
L 177.826538 105.481847 
L 180.242496 107.205254 
L 181.933667 107.92931 
L 183.141646 108.597776 
L 183.624838 108.694004 
L 184.108029 108.610847 
L 184.832817 108.196926 
L 185.7992 107.63363 
L 186.282392 107.634057 
L 186.765583 107.924223 
L 187.490371 108.830663 
L 188.69835 110.532887 
L 189.181542 110.880702 
L 189.664733 110.947608 
L 190.147925 110.773493 
L 191.114308 110.063925 
L 192.080692 109.421114 
L 193.047075 109.061604 
L 194.49665 108.809125 
L 196.429417 108.583859 
L 197.154204 108.212757 
L 197.878992 107.510417 
L 198.845375 106.094495 
L 201.019738 102.207556 
L 202.227717 100.229836 
L 204.885271 96.288109 
L 208.509208 89.222625 
L 209.958783 86.716721 
L 210.925167 84.547635 
L 213.582721 78.179437 
L 215.998679 72.544872 
L 218.414638 66.265878 
L 218.897829 65.673988 
L 219.381021 65.440892 
L 219.864213 65.472559 
L 221.072192 65.732543 
L 221.796979 65.546124 
L 223.729746 64.703265 
L 225.179321 64.290973 
L 225.904108 63.770381 
L 226.628896 62.941664 
L 227.836875 61.130179 
L 229.044854 59.378044 
L 229.769642 58.618821 
L 230.736025 58.002602 
L 231.702408 57.393441 
L 232.427196 56.567755 
L 234.359963 53.912843 
L 234.843154 53.729107 
L 235.326346 53.785169 
L 236.775921 54.212067 
L 237.500708 54.018491 
L 238.467092 53.62881 
L 238.950283 53.660648 
L 239.433475 53.961895 
L 240.158263 54.873804 
L 241.607838 56.992405 
L 243.057413 58.649034 
L 243.540604 59.5506 
L 244.265392 61.498713 
L 246.68135 69.029096 
L 247.406138 70.241122 
L 248.130925 70.973106 
L 248.855713 71.403687 
L 250.305288 72.117023 
L 251.030075 72.856161 
L 251.754863 73.996618 
L 254.170821 78.366017 
L 254.895608 79.083096 
L 255.861992 79.631206 
L 256.828375 80.213768 
L 257.553163 80.934802 
L 258.761142 82.596963 
L 259.485929 83.505879 
L 260.210717 84.032503 
L 260.935504 84.174914 
L 261.660292 84.303976 
L 262.143483 84.637532 
L 262.626675 85.273251 
L 263.351463 86.702848 
L 264.801038 89.741725 
L 265.525825 90.829295 
L 266.733804 92.12457 
L 267.700188 93.291331 
L 268.666571 94.964675 
L 272.048913 101.528439 
L 273.256892 103.323441 
L 274.223275 104.431372 
L 275.189658 105.206545 
L 276.397638 106.108499 
L 277.122425 106.949106 
L 277.847213 108.192234 
L 278.813596 110.42737 
L 280.263171 113.959212 
L 280.987958 115.201855 
L 281.47115 115.711918 
L 281.954342 115.972764 
L 282.437533 116.032901 
L 283.403917 115.835641 
L 284.3703 115.686842 
L 285.095088 115.810495 
L 286.061471 116.224365 
L 287.027854 116.847272 
L 287.752642 117.632477 
L 288.477429 118.805479 
L 289.927004 121.362246 
L 290.651792 122.107434 
L 291.376579 122.475599 
L 292.342962 122.966612 
L 292.826154 123.444023 
L 293.550942 124.535152 
L 295.725304 128.30341 
L 297.416475 130.470141 
L 297.899667 130.869534 
L 298.382858 131.018651 
L 298.86605 130.882186 
L 299.590838 130.281511 
L 300.557221 129.434742 
L 301.040413 129.266418 
L 301.523604 129.375286 
L 302.006796 129.803495 
L 302.489988 130.551688 
L 303.214775 132.144002 
L 304.66435 135.473774 
L 305.147542 136.165785 
L 305.630733 136.5415 
L 306.113925 136.617329 
L 306.597117 136.453492 
L 307.321904 135.933475 
L 309.013075 134.599331 
L 309.979458 134.189928 
L 310.945842 133.751221 
L 311.670629 133.114762 
L 313.844992 130.700361 
L 314.328183 130.612517 
L 314.811375 130.825373 
L 315.294567 131.304037 
L 316.985738 133.329872 
L 317.468929 133.473754 
L 317.952121 133.292179 
L 318.435313 132.810622 
L 320.609675 130.034508 
L 321.092867 129.90878 
L 321.817654 130.050704 
L 323.025633 130.396068 
L 323.992017 130.650065 
L 324.475208 131.05071 
L 324.9584 131.777444 
L 325.683188 133.449674 
L 327.132763 137.067567 
L 327.85755 138.19407 
L 329.307125 139.737987 
L 330.515104 140.896783 
L 330.998296 141.080339 
L 331.481488 140.986149 
L 331.964679 140.605161 
L 332.689467 139.595675 
L 334.380638 136.468103 
L 335.830213 133.659625 
L 336.796596 131.088045 
L 336.796596 131.088045 
" clip-path="url(#p6d245bb759)" style="fill: none; stroke: #b22222; stroke-linecap: square"/>
   </g>
   <g id="line2d_16">
    <path d="M 94.959167 174.04 
L 94.959167 26.88 
" clip-path="url(#p6d245bb759)" style="fill: none; stroke-dasharray: 1.85,0.8; stroke-dashoffset: 0; stroke: #000000; stroke-opacity: 0.7; stroke-width: 0.5"/>
   </g>
   <g id="patch_4">
    <path d="M 46.64 174.04 
L 46.64 26.88 
" style="fill: none; stroke: #000000; stroke-width: 0.8; stroke-linejoin: miter; stroke-linecap: square"/>
   </g>
   <g id="patch_5">
    <path d="M 46.64 174.04 
L 336.555 174.04 
" style="fill: none; stroke: #000000; stroke-width: 0.8; stroke-linejoin: miter; stroke-linecap: square"/>
   </g>
   <g id="text_15">
    <!-- Pool: CPz -->
    <g transform="translate(164.303125 20.88) scale(0.12 -0.12)">
     <defs>
      <path id="DejaVuSans-50" d="M 1259 4147 
L 1259 2394 
L 2053 2394 
Q 2494 2394 2734 2622 
Q 2975 2850 2975 3272 
Q 2975 3691 2734 3919 
Q 2494 4147 2053 4147 
L 1259 4147 
z
M 628 4666 
L 2053 4666 
Q 2838 4666 3239 4311 
Q 3641 3956 3641 3272 
Q 3641 2581 3239 2228 
Q 2838 1875 2053 1875 
L 1259 1875 
L 1259 0 
L 628 0 
L 628 4666 
z
" transform="scale(0.015625)"/>
      <path id="DejaVuSans-6f" d="M 1959 3097 
Q 1497 3097 1228 2736 
Q 959 2375 959 1747 
Q 959 1119 1226 758 
Q 1494 397 1959 397 
Q 2419 397 2687 759 
Q 2956 1122 2956 1747 
Q 2956 2369 2687 2733 
Q 2419 3097 1959 3097 
z
M 1959 3584 
Q 2709 3584 3137 3096 
Q 3566 2609 3566 1747 
Q 3566 888 3137 398 
Q 2709 -91 1959 -91 
Q 1206 -91 779 398 
Q 353 888 353 1747 
Q 353 2609 779 3096 
Q 1206 3584 1959 3584 
z
" transform="scale(0.015625)"/>
      <path id="DejaVuSans-3a" d="M 750 794 
L 1409 794 
L 1409 0 
L 750 0 
L 750 794 
z
M 750 3309 
L 1409 3309 
L 1409 2516 
L 750 2516 
L 750 3309 
z
" transform="scale(0.015625)"/>
      <path id="DejaVuSans-43" d="M 4122 4306 
L 4122 3641 
Q 3803 3938 3442 4084 
Q 3081 4231 2675 4231 
Q 1875 4231 1450 3742 
Q 1025 3253 1025 2328 
Q 1025 1406 1450 917 
Q 1875 428 2675 428 
Q 3081 428 3442 575 
Q 3803 722 4122 1019 
L 4122 359 
Q 3791 134 3420 21 
Q 3050 -91 2638 -91 
Q 1578 -91 968 557 
Q 359 1206 359 2328 
Q 359 3453 968 4101 
Q 1578 4750 2638 4750 
Q 3056 4750 3426 4639 
Q 3797 4528 4122 4306 
z
" transform="scale(0.015625)"/>
      <path id="DejaVuSans-7a" d="M 353 3500 
L 3084 3500 
L 3084 2975 
L 922 459 
L 3084 459 
L 3084 0 
L 275 0 
L 275 525 
L 2438 3041 
L 353 3041 
L 353 3500 
z
" transform="scale(0.015625)"/>
     </defs>
     <use xlink:href="#DejaVuSans-50"/>
     <use xlink:href="#DejaVuSans-6f" x="56.677734"/>
     <use xlink:href="#DejaVuSans-6f" x="117.859375"/>
     <use xlink:href="#DejaVuSans-6c" x="179.041016"/>
     <use xlink:href="#DejaVuSans-3a" x="206.824219"/>
     <use xlink:href="#DejaVuSans-20" x="240.515625"/>
     <use xlink:href="#DejaVuSans-43" x="272.302734"/>
     <use xlink:href="#DejaVuSans-50" x="342.126953"/>
     <use xlink:href="#DejaVuSans-7a" x="402.429688"/>
    </g>
   </g>
  </g>
 </g>
 <defs>
  <clipPath id="p6d245bb759">
   <rect x="46.64" y="26.88" width="289.915" height="147.16"/>
  </clipPath>
 </defs>
</svg>
