<?xml version="1.0" encoding="utf-8" standalone="no"?>
<!DOCTYPE svg PUBLIC "-//W3C//DTD SVG 1.1//EN"
  "http://www.w3.org/Graphics/SVG/1.1/DTD/svg11.dtd">
<svg xmlns:xlink="http://www.w3.org/1999/xlink" width="360pt" height="216pt" viewBox="0 0 360 216" xmlns="http://www.w3.org/2000/svg" version="1.1">
 <metadata>
  <rdf:RDF xmlns:dc="http://purl.org/dc/elements/1.1/" xmlns:cc="http://creativecommons.org/ns#" xmlns:rdf="http://www.w3.org/1999/02/22-rdf-syntax-ns#">
   <cc:Work>
    <dc:type rdf:resource="http://purl.org/dc/dcmitype/StillImage"/>
    <dc:date>2025-07-03T15:01:15.959876</dc:date>
    <dc:format>image/svg+xml</dc:format>
    <dc:creator>
     <cc:Agent>
      <dc:title>Matplotlib v3.9.3, https://matplotlib.org/</dc:title>
     </cc:Agent>
    </dc:creator>
   </cc:Work>
  </rdf:RDF>
 </metadata>
 <defs>
  <style type="text/css">*{stroke-linejoin: round; stroke-linecap: butt}</style>
 </defs>
 <g id="figure_1">
  <g id="patch_1">
   <path d="M 0 216 
L 360 216 
L 360 0 
L 0 0 
z
" style="fill: #ffffff"/>
  </g>
  <g id="axes_1">
   <g id="patch_2">
    <path d="M 46.55 174.04 
L 336.555 174.04 
L 336.555 26.88 
L 46.55 26.88 
z
" style="fill: #ffffff"/>
   </g>
   <g id="patch_3">
    <path d="M 191.5525 174.04 
L 288.220833 174.04 
L 288.220833 26.88 
L 191.5525 26.88 
z
" clip-path="url(#pb491012990)" style="fill: #d3d3d3; opacity: 0.2; stroke: #000000; stroke-linejoin: miter"/>
   </g>
   <g id="matplotlib.axis_1">
    <g id="xtick_1">
     <g id="line2d_1">
      <defs>
       <path id="mb9487d86c0" d="M 0 0 
L 0 3.5 
" style="stroke: #000000; stroke-width: 0.8"/>
      </defs>
      <g>
       <use xlink:href="#mb9487d86c0" x="46.55" y="174.04" style="stroke: #000000; stroke-width: 0.8"/>
      </g>
     </g>
     <g id="text_1">
      <!-- −200 -->
      <g transform="translate(32.816406 188.638438) scale(0.1 -0.1)">
       <defs>
        <path id="DejaVuSans-2212" d="M 678 2272 
L 4684 2272 
L 4684 1741 
L 678 1741 
L 678 2272 
z
" transform="scale(0.015625)"/>
        <path id="DejaVuSans-32" d="M 1228 531 
L 3431 531 
L 3431 0 
L 469 0 
L 469 531 
Q 828 903 1448 1529 
Q 2069 2156 2228 2338 
Q 2531 2678 2651 2914 
Q 2772 3150 2772 3378 
Q 2772 3750 2511 3984 
Q 2250 4219 1831 4219 
Q 1534 4219 1204 4116 
Q 875 4013 500 3803 
L 500 4441 
Q 881 4594 1212 4672 
Q 1544 4750 1819 4750 
Q 2544 4750 2975 4387 
Q 3406 4025 3406 3419 
Q 3406 3131 3298 2873 
Q 3191 2616 2906 2266 
Q 2828 2175 2409 1742 
Q 1991 1309 1228 531 
z
" transform="scale(0.015625)"/>
        <path id="DejaVuSans-30" d="M 2034 4250 
Q 1547 4250 1301 3770 
Q 1056 3291 1056 2328 
Q 1056 1369 1301 889 
Q 1547 409 2034 409 
Q 2525 409 2770 889 
Q 3016 1369 3016 2328 
Q 3016 3291 2770 3770 
Q 2525 4250 2034 4250 
z
M 2034 4750 
Q 2819 4750 3233 4129 
Q 3647 3509 3647 2328 
Q 3647 1150 3233 529 
Q 2819 -91 2034 -91 
Q 1250 -91 836 529 
Q 422 1150 422 2328 
Q 422 3509 836 4129 
Q 1250 4750 2034 4750 
z
" transform="scale(0.015625)"/>
       </defs>
       <use xlink:href="#DejaVuSans-2212"/>
       <use xlink:href="#DejaVuSans-32" x="83.789062"/>
       <use xlink:href="#DejaVuSans-30" x="147.412109"/>
       <use xlink:href="#DejaVuSans-30" x="211.035156"/>
      </g>
     </g>
    </g>
    <g id="xtick_2">
     <g id="line2d_2">
      <g>
       <use xlink:href="#mb9487d86c0" x="94.884167" y="174.04" style="stroke: #000000; stroke-width: 0.8"/>
      </g>
     </g>
     <g id="text_2">
      <!-- 0 -->
      <g transform="translate(91.702917 188.638438) scale(0.1 -0.1)">
       <use xlink:href="#DejaVuSans-30"/>
      </g>
     </g>
    </g>
    <g id="xtick_3">
     <g id="line2d_3">
      <g>
       <use xlink:href="#mb9487d86c0" x="143.218333" y="174.04" style="stroke: #000000; stroke-width: 0.8"/>
      </g>
     </g>
     <g id="text_3">
      <!-- 200 -->
      <g transform="translate(133.674583 188.638438) scale(0.1 -0.1)">
       <use xlink:href="#DejaVuSans-32"/>
       <use xlink:href="#DejaVuSans-30" x="63.623047"/>
       <use xlink:href="#DejaVuSans-30" x="127.246094"/>
      </g>
     </g>
    </g>
    <g id="xtick_4">
     <g id="line2d_4">
      <g>
       <use xlink:href="#mb9487d86c0" x="191.5525" y="174.04" style="stroke: #000000; stroke-width: 0.8"/>
      </g>
     </g>
     <g id="text_4">
      <!-- 400 -->
      <g transform="translate(182.00875 188.638438) scale(0.1 -0.1)">
       <defs>
        <path id="DejaVuSans-34" d="M 2419 4116 
L 825 1625 
L 2419 1625 
L 2419 4116 
z
M 2253 4666 
L 3047 4666 
L 3047 1625 
L 3713 1625 
L 3713 1100 
L 3047 1100 
L 3047 0 
L 2419 0 
L 2419 1100 
L 313 1100 
L 313 1709 
L 2253 4666 
z
" transform="scale(0.015625)"/>
       </defs>
       <use xlink:href="#DejaVuSans-34"/>
       <use xlink:href="#DejaVuSans-30" x="63.623047"/>
       <use xlink:href="#DejaVuSans-30" x="127.246094"/>
      </g>
     </g>
    </g>
    <g id="xtick_5">
     <g id="line2d_5">
      <g>
       <use xlink:href="#mb9487d86c0" x="239.886667" y="174.04" style="stroke: #000000; stroke-width: 0.8"/>
      </g>
     </g>
     <g id="text_5">
      <!-- 600 -->
      <g transform="translate(230.342917 188.638438) scale(0.1 -0.1)">
       <defs>
        <path id="DejaVuSans-36" d="M 2113 2584 
Q 1688 2584 1439 2293 
Q 1191 2003 1191 1497 
Q 1191 994 1439 701 
Q 1688 409 2113 409 
Q 2538 409 2786 701 
Q 3034 994 3034 1497 
Q 3034 2003 2786 2293 
Q 2538 2584 2113 2584 
z
M 3366 4563 
L 3366 3988 
Q 3128 4100 2886 4159 
Q 2644 4219 2406 4219 
Q 1781 4219 1451 3797 
Q 1122 3375 1075 2522 
Q 1259 2794 1537 2939 
Q 1816 3084 2150 3084 
Q 2853 3084 3261 2657 
Q 3669 2231 3669 1497 
Q 3669 778 3244 343 
Q 2819 -91 2113 -91 
Q 1303 -91 875 529 
Q 447 1150 447 2328 
Q 447 3434 972 4092 
Q 1497 4750 2381 4750 
Q 2619 4750 2861 4703 
Q 3103 4656 3366 4563 
z
" transform="scale(0.015625)"/>
       </defs>
       <use xlink:href="#DejaVuSans-36"/>
       <use xlink:href="#DejaVuSans-30" x="63.623047"/>
       <use xlink:href="#DejaVuSans-30" x="127.246094"/>
      </g>
     </g>
    </g>
    <g id="xtick_6">
     <g id="line2d_6">
      <g>
       <use xlink:href="#mb9487d86c0" x="288.220833" y="174.04" style="stroke: #000000; stroke-width: 0.8"/>
      </g>
     </g>
     <g id="text_6">
      <!-- 800 -->
      <g transform="translate(278.677083 188.638438) scale(0.1 -0.1)">
       <defs>
        <path id="DejaVuSans-38" d="M 2034 2216 
Q 1584 2216 1326 1975 
Q 1069 1734 1069 1313 
Q 1069 891 1326 650 
Q 1584 409 2034 409 
Q 2484 409 2743 651 
Q 3003 894 3003 1313 
Q 3003 1734 2745 1975 
Q 2488 2216 2034 2216 
z
M 1403 2484 
Q 997 2584 770 2862 
Q 544 3141 544 3541 
Q 544 4100 942 4425 
Q 1341 4750 2034 4750 
Q 2731 4750 3128 4425 
Q 3525 4100 3525 3541 
Q 3525 3141 3298 2862 
Q 3072 2584 2669 2484 
Q 3125 2378 3379 2068 
Q 3634 1759 3634 1313 
Q 3634 634 3220 271 
Q 2806 -91 2034 -91 
Q 1263 -91 848 271 
Q 434 634 434 1313 
Q 434 1759 690 2068 
Q 947 2378 1403 2484 
z
M 1172 3481 
Q 1172 3119 1398 2916 
Q 1625 2713 2034 2713 
Q 2441 2713 2670 2916 
Q 2900 3119 2900 3481 
Q 2900 3844 2670 4047 
Q 2441 4250 2034 4250 
Q 1625 4250 1398 4047 
Q 1172 3844 1172 3481 
z
" transform="scale(0.015625)"/>
       </defs>
       <use xlink:href="#DejaVuSans-38"/>
       <use xlink:href="#DejaVuSans-30" x="63.623047"/>
       <use xlink:href="#DejaVuSans-30" x="127.246094"/>
      </g>
     </g>
    </g>
    <g id="xtick_7">
     <g id="line2d_7">
      <g>
       <use xlink:href="#mb9487d86c0" x="336.555" y="174.04" style="stroke: #000000; stroke-width: 0.8"/>
      </g>
     </g>
     <g id="text_7">
      <!-- 1000 -->
      <g transform="translate(323.83 188.638438) scale(0.1 -0.1)">
       <defs>
        <path id="DejaVuSans-31" d="M 794 531 
L 1825 531 
L 1825 4091 
L 703 3866 
L 703 4441 
L 1819 4666 
L 2450 4666 
L 2450 531 
L 3481 531 
L 3481 0 
L 794 0 
L 794 531 
z
" transform="scale(0.015625)"/>
       </defs>
       <use xlink:href="#DejaVuSans-31"/>
       <use xlink:href="#DejaVuSans-30" x="63.623047"/>
       <use xlink:href="#DejaVuSans-30" x="127.246094"/>
       <use xlink:href="#DejaVuSans-30" x="190.869141"/>
      </g>
     </g>
    </g>
    <g id="text_8">
     <!-- Time (ms) -->
     <g transform="translate(166.353281 202.316563) scale(0.1 -0.1)">
      <defs>
       <path id="DejaVuSans-54" d="M -19 4666 
L 3928 4666 
L 3928 4134 
L 2272 4134 
L 2272 0 
L 1638 0 
L 1638 4134 
L -19 4134 
L -19 4666 
z
" transform="scale(0.015625)"/>
       <path id="DejaVuSans-69" d="M 603 3500 
L 1178 3500 
L 1178 0 
L 603 0 
L 603 3500 
z
M 603 4863 
L 1178 4863 
L 1178 4134 
L 603 4134 
L 603 4863 
z
" transform="scale(0.015625)"/>
       <path id="DejaVuSans-6d" d="M 3328 2828 
Q 3544 3216 3844 3400 
Q 4144 3584 4550 3584 
Q 5097 3584 5394 3201 
Q 5691 2819 5691 2113 
L 5691 0 
L 5113 0 
L 5113 2094 
Q 5113 2597 4934 2840 
Q 4756 3084 4391 3084 
Q 3944 3084 3684 2787 
Q 3425 2491 3425 1978 
L 3425 0 
L 2847 0 
L 2847 2094 
Q 2847 2600 2669 2842 
Q 2491 3084 2119 3084 
Q 1678 3084 1418 2786 
Q 1159 2488 1159 1978 
L 1159 0 
L 581 0 
L 581 3500 
L 1159 3500 
L 1159 2956 
Q 1356 3278 1631 3431 
Q 1906 3584 2284 3584 
Q 2666 3584 2933 3390 
Q 3200 3197 3328 2828 
z
" transform="scale(0.015625)"/>
       <path id="DejaVuSans-65" d="M 3597 1894 
L 3597 1613 
L 953 1613 
Q 991 1019 1311 708 
Q 1631 397 2203 397 
Q 2534 397 2845 478 
Q 3156 559 3463 722 
L 3463 178 
Q 3153 47 2828 -22 
Q 2503 -91 2169 -91 
Q 1331 -91 842 396 
Q 353 884 353 1716 
Q 353 2575 817 3079 
Q 1281 3584 2069 3584 
Q 2775 3584 3186 3129 
Q 3597 2675 3597 1894 
z
M 3022 2063 
Q 3016 2534 2758 2815 
Q 2500 3097 2075 3097 
Q 1594 3097 1305 2825 
Q 1016 2553 972 2059 
L 3022 2063 
z
" transform="scale(0.015625)"/>
       <path id="DejaVuSans-20" transform="scale(0.015625)"/>
       <path id="DejaVuSans-28" d="M 1984 4856 
Q 1566 4138 1362 3434 
Q 1159 2731 1159 2009 
Q 1159 1288 1364 580 
Q 1569 -128 1984 -844 
L 1484 -844 
Q 1016 -109 783 600 
Q 550 1309 550 2009 
Q 550 2706 781 3412 
Q 1013 4119 1484 4856 
L 1984 4856 
z
" transform="scale(0.015625)"/>
       <path id="DejaVuSans-73" d="M 2834 3397 
L 2834 2853 
Q 2591 2978 2328 3040 
Q 2066 3103 1784 3103 
Q 1356 3103 1142 2972 
Q 928 2841 928 2578 
Q 928 2378 1081 2264 
Q 1234 2150 1697 2047 
L 1894 2003 
Q 2506 1872 2764 1633 
Q 3022 1394 3022 966 
Q 3022 478 2636 193 
Q 2250 -91 1575 -91 
Q 1294 -91 989 -36 
Q 684 19 347 128 
L 347 722 
Q 666 556 975 473 
Q 1284 391 1588 391 
Q 1994 391 2212 530 
Q 2431 669 2431 922 
Q 2431 1156 2273 1281 
Q 2116 1406 1581 1522 
L 1381 1569 
Q 847 1681 609 1914 
Q 372 2147 372 2553 
Q 372 3047 722 3315 
Q 1072 3584 1716 3584 
Q 2034 3584 2315 3537 
Q 2597 3491 2834 3397 
z
" transform="scale(0.015625)"/>
       <path id="DejaVuSans-29" d="M 513 4856 
L 1013 4856 
Q 1481 4119 1714 3412 
Q 1947 2706 1947 2009 
Q 1947 1309 1714 600 
Q 1481 -109 1013 -844 
L 513 -844 
Q 928 -128 1133 580 
Q 1338 1288 1338 2009 
Q 1338 2731 1133 3434 
Q 928 4138 513 4856 
z
" transform="scale(0.015625)"/>
      </defs>
      <use xlink:href="#DejaVuSans-54"/>
      <use xlink:href="#DejaVuSans-69" x="57.958984"/>
      <use xlink:href="#DejaVuSans-6d" x="85.742188"/>
      <use xlink:href="#DejaVuSans-65" x="183.154297"/>
      <use xlink:href="#DejaVuSans-20" x="244.677734"/>
      <use xlink:href="#DejaVuSans-28" x="276.464844"/>
      <use xlink:href="#DejaVuSans-6d" x="315.478516"/>
      <use xlink:href="#DejaVuSans-73" x="412.890625"/>
      <use xlink:href="#DejaVuSans-29" x="464.990234"/>
     </g>
    </g>
   </g>
   <g id="matplotlib.axis_2">
    <g id="ytick_1">
     <g id="line2d_8">
      <defs>
       <path id="m8b3ae8cde3" d="M 0 0 
L -3.5 0 
" style="stroke: #000000; stroke-width: 0.8"/>
      </defs>
      <g>
       <use xlink:href="#m8b3ae8cde3" x="46.55" y="171.55429" style="stroke: #000000; stroke-width: 0.8"/>
      </g>
     </g>
     <g id="text_9">
      <!-- −4 -->
      <g transform="translate(24.807813 175.353509) scale(0.1 -0.1)">
       <use xlink:href="#DejaVuSans-2212"/>
       <use xlink:href="#DejaVuSans-34" x="83.789062"/>
      </g>
     </g>
    </g>
    <g id="ytick_2">
     <g id="line2d_9">
      <g>
       <use xlink:href="#m8b3ae8cde3" x="46.55" y="137.260257" style="stroke: #000000; stroke-width: 0.8"/>
      </g>
     </g>
     <g id="text_10">
      <!-- −2 -->
      <g transform="translate(24.807813 141.059476) scale(0.1 -0.1)">
       <use xlink:href="#DejaVuSans-2212"/>
       <use xlink:href="#DejaVuSans-32" x="83.789062"/>
      </g>
     </g>
    </g>
    <g id="ytick_3">
     <g id="line2d_10">
      <g>
       <use xlink:href="#m8b3ae8cde3" x="46.55" y="102.966224" style="stroke: #000000; stroke-width: 0.8"/>
      </g>
     </g>
     <g id="text_11">
      <!-- 0 -->
      <g transform="translate(33.1875 106.765443) scale(0.1 -0.1)">
       <use xlink:href="#DejaVuSans-30"/>
      </g>
     </g>
    </g>
    <g id="ytick_4">
     <g id="line2d_11">
      <g>
       <use xlink:href="#m8b3ae8cde3" x="46.55" y="68.672191" style="stroke: #000000; stroke-width: 0.8"/>
      </g>
     </g>
     <g id="text_12">
      <!-- 2 -->
      <g transform="translate(33.1875 72.471409) scale(0.1 -0.1)">
       <use xlink:href="#DejaVuSans-32"/>
      </g>
     </g>
    </g>
    <g id="ytick_5">
     <g id="line2d_12">
      <g>
       <use xlink:href="#m8b3ae8cde3" x="46.55" y="34.378157" style="stroke: #000000; stroke-width: 0.8"/>
      </g>
     </g>
     <g id="text_13">
      <!-- 4 -->
      <g transform="translate(33.1875 38.177376) scale(0.1 -0.1)">
       <use xlink:href="#DejaVuSans-34"/>
      </g>
     </g>
    </g>
    <g id="text_14">
     <!-- Amplitude (μV) -->
     <g transform="translate(18.728125 138.174844) rotate(-90) scale(0.1 -0.1)">
      <defs>
       <path id="DejaVuSans-41" d="M 2188 4044 
L 1331 1722 
L 3047 1722 
L 2188 4044 
z
M 1831 4666 
L 2547 4666 
L 4325 0 
L 3669 0 
L 3244 1197 
L 1141 1197 
L 716 0 
L 50 0 
L 1831 4666 
z
" transform="scale(0.015625)"/>
       <path id="DejaVuSans-70" d="M 1159 525 
L 1159 -1331 
L 581 -1331 
L 581 3500 
L 1159 3500 
L 1159 2969 
Q 1341 3281 1617 3432 
Q 1894 3584 2278 3584 
Q 2916 3584 3314 3078 
Q 3713 2572 3713 1747 
Q 3713 922 3314 415 
Q 2916 -91 2278 -91 
Q 1894 -91 1617 61 
Q 1341 213 1159 525 
z
M 3116 1747 
Q 3116 2381 2855 2742 
Q 2594 3103 2138 3103 
Q 1681 3103 1420 2742 
Q 1159 2381 1159 1747 
Q 1159 1113 1420 752 
Q 1681 391 2138 391 
Q 2594 391 2855 752 
Q 3116 1113 3116 1747 
z
" transform="scale(0.015625)"/>
       <path id="DejaVuSans-6c" d="M 603 4863 
L 1178 4863 
L 1178 0 
L 603 0 
L 603 4863 
z
" transform="scale(0.015625)"/>
       <path id="DejaVuSans-74" d="M 1172 4494 
L 1172 3500 
L 2356 3500 
L 2356 3053 
L 1172 3053 
L 1172 1153 
Q 1172 725 1289 603 
Q 1406 481 1766 481 
L 2356 481 
L 2356 0 
L 1766 0 
Q 1100 0 847 248 
Q 594 497 594 1153 
L 594 3053 
L 172 3053 
L 172 3500 
L 594 3500 
L 594 4494 
L 1172 4494 
z
" transform="scale(0.015625)"/>
       <path id="DejaVuSans-75" d="M 544 1381 
L 544 3500 
L 1119 3500 
L 1119 1403 
Q 1119 906 1312 657 
Q 1506 409 1894 409 
Q 2359 409 2629 706 
Q 2900 1003 2900 1516 
L 2900 3500 
L 3475 3500 
L 3475 0 
L 2900 0 
L 2900 538 
Q 2691 219 2414 64 
Q 2138 -91 1772 -91 
Q 1169 -91 856 284 
Q 544 659 544 1381 
z
M 1991 3584 
L 1991 3584 
z
" transform="scale(0.015625)"/>
       <path id="DejaVuSans-64" d="M 2906 2969 
L 2906 4863 
L 3481 4863 
L 3481 0 
L 2906 0 
L 2906 525 
Q 2725 213 2448 61 
Q 2172 -91 1784 -91 
Q 1150 -91 751 415 
Q 353 922 353 1747 
Q 353 2572 751 3078 
Q 1150 3584 1784 3584 
Q 2172 3584 2448 3432 
Q 2725 3281 2906 2969 
z
M 947 1747 
Q 947 1113 1208 752 
Q 1469 391 1925 391 
Q 2381 391 2643 752 
Q 2906 1113 2906 1747 
Q 2906 2381 2643 2742 
Q 2381 3103 1925 3103 
Q 1469 3103 1208 2742 
Q 947 2381 947 1747 
z
" transform="scale(0.015625)"/>
       <path id="DejaVuSans-3bc" d="M 544 -1331 
L 544 3500 
L 1119 3500 
L 1119 1325 
Q 1119 872 1334 640 
Q 1550 409 1972 409 
Q 2434 409 2667 671 
Q 2900 934 2900 1459 
L 2900 3500 
L 3475 3500 
L 3475 806 
Q 3475 619 3529 530 
Q 3584 441 3700 441 
Q 3728 441 3778 458 
Q 3828 475 3916 513 
L 3916 50 
Q 3788 -22 3673 -56 
Q 3559 -91 3450 -91 
Q 3234 -91 3106 31 
Q 2978 153 2931 403 
Q 2775 156 2548 32 
Q 2322 -91 2016 -91 
Q 1697 -91 1473 31 
Q 1250 153 1119 397 
L 1119 -1331 
L 544 -1331 
z
" transform="scale(0.015625)"/>
       <path id="DejaVuSans-56" d="M 1831 0 
L 50 4666 
L 709 4666 
L 2188 738 
L 3669 4666 
L 4325 4666 
L 2547 0 
L 1831 0 
z
" transform="scale(0.015625)"/>
      </defs>
      <use xlink:href="#DejaVuSans-41"/>
      <use xlink:href="#DejaVuSans-6d" x="68.408203"/>
      <use xlink:href="#DejaVuSans-70" x="165.820312"/>
      <use xlink:href="#DejaVuSans-6c" x="229.296875"/>
      <use xlink:href="#DejaVuSans-69" x="257.080078"/>
      <use xlink:href="#DejaVuSans-74" x="284.863281"/>
      <use xlink:href="#DejaVuSans-75" x="324.072266"/>
      <use xlink:href="#DejaVuSans-64" x="387.451172"/>
      <use xlink:href="#DejaVuSans-65" x="450.927734"/>
      <use xlink:href="#DejaVuSans-20" x="512.451172"/>
      <use xlink:href="#DejaVuSans-28" x="544.238281"/>
      <use xlink:href="#DejaVuSans-3bc" x="583.251953"/>
      <use xlink:href="#DejaVuSans-56" x="646.875"/>
      <use xlink:href="#DejaVuSans-29" x="715.283203"/>
     </g>
    </g>
   </g>
   <g id="line2d_13">
    <path d="M 46.55 98.599222 
L 48.000025 99.979659 
L 48.725038 100.319397 
L 49.45005 100.356467 
L 51.141746 100.177487 
L 52.108429 100.417851 
L 55.733492 101.96041 
L 56.700175 102.825264 
L 57.666858 103.723474 
L 58.1502 103.964946 
L 58.633542 103.988392 
L 59.116883 103.802464 
L 59.841896 103.259917 
L 61.533592 101.905113 
L 64.916983 99.833917 
L 65.641996 99.79698 
L 66.367008 100.086699 
L 67.575363 100.990498 
L 68.542046 101.640907 
L 69.267058 101.914557 
L 69.992071 101.985625 
L 72.167108 101.994394 
L 73.133792 102.356758 
L 77.242196 104.171472 
L 77.967208 104.266496 
L 78.933892 104.142667 
L 80.142246 103.962308 
L 81.108929 104.078287 
L 84.25065 104.920067 
L 86.425688 106.026763 
L 87.1507 106.061032 
L 87.875713 105.868437 
L 89.325738 105.41912 
L 90.05075 105.526093 
L 91.017433 106.010349 
L 91.984117 106.426612 
L 92.709129 106.435045 
L 93.434142 106.175987 
L 95.125838 105.380649 
L 95.85085 105.380213 
L 96.575862 105.669468 
L 97.784217 106.232661 
L 98.267558 106.256493 
L 98.992571 105.998413 
L 100.684267 105.131705 
L 101.167608 105.131408 
L 101.892621 105.425197 
L 102.859304 106.175705 
L 104.067658 107.04728 
L 104.792671 107.327742 
L 105.759354 107.461465 
L 106.967708 107.39482 
L 108.901075 107.179442 
L 109.384417 107.35354 
L 109.867758 107.726996 
L 110.592771 108.68773 
L 111.559454 110.515325 
L 113.492821 114.633558 
L 114.217833 116.819412 
L 114.942846 120.008631 
L 115.909529 125.860378 
L 117.601225 136.62875 
L 118.326238 139.893194 
L 119.05125 142.081326 
L 119.534592 142.987079 
L 120.017933 143.472534 
L 120.501275 143.530379 
L 120.984617 143.138716 
L 121.467958 142.276353 
L 121.9513 140.931094 
L 122.676313 138.006441 
L 123.401325 134.04017 
L 124.368008 127.369749 
L 125.818033 115.51501 
L 134.276512 43.788974 
L 135.001525 39.493022 
L 135.726538 36.401458 
L 136.209879 35.074431 
L 136.693221 34.343548 
L 136.934892 34.196495 
L 137.176562 34.189511 
L 137.418233 34.316674 
L 137.901575 34.944753 
L 138.384917 36.015769 
L 139.109929 38.314422 
L 139.834942 41.337297 
L 140.801625 46.526167 
L 141.768308 53.057485 
L 143.943346 70.02051 
L 149.501775 113.019096 
L 150.710129 120.534477 
L 151.676813 125.194901 
L 152.643496 128.844422 
L 154.093521 133.398629 
L 155.060204 135.846954 
L 155.785217 137.152044 
L 156.510229 138.016205 
L 157.960254 139.485403 
L 158.685267 140.584413 
L 161.585317 145.493742 
L 162.793671 147.470242 
L 164.727037 150.802429 
L 165.45205 151.578607 
L 166.418733 152.215822 
L 167.627088 152.981996 
L 169.318783 154.160871 
L 170.043796 154.400517 
L 171.25215 154.493838 
L 173.185517 154.481496 
L 173.910529 154.227369 
L 175.118883 153.466498 
L 176.810579 152.176036 
L 177.777263 151.116706 
L 180.193971 148.005172 
L 181.160654 147.325503 
L 184.302375 145.55336 
L 185.7524 145.163527 
L 186.960754 145.048765 
L 187.927437 145.17793 
L 189.377463 145.433745 
L 190.344146 145.301649 
L 191.310829 145.136502 
L 192.035842 145.270068 
L 192.760854 145.711715 
L 193.969208 146.865171 
L 195.419233 148.188853 
L 196.385917 148.786142 
L 197.110929 148.977268 
L 197.835942 148.921426 
L 199.285967 148.683193 
L 199.769308 148.799326 
L 200.494321 149.266322 
L 202.427687 150.928358 
L 202.911029 151.031279 
L 203.636042 150.90373 
L 204.602725 150.43889 
L 205.811079 149.625566 
L 207.019433 148.53622 
L 210.161154 145.280923 
L 211.127837 143.697872 
L 214.027888 138.285706 
L 214.7529 137.630268 
L 215.477913 137.313831 
L 216.927938 136.83456 
L 217.411279 136.403362 
L 217.894621 135.713439 
L 218.619633 134.189665 
L 220.311329 130.100628 
L 221.036342 129.066611 
L 221.761354 128.542733 
L 223.211379 127.741841 
L 223.936392 126.998572 
L 224.903075 125.651007 
L 227.803125 121.399763 
L 228.769808 120.254328 
L 229.25315 119.902105 
L 229.736492 119.761064 
L 230.219833 119.81754 
L 231.669858 120.195422 
L 232.1532 120.061427 
L 233.119883 119.435593 
L 233.844896 119.013683 
L 234.569908 118.849945 
L 236.986617 118.775275 
L 237.711629 118.403104 
L 238.678313 117.629873 
L 239.886667 116.645184 
L 240.611679 116.298543 
L 242.303375 115.799488 
L 243.028388 115.201393 
L 244.478412 113.725974 
L 244.961754 113.490675 
L 245.445096 113.448574 
L 246.170108 113.651274 
L 247.861804 114.273639 
L 248.828487 114.321629 
L 249.5535 114.162698 
L 250.520183 113.689267 
L 251.728538 113.050519 
L 252.45355 112.933456 
L 253.178562 113.065723 
L 254.628587 113.460064 
L 255.3536 113.394529 
L 257.770308 112.803563 
L 258.495321 113.026183 
L 260.428688 113.844022 
L 260.912029 113.829574 
L 261.637042 113.52441 
L 262.603725 112.731379 
L 263.570408 112.000116 
L 264.295421 111.793425 
L 265.020433 111.874924 
L 268.887167 112.926166 
L 269.85385 113.254511 
L 270.578863 113.200707 
L 271.062204 112.961396 
L 271.787217 112.291546 
L 272.995571 110.6514 
L 273.962254 109.4328 
L 274.687267 108.903071 
L 275.170608 108.807628 
L 275.65395 108.918365 
L 276.378963 109.366369 
L 277.587317 110.170757 
L 278.312329 110.309257 
L 279.279013 110.125579 
L 280.487367 109.910686 
L 281.937392 109.757094 
L 282.662404 109.447202 
L 283.629088 108.732352 
L 286.045796 106.696381 
L 287.012479 106.233616 
L 288.462504 105.644526 
L 289.670858 104.995246 
L 290.1542 104.965273 
L 290.637542 105.197433 
L 291.362554 105.972541 
L 292.329238 107.072877 
L 292.812579 107.298642 
L 293.295921 107.207461 
L 293.779263 106.844571 
L 295.229287 105.507837 
L 295.712629 105.424154 
L 296.195971 105.602573 
L 296.920983 106.223017 
L 298.129338 107.370124 
L 298.85435 107.739282 
L 299.579363 107.799973 
L 300.546046 107.538406 
L 304.171108 106.189823 
L 304.896121 106.251691 
L 305.862804 106.670777 
L 306.829488 107.104643 
L 307.5545 107.14439 
L 308.037842 106.971963 
L 308.762854 106.451131 
L 310.45455 105.07131 
L 311.179563 104.850413 
L 311.904575 104.876211 
L 313.112929 105.178782 
L 314.079612 105.569832 
L 314.804625 106.103897 
L 315.529638 106.946623 
L 317.704675 109.895622 
L 318.429688 110.337263 
L 318.913029 110.382539 
L 319.396371 110.206343 
L 319.879712 109.800242 
L 320.604725 108.772558 
L 321.329738 107.294259 
L 322.538092 104.159879 
L 323.746446 101.047269 
L 324.471458 99.603426 
L 325.438142 98.244129 
L 326.646496 96.707196 
L 327.371508 95.448431 
L 329.788217 90.619181 
L 330.271558 90.241684 
L 330.7549 90.253278 
L 331.238242 90.63031 
L 331.963254 91.649322 
L 332.929937 93.054727 
L 333.413279 93.493581 
L 333.896621 93.701045 
L 334.621633 93.715145 
L 335.346646 93.732637 
L 335.829988 93.94222 
L 336.313329 94.38536 
L 336.796671 95.054395 
L 336.796671 95.054395 
" clip-path="url(#pb491012990)" style="fill: none; stroke: #000080; stroke-linecap: square"/>
   </g>
   <g id="line2d_14">
    <path d="M 46.55 97.921689 
L 47.275013 97.832616 
L 48.241696 97.969046 
L 50.175063 98.588949 
L 53.075113 99.593108 
L 54.283467 100.366613 
L 58.1502 103.171142 
L 59.116883 103.424361 
L 60.325238 103.43835 
L 61.533592 103.531352 
L 63.466958 103.896749 
L 64.191971 103.67613 
L 65.158654 103.01211 
L 66.125338 102.428738 
L 66.85035 102.338449 
L 67.817033 102.566696 
L 68.783717 102.737541 
L 70.233742 102.657601 
L 73.375462 102.569361 
L 74.100475 102.786291 
L 74.825488 103.245183 
L 76.517183 104.531173 
L 77.000525 104.651044 
L 77.725538 104.536434 
L 79.417233 104.020156 
L 80.142246 104.137454 
L 81.108929 104.59574 
L 83.042296 105.597687 
L 83.767308 105.745097 
L 84.492321 105.637925 
L 85.459004 105.158082 
L 86.425688 104.695661 
L 87.1507 104.61043 
L 88.117383 104.796745 
L 89.084067 104.966073 
L 90.05075 104.874019 
L 91.259104 104.471141 
L 92.9508 103.889072 
L 93.434142 103.909964 
L 93.917483 104.118395 
L 94.400825 104.537515 
L 95.125838 105.494818 
L 96.817533 107.907503 
L 97.542546 108.436716 
L 98.025888 108.539917 
L 98.509229 108.464632 
L 99.475913 107.985701 
L 100.442596 107.51342 
L 101.167608 107.384535 
L 102.134292 107.460749 
L 103.825988 107.602827 
L 104.792671 107.453265 
L 106.726038 107.044512 
L 107.45105 107.141664 
L 108.176063 107.4597 
L 109.142746 108.206809 
L 110.3511 109.542936 
L 112.526138 112.417761 
L 113.25115 113.642514 
L 113.976163 115.379859 
L 114.701175 117.948989 
L 115.426187 121.546503 
L 116.392871 127.726736 
L 117.842896 137.223887 
L 118.567908 140.619325 
L 119.05125 142.117497 
L 119.534592 142.985081 
L 120.017933 143.25153 
L 120.259604 143.174746 
L 120.742946 142.638464 
L 121.226288 141.643167 
L 121.9513 139.404046 
L 122.676313 136.361421 
L 123.642996 131.104901 
L 124.609679 124.518284 
L 126.059704 112.701375 
L 130.893121 70.014879 
L 132.826488 52.532338 
L 133.793171 45.443925 
L 134.759854 39.883483 
L 135.484867 36.80361 
L 136.209879 34.763832 
L 136.693221 34.007195 
L 137.176562 33.716822 
L 137.659904 33.857153 
L 138.143246 34.391334 
L 138.626587 35.301455 
L 139.109929 36.600035 
L 139.834942 39.361157 
L 140.559954 43.203433 
L 141.526637 49.924921 
L 142.976663 62.082706 
L 147.085067 97.131416 
L 148.776763 109.669606 
L 150.226788 118.801604 
L 151.193471 123.783556 
L 152.160154 127.693943 
L 153.126838 130.61927 
L 154.335192 133.391346 
L 156.993571 138.625817 
L 160.376962 144.541103 
L 162.310329 147.46247 
L 165.693721 152.577561 
L 167.385417 155.215776 
L 168.110429 155.999037 
L 168.835442 156.458514 
L 169.560454 156.659261 
L 170.768808 156.706522 
L 172.218833 156.567044 
L 173.185517 156.191632 
L 175.360554 155.041934 
L 176.085567 155.021033 
L 177.05225 155.31902 
L 177.777263 155.533349 
L 178.260604 155.530118 
L 178.743946 155.352184 
L 179.468958 154.762684 
L 182.127338 152.037816 
L 182.610679 151.892558 
L 183.335692 151.965864 
L 185.510729 152.619834 
L 186.477413 152.42899 
L 187.202425 152.302357 
L 187.685767 152.361561 
L 188.169108 152.609243 
L 188.65245 153.082609 
L 189.377463 154.198427 
L 191.069158 157.246958 
L 191.5525 157.755874 
L 192.035842 158.017399 
L 192.760854 158.064986 
L 194.210879 157.940158 
L 194.935892 158.127659 
L 195.660904 158.591197 
L 196.385917 159.358735 
L 199.285967 162.980533 
L 200.977663 164.868214 
L 202.186017 166.200361 
L 202.911029 166.662319 
L 203.394371 166.741129 
L 203.877713 166.629175 
L 204.602725 166.180567 
L 206.536092 164.493562 
L 207.502775 163.441613 
L 209.436142 161.148696 
L 210.402825 160.443515 
L 211.611179 159.593882 
L 212.577863 158.562038 
L 213.786217 156.820693 
L 214.994571 154.726786 
L 215.961254 152.628174 
L 217.169608 149.284404 
L 218.619633 145.253358 
L 219.344646 143.951833 
L 219.827988 143.467888 
L 220.311329 143.248742 
L 221.278012 143.202577 
L 222.003025 143.061999 
L 222.486367 142.771241 
L 223.211379 142.018291 
L 228.286467 135.53719 
L 229.25315 134.726682 
L 230.703175 133.814666 
L 231.428187 133.523666 
L 232.1532 133.450249 
L 233.361554 133.678823 
L 234.086567 133.72524 
L 234.811579 133.4829 
L 235.536592 132.946394 
L 237.711629 131.110372 
L 238.678313 130.591509 
L 239.403325 130.379515 
L 240.128337 130.394825 
L 241.095021 130.736519 
L 242.303375 131.193845 
L 242.786717 131.198398 
L 243.270058 131.015621 
L 243.7534 130.609213 
L 244.478412 129.588526 
L 246.411779 126.414605 
L 246.895121 126.116252 
L 247.378463 126.125313 
L 247.861804 126.393444 
L 249.795171 127.974124 
L 250.278513 128.057593 
L 250.761854 127.965776 
L 251.486867 127.586401 
L 253.420233 126.352922 
L 254.386917 126.048253 
L 255.111929 126.034014 
L 255.836942 126.252543 
L 256.561954 126.725767 
L 258.736992 128.456786 
L 259.462004 128.565639 
L 261.395371 128.504065 
L 263.087067 128.807203 
L 264.05375 128.676259 
L 267.437142 127.789642 
L 269.128838 127.072177 
L 270.337192 126.296375 
L 272.995571 124.152788 
L 274.445596 122.658401 
L 275.895621 121.245113 
L 276.862304 120.546693 
L 277.587317 120.215413 
L 278.312329 120.103845 
L 280.245696 120.091343 
L 280.970708 119.694161 
L 281.937392 118.828499 
L 282.904075 117.97108 
L 283.629088 117.606646 
L 284.3541 117.538563 
L 285.804125 117.574176 
L 286.529137 117.337537 
L 288.462504 116.53894 
L 290.1542 115.992157 
L 290.879212 115.505516 
L 293.05425 113.677693 
L 293.779263 113.492597 
L 294.504275 113.332678 
L 294.987617 113.061442 
L 295.712629 112.298122 
L 297.162654 110.525889 
L 297.645996 110.241159 
L 298.371008 110.125328 
L 300.304375 110.292184 
L 302.237742 110.441481 
L 302.962754 110.180653 
L 304.896121 109.136331 
L 305.621133 109.110452 
L 307.071158 109.226181 
L 307.5545 108.95467 
L 308.037842 108.387952 
L 308.762854 107.032328 
L 309.971208 104.600465 
L 310.45455 104.076201 
L 310.937892 103.952481 
L 311.421233 104.194504 
L 312.146246 104.973874 
L 313.112929 106.036419 
L 313.837942 106.535739 
L 315.046296 107.230581 
L 315.771308 108.008007 
L 316.737992 109.569653 
L 317.463004 110.723913 
L 317.946346 111.212635 
L 318.429688 111.33566 
L 318.913029 111.047236 
L 319.396371 110.379301 
L 320.121383 108.861261 
L 321.571408 105.070654 
L 323.746446 99.465324 
L 325.196471 96.383036 
L 326.163154 94.816225 
L 327.129838 93.695078 
L 328.096521 92.911966 
L 329.063204 92.415357 
L 329.788217 92.255679 
L 330.996571 92.280991 
L 332.446596 92.499174 
L 333.413279 92.862988 
L 334.138292 93.340796 
L 335.104975 94.291521 
L 336.071658 95.604586 
L 336.796671 96.81886 
L 336.796671 96.81886 
" clip-path="url(#pb491012990)" style="fill: none; stroke: #006400; stroke-linecap: square"/>
   </g>
   <g id="line2d_15">
    <path d="M 46.55 100.014521 
L 47.516683 100.246364 
L 48.241696 100.138185 
L 48.966708 99.785532 
L 50.900075 98.706747 
L 51.625088 98.674477 
L 52.3501 98.942568 
L 53.800125 99.898748 
L 55.008479 100.827523 
L 57.666858 103.196471 
L 58.391871 103.297065 
L 61.291921 103.172875 
L 62.500275 103.267107 
L 63.708629 103.095404 
L 65.400325 102.828162 
L 66.608679 102.868048 
L 68.783717 103.129256 
L 69.508729 102.858692 
L 70.233742 102.312892 
L 71.442096 101.320538 
L 72.167108 101.041175 
L 72.892121 101.062495 
L 74.342146 101.487259 
L 75.5505 101.995557 
L 76.758854 102.813847 
L 78.208879 103.819935 
L 78.933892 104.079543 
L 79.900575 104.134399 
L 81.3506 104.183334 
L 84.975662 104.877654 
L 87.1507 106.113407 
L 87.875713 106.081677 
L 90.292421 105.553433 
L 93.917483 105.511375 
L 96.092521 105.799559 
L 99.959254 106.924213 
L 101.167608 107.594578 
L 102.134292 108.101157 
L 102.859304 108.291154 
L 104.309329 108.342944 
L 105.759354 108.307762 
L 106.484367 108.014069 
L 107.45105 107.240183 
L 108.417733 106.486685 
L 108.901075 106.346127 
L 109.384417 106.457776 
L 109.867758 106.848261 
L 110.3511 107.503215 
L 111.076113 108.860555 
L 113.492821 114.17609 
L 114.217833 116.461119 
L 114.942846 119.835979 
L 115.667858 124.42364 
L 117.842896 139.330193 
L 118.567908 142.147482 
L 119.05125 143.205175 
L 119.534592 143.697644 
L 120.017933 143.708908 
L 120.501275 143.291746 
L 120.984617 142.465108 
L 121.467958 141.232499 
L 122.192971 138.641603 
L 122.917983 135.224991 
L 123.884667 129.5209 
L 125.093021 120.682135 
L 126.543046 108.097588 
L 129.201425 84.892711 
L 131.618133 64.462641 
L 134.276512 41.090701 
L 135.001525 36.979121 
L 135.484867 35.193783 
L 135.968208 34.12326 
L 136.45155 33.639009 
L 136.934892 33.591073 
L 137.418233 33.862808 
L 137.901575 34.404196 
L 138.384917 35.231356 
L 138.868258 36.401875 
L 139.593271 38.939205 
L 140.318283 42.496599 
L 141.284967 48.631935 
L 142.734992 59.753069 
L 144.910029 78.560152 
L 147.326738 99.270774 
L 148.776763 109.967303 
L 149.985117 117.425894 
L 151.193471 123.494068 
L 152.401825 128.565864 
L 153.610179 132.82911 
L 154.818533 136.430222 
L 155.785217 138.707616 
L 156.510229 139.955204 
L 157.718583 141.481838 
L 159.410279 143.301211 
L 161.585317 145.407684 
L 162.552 146.832366 
L 164.002025 149.48491 
L 166.177063 153.553751 
L 167.143746 154.970332 
L 168.110429 155.965837 
L 170.043796 157.368154 
L 171.010479 157.976624 
L 171.735492 158.184672 
L 172.460504 158.131936 
L 173.427188 157.759569 
L 176.568908 155.9937 
L 178.260604 155.169067 
L 179.227287 154.971055 
L 181.643996 154.657 
L 182.610679 154.581805 
L 183.335692 154.747372 
L 184.544046 155.379317 
L 185.510729 155.824737 
L 188.169108 156.766303 
L 188.894121 157.417133 
L 189.860804 158.706593 
L 191.5525 161.191815 
L 192.519183 162.100625 
L 197.594271 165.950396 
L 198.560954 166.648027 
L 199.285967 166.964418 
L 200.25265 167.129132 
L 201.702675 167.078815 
L 203.1527 167.038069 
L 204.844396 167.2762 
L 205.811079 167.34986 
L 206.536092 167.223255 
L 207.261104 166.8797 
L 208.227788 166.145269 
L 209.436142 164.970343 
L 210.161154 164.037944 
L 210.886167 162.770973 
L 211.85285 160.545607 
L 213.061204 157.731227 
L 213.786217 156.559097 
L 214.994571 155.261805 
L 215.719583 154.303088 
L 216.444596 152.943647 
L 218.861304 147.764314 
L 219.586317 146.862122 
L 222.244696 144.19497 
L 223.45305 142.112433 
L 224.419733 140.600139 
L 225.144746 139.883889 
L 225.869758 139.485463 
L 227.078113 138.915367 
L 228.286467 137.982466 
L 229.25315 137.356976 
L 229.978162 137.199484 
L 230.944846 137.315915 
L 232.1532 137.428581 
L 232.878213 137.285385 
L 233.844896 136.826162 
L 236.261604 135.418912 
L 237.228288 135.246109 
L 239.403325 135.112247 
L 240.128337 134.816682 
L 241.336692 134.007025 
L 244.236742 131.900403 
L 244.961754 131.712831 
L 245.686767 131.778282 
L 246.65345 132.148182 
L 247.620133 132.507056 
L 248.345146 132.554661 
L 249.311829 132.329898 
L 250.761854 131.972338 
L 253.178562 131.717209 
L 253.903575 131.969073 
L 254.870258 132.668078 
L 255.836942 133.344884 
L 256.320283 133.498546 
L 256.803625 133.481946 
L 257.528638 133.194538 
L 258.736992 132.588771 
L 259.462004 132.461703 
L 260.912029 132.42096 
L 261.395371 132.205672 
L 262.120383 131.559344 
L 263.570408 129.998381 
L 264.05375 129.840805 
L 264.537092 129.976491 
L 265.262104 130.557086 
L 265.987117 131.078996 
L 266.470458 131.100524 
L 266.9538 130.757834 
L 267.437142 130.092205 
L 268.645496 128.119981 
L 269.128838 127.704943 
L 269.612179 127.644082 
L 270.095521 127.876217 
L 271.303875 128.704773 
L 271.787217 128.749858 
L 272.270558 128.546282 
L 272.995571 127.885201 
L 275.170608 125.57064 
L 276.862304 124.178793 
L 277.828987 123.634763 
L 278.554 123.479556 
L 280.245696 123.330479 
L 280.729038 122.999216 
L 281.45405 122.136242 
L 282.904075 120.123753 
L 283.387417 119.740881 
L 283.870758 119.56167 
L 284.837442 119.549854 
L 285.562454 119.479358 
L 286.287467 119.156104 
L 288.462504 117.818801 
L 290.1542 117.202852 
L 290.879212 116.624237 
L 291.845896 115.471324 
L 293.05425 113.968769 
L 293.779263 113.403548 
L 294.504275 113.164572 
L 295.712629 113.138409 
L 296.679312 113.028801 
L 297.887667 112.606038 
L 299.821033 111.750332 
L 303.204425 109.941325 
L 303.929438 109.801412 
L 304.412779 109.958971 
L 304.896121 110.367182 
L 306.587817 112.286136 
L 306.829488 112.301381 
L 307.071158 112.18576 
L 307.5545 111.540445 
L 308.037842 110.402755 
L 309.729537 105.799774 
L 310.212879 105.185734 
L 310.696221 104.975902 
L 311.179563 105.065929 
L 311.904575 105.505056 
L 314.321283 107.243018 
L 315.046296 107.501459 
L 317.221333 107.98487 
L 317.946346 108.638696 
L 319.1547 109.872582 
L 319.638042 110.055911 
L 320.121383 109.910315 
L 320.604725 109.406665 
L 321.088067 108.57598 
L 322.05475 106.258336 
L 324.9548 98.769117 
L 325.921483 96.778151 
L 326.646496 95.658251 
L 327.371508 94.94188 
L 328.338192 94.435088 
L 329.304875 93.911212 
L 331.479913 92.372476 
L 331.963254 92.362996 
L 332.688267 92.590552 
L 333.896621 93.011253 
L 335.346646 93.420971 
L 336.071658 93.952802 
L 336.796671 94.830051 
L 336.796671 94.830051 
" clip-path="url(#pb491012990)" style="fill: none; stroke: #b22222; stroke-linecap: square"/>
   </g>
   <g id="line2d_16">
    <path d="M 94.884167 174.04 
L 94.884167 26.88 
" clip-path="url(#pb491012990)" style="fill: none; stroke-dasharray: 1.85,0.8; stroke-dashoffset: 0; stroke: #000000; stroke-opacity: 0.7; stroke-width: 0.5"/>
   </g>
   <g id="patch_4">
    <path d="M 46.55 174.04 
L 46.55 26.88 
" style="fill: none; stroke: #000000; stroke-width: 0.8; stroke-linejoin: miter; stroke-linecap: square"/>
   </g>
   <g id="patch_5">
    <path d="M 46.55 174.04 
L 336.555 174.04 
" style="fill: none; stroke: #000000; stroke-width: 0.8; stroke-linejoin: miter; stroke-linecap: square"/>
   </g>
   <g id="text_15">
    <!-- Pool: Frontal -->
    <g transform="translate(154.6975 20.88) scale(0.12 -0.12)">
     <defs>
      <path id="DejaVuSans-50" d="M 1259 4147 
L 1259 2394 
L 2053 2394 
Q 2494 2394 2734 2622 
Q 2975 2850 2975 3272 
Q 2975 3691 2734 3919 
Q 2494 4147 2053 4147 
L 1259 4147 
z
M 628 4666 
L 2053 4666 
Q 2838 4666 3239 4311 
Q 3641 3956 3641 3272 
Q 3641 2581 3239 2228 
Q 2838 1875 2053 1875 
L 1259 1875 
L 1259 0 
L 628 0 
L 628 4666 
z
" transform="scale(0.015625)"/>
      <path id="DejaVuSans-6f" d="M 1959 3097 
Q 1497 3097 1228 2736 
Q 959 2375 959 1747 
Q 959 1119 1226 758 
Q 1494 397 1959 397 
Q 2419 397 2687 759 
Q 2956 1122 2956 1747 
Q 2956 2369 2687 2733 
Q 2419 3097 1959 3097 
z
M 1959 3584 
Q 2709 3584 3137 3096 
Q 3566 2609 3566 1747 
Q 3566 888 3137 398 
Q 2709 -91 1959 -91 
Q 1206 -91 779 398 
Q 353 888 353 1747 
Q 353 2609 779 3096 
Q 1206 3584 1959 3584 
z
" transform="scale(0.015625)"/>
      <path id="DejaVuSans-3a" d="M 750 794 
L 1409 794 
L 1409 0 
L 750 0 
L 750 794 
z
M 750 3309 
L 1409 3309 
L 1409 2516 
L 750 2516 
L 750 3309 
z
" transform="scale(0.015625)"/>
      <path id="DejaVuSans-46" d="M 628 4666 
L 3309 4666 
L 3309 4134 
L 1259 4134 
L 1259 2759 
L 3109 2759 
L 3109 2228 
L 1259 2228 
L 1259 0 
L 628 0 
L 628 4666 
z
" transform="scale(0.015625)"/>
      <path id="DejaVuSans-72" d="M 2631 2963 
Q 2534 3019 2420 3045 
Q 2306 3072 2169 3072 
Q 1681 3072 1420 2755 
Q 1159 2438 1159 1844 
L 1159 0 
L 581 0 
L 581 3500 
L 1159 3500 
L 1159 2956 
Q 1341 3275 1631 3429 
Q 1922 3584 2338 3584 
Q 2397 3584 2469 3576 
Q 2541 3569 2628 3553 
L 2631 2963 
z
" transform="scale(0.015625)"/>
      <path id="DejaVuSans-6e" d="M 3513 2113 
L 3513 0 
L 2938 0 
L 2938 2094 
Q 2938 2591 2744 2837 
Q 2550 3084 2163 3084 
Q 1697 3084 1428 2787 
Q 1159 2491 1159 1978 
L 1159 0 
L 581 0 
L 581 3500 
L 1159 3500 
L 1159 2956 
Q 1366 3272 1645 3428 
Q 1925 3584 2291 3584 
Q 2894 3584 3203 3211 
Q 3513 2838 3513 2113 
z
" transform="scale(0.015625)"/>
      <path id="DejaVuSans-61" d="M 2194 1759 
Q 1497 1759 1228 1600 
Q 959 1441 959 1056 
Q 959 750 1161 570 
Q 1363 391 1709 391 
Q 2188 391 2477 730 
Q 2766 1069 2766 1631 
L 2766 1759 
L 2194 1759 
z
M 3341 1997 
L 3341 0 
L 2766 0 
L 2766 531 
Q 2569 213 2275 61 
Q 1981 -91 1556 -91 
Q 1019 -91 701 211 
Q 384 513 384 1019 
Q 384 1609 779 1909 
Q 1175 2209 1959 2209 
L 2766 2209 
L 2766 2266 
Q 2766 2663 2505 2880 
Q 2244 3097 1772 3097 
Q 1472 3097 1187 3025 
Q 903 2953 641 2809 
L 641 3341 
Q 956 3463 1253 3523 
Q 1550 3584 1831 3584 
Q 2591 3584 2966 3190 
Q 3341 2797 3341 1997 
z
" transform="scale(0.015625)"/>
     </defs>
     <use xlink:href="#DejaVuSans-50"/>
     <use xlink:href="#DejaVuSans-6f" x="56.677734"/>
     <use xlink:href="#DejaVuSans-6f" x="117.859375"/>
     <use xlink:href="#DejaVuSans-6c" x="179.041016"/>
     <use xlink:href="#DejaVuSans-3a" x="206.824219"/>
     <use xlink:href="#DejaVuSans-20" x="240.515625"/>
     <use xlink:href="#DejaVuSans-46" x="272.302734"/>
     <use xlink:href="#DejaVuSans-72" x="322.572266"/>
     <use xlink:href="#DejaVuSans-6f" x="361.435547"/>
     <use xlink:href="#DejaVuSans-6e" x="422.617188"/>
     <use xlink:href="#DejaVuSans-74" x="485.996094"/>
     <use xlink:href="#DejaVuSans-61" x="525.205078"/>
     <use xlink:href="#DejaVuSans-6c" x="586.484375"/>
    </g>
   </g>
  </g>
 </g>
 <defs>
  <clipPath id="pb491012990">
   <rect x="46.55" y="26.88" width="290.005" height="147.16"/>
  </clipPath>
 </defs>
</svg>
