<?xml version="1.0" encoding="utf-8" standalone="no"?>
<!DOCTYPE svg PUBLIC "-//W3C//DTD SVG 1.1//EN"
  "http://www.w3.org/Graphics/SVG/1.1/DTD/svg11.dtd">
<svg xmlns:xlink="http://www.w3.org/1999/xlink" width="360pt" height="216pt" viewBox="0 0 360 216" xmlns="http://www.w3.org/2000/svg" version="1.1">
 <metadata>
  <rdf:RDF xmlns:dc="http://purl.org/dc/elements/1.1/" xmlns:cc="http://creativecommons.org/ns#" xmlns:rdf="http://www.w3.org/1999/02/22-rdf-syntax-ns#">
   <cc:Work>
    <dc:type rdf:resource="http://purl.org/dc/dcmitype/StillImage"/>
    <dc:date>2025-07-03T15:01:16.202435</dc:date>
    <dc:format>image/svg+xml</dc:format>
    <dc:creator>
     <cc:Agent>
      <dc:title>Matplotlib v3.9.3, https://matplotlib.org/</dc:title>
     </cc:Agent>
    </dc:creator>
   </cc:Work>
  </rdf:RDF>
 </metadata>
 <defs>
  <style type="text/css">*{stroke-linejoin: round; stroke-linecap: butt}</style>
 </defs>
 <g id="figure_1">
  <g id="patch_1">
   <path d="M 0 216 
L 360 216 
L 360 0 
L 0 0 
z
" style="fill: #ffffff"/>
  </g>
  <g id="axes_1">
   <g id="patch_2">
    <path d="M 46.64 174.04 
L 336.555 174.04 
L 336.555 26.88 
L 46.64 26.88 
z
" style="fill: #ffffff"/>
   </g>
   <g id="patch_3">
    <path d="M 191.5975 174.04 
L 288.235833 174.04 
L 288.235833 26.88 
L 191.5975 26.88 
z
" clip-path="url(#p54c84f1dfa)" style="fill: #d3d3d3; opacity: 0.2; stroke: #000000; stroke-linejoin: miter"/>
   </g>
   <g id="matplotlib.axis_1">
    <g id="xtick_1">
     <g id="line2d_1">
      <defs>
       <path id="mfc34620e0b" d="M 0 0 
L 0 3.5 
" style="stroke: #000000; stroke-width: 0.8"/>
      </defs>
      <g>
       <use xlink:href="#mfc34620e0b" x="46.64" y="174.04" style="stroke: #000000; stroke-width: 0.8"/>
      </g>
     </g>
     <g id="text_1">
      <!-- −200 -->
      <g transform="translate(32.906406 188.638438) scale(0.1 -0.1)">
       <defs>
        <path id="DejaVuSans-2212" d="M 678 2272 
L 4684 2272 
L 4684 1741 
L 678 1741 
L 678 2272 
z
" transform="scale(0.015625)"/>
        <path id="DejaVuSans-32" d="M 1228 531 
L 3431 531 
L 3431 0 
L 469 0 
L 469 531 
Q 828 903 1448 1529 
Q 2069 2156 2228 2338 
Q 2531 2678 2651 2914 
Q 2772 3150 2772 3378 
Q 2772 3750 2511 3984 
Q 2250 4219 1831 4219 
Q 1534 4219 1204 4116 
Q 875 4013 500 3803 
L 500 4441 
Q 881 4594 1212 4672 
Q 1544 4750 1819 4750 
Q 2544 4750 2975 4387 
Q 3406 4025 3406 3419 
Q 3406 3131 3298 2873 
Q 3191 2616 2906 2266 
Q 2828 2175 2409 1742 
Q 1991 1309 1228 531 
z
" transform="scale(0.015625)"/>
        <path id="DejaVuSans-30" d="M 2034 4250 
Q 1547 4250 1301 3770 
Q 1056 3291 1056 2328 
Q 1056 1369 1301 889 
Q 1547 409 2034 409 
Q 2525 409 2770 889 
Q 3016 1369 3016 2328 
Q 3016 3291 2770 3770 
Q 2525 4250 2034 4250 
z
M 2034 4750 
Q 2819 4750 3233 4129 
Q 3647 3509 3647 2328 
Q 3647 1150 3233 529 
Q 2819 -91 2034 -91 
Q 1250 -91 836 529 
Q 422 1150 422 2328 
Q 422 3509 836 4129 
Q 1250 4750 2034 4750 
z
" transform="scale(0.015625)"/>
       </defs>
       <use xlink:href="#DejaVuSans-2212"/>
       <use xlink:href="#DejaVuSans-32" x="83.789062"/>
       <use xlink:href="#DejaVuSans-30" x="147.412109"/>
       <use xlink:href="#DejaVuSans-30" x="211.035156"/>
      </g>
     </g>
    </g>
    <g id="xtick_2">
     <g id="line2d_2">
      <g>
       <use xlink:href="#mfc34620e0b" x="94.959167" y="174.04" style="stroke: #000000; stroke-width: 0.8"/>
      </g>
     </g>
     <g id="text_2">
      <!-- 0 -->
      <g transform="translate(91.777917 188.638438) scale(0.1 -0.1)">
       <use xlink:href="#DejaVuSans-30"/>
      </g>
     </g>
    </g>
    <g id="xtick_3">
     <g id="line2d_3">
      <g>
       <use xlink:href="#mfc34620e0b" x="143.278333" y="174.04" style="stroke: #000000; stroke-width: 0.8"/>
      </g>
     </g>
     <g id="text_3">
      <!-- 200 -->
      <g transform="translate(133.734583 188.638438) scale(0.1 -0.1)">
       <use xlink:href="#DejaVuSans-32"/>
       <use xlink:href="#DejaVuSans-30" x="63.623047"/>
       <use xlink:href="#DejaVuSans-30" x="127.246094"/>
      </g>
     </g>
    </g>
    <g id="xtick_4">
     <g id="line2d_4">
      <g>
       <use xlink:href="#mfc34620e0b" x="191.5975" y="174.04" style="stroke: #000000; stroke-width: 0.8"/>
      </g>
     </g>
     <g id="text_4">
      <!-- 400 -->
      <g transform="translate(182.05375 188.638438) scale(0.1 -0.1)">
       <defs>
        <path id="DejaVuSans-34" d="M 2419 4116 
L 825 1625 
L 2419 1625 
L 2419 4116 
z
M 2253 4666 
L 3047 4666 
L 3047 1625 
L 3713 1625 
L 3713 1100 
L 3047 1100 
L 3047 0 
L 2419 0 
L 2419 1100 
L 313 1100 
L 313 1709 
L 2253 4666 
z
" transform="scale(0.015625)"/>
       </defs>
       <use xlink:href="#DejaVuSans-34"/>
       <use xlink:href="#DejaVuSans-30" x="63.623047"/>
       <use xlink:href="#DejaVuSans-30" x="127.246094"/>
      </g>
     </g>
    </g>
    <g id="xtick_5">
     <g id="line2d_5">
      <g>
       <use xlink:href="#mfc34620e0b" x="239.916667" y="174.04" style="stroke: #000000; stroke-width: 0.8"/>
      </g>
     </g>
     <g id="text_5">
      <!-- 600 -->
      <g transform="translate(230.372917 188.638438) scale(0.1 -0.1)">
       <defs>
        <path id="DejaVuSans-36" d="M 2113 2584 
Q 1688 2584 1439 2293 
Q 1191 2003 1191 1497 
Q 1191 994 1439 701 
Q 1688 409 2113 409 
Q 2538 409 2786 701 
Q 3034 994 3034 1497 
Q 3034 2003 2786 2293 
Q 2538 2584 2113 2584 
z
M 3366 4563 
L 3366 3988 
Q 3128 4100 2886 4159 
Q 2644 4219 2406 4219 
Q 1781 4219 1451 3797 
Q 1122 3375 1075 2522 
Q 1259 2794 1537 2939 
Q 1816 3084 2150 3084 
Q 2853 3084 3261 2657 
Q 3669 2231 3669 1497 
Q 3669 778 3244 343 
Q 2819 -91 2113 -91 
Q 1303 -91 875 529 
Q 447 1150 447 2328 
Q 447 3434 972 4092 
Q 1497 4750 2381 4750 
Q 2619 4750 2861 4703 
Q 3103 4656 3366 4563 
z
" transform="scale(0.015625)"/>
       </defs>
       <use xlink:href="#DejaVuSans-36"/>
       <use xlink:href="#DejaVuSans-30" x="63.623047"/>
       <use xlink:href="#DejaVuSans-30" x="127.246094"/>
      </g>
     </g>
    </g>
    <g id="xtick_6">
     <g id="line2d_6">
      <g>
       <use xlink:href="#mfc34620e0b" x="288.235833" y="174.04" style="stroke: #000000; stroke-width: 0.8"/>
      </g>
     </g>
     <g id="text_6">
      <!-- 800 -->
      <g transform="translate(278.692083 188.638438) scale(0.1 -0.1)">
       <defs>
        <path id="DejaVuSans-38" d="M 2034 2216 
Q 1584 2216 1326 1975 
Q 1069 1734 1069 1313 
Q 1069 891 1326 650 
Q 1584 409 2034 409 
Q 2484 409 2743 651 
Q 3003 894 3003 1313 
Q 3003 1734 2745 1975 
Q 2488 2216 2034 2216 
z
M 1403 2484 
Q 997 2584 770 2862 
Q 544 3141 544 3541 
Q 544 4100 942 4425 
Q 1341 4750 2034 4750 
Q 2731 4750 3128 4425 
Q 3525 4100 3525 3541 
Q 3525 3141 3298 2862 
Q 3072 2584 2669 2484 
Q 3125 2378 3379 2068 
Q 3634 1759 3634 1313 
Q 3634 634 3220 271 
Q 2806 -91 2034 -91 
Q 1263 -91 848 271 
Q 434 634 434 1313 
Q 434 1759 690 2068 
Q 947 2378 1403 2484 
z
M 1172 3481 
Q 1172 3119 1398 2916 
Q 1625 2713 2034 2713 
Q 2441 2713 2670 2916 
Q 2900 3119 2900 3481 
Q 2900 3844 2670 4047 
Q 2441 4250 2034 4250 
Q 1625 4250 1398 4047 
Q 1172 3844 1172 3481 
z
" transform="scale(0.015625)"/>
       </defs>
       <use xlink:href="#DejaVuSans-38"/>
       <use xlink:href="#DejaVuSans-30" x="63.623047"/>
       <use xlink:href="#DejaVuSans-30" x="127.246094"/>
      </g>
     </g>
    </g>
    <g id="xtick_7">
     <g id="line2d_7">
      <g>
       <use xlink:href="#mfc34620e0b" x="336.555" y="174.04" style="stroke: #000000; stroke-width: 0.8"/>
      </g>
     </g>
     <g id="text_7">
      <!-- 1000 -->
      <g transform="translate(323.83 188.638438) scale(0.1 -0.1)">
       <defs>
        <path id="DejaVuSans-31" d="M 794 531 
L 1825 531 
L 1825 4091 
L 703 3866 
L 703 4441 
L 1819 4666 
L 2450 4666 
L 2450 531 
L 3481 531 
L 3481 0 
L 794 0 
L 794 531 
z
" transform="scale(0.015625)"/>
       </defs>
       <use xlink:href="#DejaVuSans-31"/>
       <use xlink:href="#DejaVuSans-30" x="63.623047"/>
       <use xlink:href="#DejaVuSans-30" x="127.246094"/>
       <use xlink:href="#DejaVuSans-30" x="190.869141"/>
      </g>
     </g>
    </g>
    <g id="text_8">
     <!-- Time (ms) -->
     <g transform="translate(166.398281 202.316563) scale(0.1 -0.1)">
      <defs>
       <path id="DejaVuSans-54" d="M -19 4666 
L 3928 4666 
L 3928 4134 
L 2272 4134 
L 2272 0 
L 1638 0 
L 1638 4134 
L -19 4134 
L -19 4666 
z
" transform="scale(0.015625)"/>
       <path id="DejaVuSans-69" d="M 603 3500 
L 1178 3500 
L 1178 0 
L 603 0 
L 603 3500 
z
M 603 4863 
L 1178 4863 
L 1178 4134 
L 603 4134 
L 603 4863 
z
" transform="scale(0.015625)"/>
       <path id="DejaVuSans-6d" d="M 3328 2828 
Q 3544 3216 3844 3400 
Q 4144 3584 4550 3584 
Q 5097 3584 5394 3201 
Q 5691 2819 5691 2113 
L 5691 0 
L 5113 0 
L 5113 2094 
Q 5113 2597 4934 2840 
Q 4756 3084 4391 3084 
Q 3944 3084 3684 2787 
Q 3425 2491 3425 1978 
L 3425 0 
L 2847 0 
L 2847 2094 
Q 2847 2600 2669 2842 
Q 2491 3084 2119 3084 
Q 1678 3084 1418 2786 
Q 1159 2488 1159 1978 
L 1159 0 
L 581 0 
L 581 3500 
L 1159 3500 
L 1159 2956 
Q 1356 3278 1631 3431 
Q 1906 3584 2284 3584 
Q 2666 3584 2933 3390 
Q 3200 3197 3328 2828 
z
" transform="scale(0.015625)"/>
       <path id="DejaVuSans-65" d="M 3597 1894 
L 3597 1613 
L 953 1613 
Q 991 1019 1311 708 
Q 1631 397 2203 397 
Q 2534 397 2845 478 
Q 3156 559 3463 722 
L 3463 178 
Q 3153 47 2828 -22 
Q 2503 -91 2169 -91 
Q 1331 -91 842 396 
Q 353 884 353 1716 
Q 353 2575 817 3079 
Q 1281 3584 2069 3584 
Q 2775 3584 3186 3129 
Q 3597 2675 3597 1894 
z
M 3022 2063 
Q 3016 2534 2758 2815 
Q 2500 3097 2075 3097 
Q 1594 3097 1305 2825 
Q 1016 2553 972 2059 
L 3022 2063 
z
" transform="scale(0.015625)"/>
       <path id="DejaVuSans-20" transform="scale(0.015625)"/>
       <path id="DejaVuSans-28" d="M 1984 4856 
Q 1566 4138 1362 3434 
Q 1159 2731 1159 2009 
Q 1159 1288 1364 580 
Q 1569 -128 1984 -844 
L 1484 -844 
Q 1016 -109 783 600 
Q 550 1309 550 2009 
Q 550 2706 781 3412 
Q 1013 4119 1484 4856 
L 1984 4856 
z
" transform="scale(0.015625)"/>
       <path id="DejaVuSans-73" d="M 2834 3397 
L 2834 2853 
Q 2591 2978 2328 3040 
Q 2066 3103 1784 3103 
Q 1356 3103 1142 2972 
Q 928 2841 928 2578 
Q 928 2378 1081 2264 
Q 1234 2150 1697 2047 
L 1894 2003 
Q 2506 1872 2764 1633 
Q 3022 1394 3022 966 
Q 3022 478 2636 193 
Q 2250 -91 1575 -91 
Q 1294 -91 989 -36 
Q 684 19 347 128 
L 347 722 
Q 666 556 975 473 
Q 1284 391 1588 391 
Q 1994 391 2212 530 
Q 2431 669 2431 922 
Q 2431 1156 2273 1281 
Q 2116 1406 1581 1522 
L 1381 1569 
Q 847 1681 609 1914 
Q 372 2147 372 2553 
Q 372 3047 722 3315 
Q 1072 3584 1716 3584 
Q 2034 3584 2315 3537 
Q 2597 3491 2834 3397 
z
" transform="scale(0.015625)"/>
       <path id="DejaVuSans-29" d="M 513 4856 
L 1013 4856 
Q 1481 4119 1714 3412 
Q 1947 2706 1947 2009 
Q 1947 1309 1714 600 
Q 1481 -109 1013 -844 
L 513 -844 
Q 928 -128 1133 580 
Q 1338 1288 1338 2009 
Q 1338 2731 1133 3434 
Q 928 4138 513 4856 
z
" transform="scale(0.015625)"/>
      </defs>
      <use xlink:href="#DejaVuSans-54"/>
      <use xlink:href="#DejaVuSans-69" x="57.958984"/>
      <use xlink:href="#DejaVuSans-6d" x="85.742188"/>
      <use xlink:href="#DejaVuSans-65" x="183.154297"/>
      <use xlink:href="#DejaVuSans-20" x="244.677734"/>
      <use xlink:href="#DejaVuSans-28" x="276.464844"/>
      <use xlink:href="#DejaVuSans-6d" x="315.478516"/>
      <use xlink:href="#DejaVuSans-73" x="412.890625"/>
      <use xlink:href="#DejaVuSans-29" x="464.990234"/>
     </g>
    </g>
   </g>
   <g id="matplotlib.axis_2">
    <g id="ytick_1">
     <g id="line2d_8">
      <defs>
       <path id="m49fb830485" d="M 0 0 
L -3.5 0 
" style="stroke: #000000; stroke-width: 0.8"/>
      </defs>
      <g>
       <use xlink:href="#m49fb830485" x="46.64" y="166.214647" style="stroke: #000000; stroke-width: 0.8"/>
      </g>
     </g>
     <g id="text_9">
      <!-- −8 -->
      <g transform="translate(24.897813 170.013866) scale(0.1 -0.1)">
       <use xlink:href="#DejaVuSans-2212"/>
       <use xlink:href="#DejaVuSans-38" x="83.789062"/>
      </g>
     </g>
    </g>
    <g id="ytick_2">
     <g id="line2d_9">
      <g>
       <use xlink:href="#m49fb830485" x="46.64" y="144.52009" style="stroke: #000000; stroke-width: 0.8"/>
      </g>
     </g>
     <g id="text_10">
      <!-- −6 -->
      <g transform="translate(24.897813 148.319308) scale(0.1 -0.1)">
       <use xlink:href="#DejaVuSans-2212"/>
       <use xlink:href="#DejaVuSans-36" x="83.789062"/>
      </g>
     </g>
    </g>
    <g id="ytick_3">
     <g id="line2d_10">
      <g>
       <use xlink:href="#m49fb830485" x="46.64" y="122.825532" style="stroke: #000000; stroke-width: 0.8"/>
      </g>
     </g>
     <g id="text_11">
      <!-- −4 -->
      <g transform="translate(24.897813 126.624751) scale(0.1 -0.1)">
       <use xlink:href="#DejaVuSans-2212"/>
       <use xlink:href="#DejaVuSans-34" x="83.789062"/>
      </g>
     </g>
    </g>
    <g id="ytick_4">
     <g id="line2d_11">
      <g>
       <use xlink:href="#m49fb830485" x="46.64" y="101.130975" style="stroke: #000000; stroke-width: 0.8"/>
      </g>
     </g>
     <g id="text_12">
      <!-- −2 -->
      <g transform="translate(24.897813 104.930193) scale(0.1 -0.1)">
       <use xlink:href="#DejaVuSans-2212"/>
       <use xlink:href="#DejaVuSans-32" x="83.789062"/>
      </g>
     </g>
    </g>
    <g id="ytick_5">
     <g id="line2d_12">
      <g>
       <use xlink:href="#m49fb830485" x="46.64" y="79.436417" style="stroke: #000000; stroke-width: 0.8"/>
      </g>
     </g>
     <g id="text_13">
      <!-- 0 -->
      <g transform="translate(33.2775 83.235636) scale(0.1 -0.1)">
       <use xlink:href="#DejaVuSans-30"/>
      </g>
     </g>
    </g>
    <g id="ytick_6">
     <g id="line2d_13">
      <g>
       <use xlink:href="#m49fb830485" x="46.64" y="57.741859" style="stroke: #000000; stroke-width: 0.8"/>
      </g>
     </g>
     <g id="text_14">
      <!-- 2 -->
      <g transform="translate(33.2775 61.541078) scale(0.1 -0.1)">
       <use xlink:href="#DejaVuSans-32"/>
      </g>
     </g>
    </g>
    <g id="ytick_7">
     <g id="line2d_14">
      <g>
       <use xlink:href="#m49fb830485" x="46.64" y="36.047302" style="stroke: #000000; stroke-width: 0.8"/>
      </g>
     </g>
     <g id="text_15">
      <!-- 4 -->
      <g transform="translate(33.2775 39.846521) scale(0.1 -0.1)">
       <use xlink:href="#DejaVuSans-34"/>
      </g>
     </g>
    </g>
    <g id="text_16">
     <!-- Amplitude (μV) -->
     <g transform="translate(18.818125 138.174844) rotate(-90) scale(0.1 -0.1)">
      <defs>
       <path id="DejaVuSans-41" d="M 2188 4044 
L 1331 1722 
L 3047 1722 
L 2188 4044 
z
M 1831 4666 
L 2547 4666 
L 4325 0 
L 3669 0 
L 3244 1197 
L 1141 1197 
L 716 0 
L 50 0 
L 1831 4666 
z
" transform="scale(0.015625)"/>
       <path id="DejaVuSans-70" d="M 1159 525 
L 1159 -1331 
L 581 -1331 
L 581 3500 
L 1159 3500 
L 1159 2969 
Q 1341 3281 1617 3432 
Q 1894 3584 2278 3584 
Q 2916 3584 3314 3078 
Q 3713 2572 3713 1747 
Q 3713 922 3314 415 
Q 2916 -91 2278 -91 
Q 1894 -91 1617 61 
Q 1341 213 1159 525 
z
M 3116 1747 
Q 3116 2381 2855 2742 
Q 2594 3103 2138 3103 
Q 1681 3103 1420 2742 
Q 1159 2381 1159 1747 
Q 1159 1113 1420 752 
Q 1681 391 2138 391 
Q 2594 391 2855 752 
Q 3116 1113 3116 1747 
z
" transform="scale(0.015625)"/>
       <path id="DejaVuSans-6c" d="M 603 4863 
L 1178 4863 
L 1178 0 
L 603 0 
L 603 4863 
z
" transform="scale(0.015625)"/>
       <path id="DejaVuSans-74" d="M 1172 4494 
L 1172 3500 
L 2356 3500 
L 2356 3053 
L 1172 3053 
L 1172 1153 
Q 1172 725 1289 603 
Q 1406 481 1766 481 
L 2356 481 
L 2356 0 
L 1766 0 
Q 1100 0 847 248 
Q 594 497 594 1153 
L 594 3053 
L 172 3053 
L 172 3500 
L 594 3500 
L 594 4494 
L 1172 4494 
z
" transform="scale(0.015625)"/>
       <path id="DejaVuSans-75" d="M 544 1381 
L 544 3500 
L 1119 3500 
L 1119 1403 
Q 1119 906 1312 657 
Q 1506 409 1894 409 
Q 2359 409 2629 706 
Q 2900 1003 2900 1516 
L 2900 3500 
L 3475 3500 
L 3475 0 
L 2900 0 
L 2900 538 
Q 2691 219 2414 64 
Q 2138 -91 1772 -91 
Q 1169 -91 856 284 
Q 544 659 544 1381 
z
M 1991 3584 
L 1991 3584 
z
" transform="scale(0.015625)"/>
       <path id="DejaVuSans-64" d="M 2906 2969 
L 2906 4863 
L 3481 4863 
L 3481 0 
L 2906 0 
L 2906 525 
Q 2725 213 2448 61 
Q 2172 -91 1784 -91 
Q 1150 -91 751 415 
Q 353 922 353 1747 
Q 353 2572 751 3078 
Q 1150 3584 1784 3584 
Q 2172 3584 2448 3432 
Q 2725 3281 2906 2969 
z
M 947 1747 
Q 947 1113 1208 752 
Q 1469 391 1925 391 
Q 2381 391 2643 752 
Q 2906 1113 2906 1747 
Q 2906 2381 2643 2742 
Q 2381 3103 1925 3103 
Q 1469 3103 1208 2742 
Q 947 2381 947 1747 
z
" transform="scale(0.015625)"/>
       <path id="DejaVuSans-3bc" d="M 544 -1331 
L 544 3500 
L 1119 3500 
L 1119 1325 
Q 1119 872 1334 640 
Q 1550 409 1972 409 
Q 2434 409 2667 671 
Q 2900 934 2900 1459 
L 2900 3500 
L 3475 3500 
L 3475 806 
Q 3475 619 3529 530 
Q 3584 441 3700 441 
Q 3728 441 3778 458 
Q 3828 475 3916 513 
L 3916 50 
Q 3788 -22 3673 -56 
Q 3559 -91 3450 -91 
Q 3234 -91 3106 31 
Q 2978 153 2931 403 
Q 2775 156 2548 32 
Q 2322 -91 2016 -91 
Q 1697 -91 1473 31 
Q 1250 153 1119 397 
L 1119 -1331 
L 544 -1331 
z
" transform="scale(0.015625)"/>
       <path id="DejaVuSans-56" d="M 1831 0 
L 50 4666 
L 709 4666 
L 2188 738 
L 3669 4666 
L 4325 4666 
L 2547 0 
L 1831 0 
z
" transform="scale(0.015625)"/>
      </defs>
      <use xlink:href="#DejaVuSans-41"/>
      <use xlink:href="#DejaVuSans-6d" x="68.408203"/>
      <use xlink:href="#DejaVuSans-70" x="165.820312"/>
      <use xlink:href="#DejaVuSans-6c" x="229.296875"/>
      <use xlink:href="#DejaVuSans-69" x="257.080078"/>
      <use xlink:href="#DejaVuSans-74" x="284.863281"/>
      <use xlink:href="#DejaVuSans-75" x="324.072266"/>
      <use xlink:href="#DejaVuSans-64" x="387.451172"/>
      <use xlink:href="#DejaVuSans-65" x="450.927734"/>
      <use xlink:href="#DejaVuSans-20" x="512.451172"/>
      <use xlink:href="#DejaVuSans-28" x="544.238281"/>
      <use xlink:href="#DejaVuSans-3bc" x="583.251953"/>
      <use xlink:href="#DejaVuSans-56" x="646.875"/>
      <use xlink:href="#DejaVuSans-29" x="715.283203"/>
     </g>
    </g>
   </g>
   <g id="line2d_15">
    <path d="M 46.64 88.418557 
L 48.572767 86.362509 
L 49.297554 86.053782 
L 50.263938 86.01029 
L 51.230321 85.977006 
L 52.196704 85.682016 
L 54.129471 84.839292 
L 55.33745 84.741295 
L 56.062238 84.583659 
L 56.787025 84.120095 
L 58.961388 82.157318 
L 59.444579 82.076162 
L 59.927771 82.184784 
L 61.860538 83.050133 
L 62.343729 82.951561 
L 63.310113 82.390011 
L 64.0349 82.055105 
L 64.518092 82.03049 
L 65.242879 82.24952 
L 65.967667 82.458611 
L 66.450858 82.401735 
L 66.93405 82.129384 
L 67.658838 81.413133 
L 68.625221 80.45242 
L 69.108413 80.194515 
L 69.591604 80.119367 
L 71.282775 80.198952 
L 71.765967 79.979059 
L 72.490754 79.357284 
L 74.906712 76.842795 
L 75.6315 76.627685 
L 76.356288 76.70111 
L 78.772246 77.251211 
L 79.738629 77.110183 
L 82.879375 76.348707 
L 83.845758 76.01774 
L 85.053738 75.289332 
L 86.986504 74.112737 
L 87.952888 73.804085 
L 89.160867 73.762775 
L 89.885654 73.679534 
L 90.610442 73.362289 
L 91.576825 72.581357 
L 92.784804 71.584842 
L 93.509592 71.307849 
L 94.234379 71.344421 
L 96.408742 71.8382 
L 97.133529 71.600707 
L 98.583104 71.011084 
L 99.549488 70.972265 
L 100.757467 70.981221 
L 101.482254 70.753755 
L 102.448638 70.12952 
L 105.106192 68.12794 
L 105.830979 67.921711 
L 106.555767 67.987606 
L 107.52215 68.41024 
L 108.488533 68.837028 
L 108.971725 68.846669 
L 109.454917 68.593609 
L 109.938108 68.004221 
L 110.4213 67.055017 
L 111.146088 65.072997 
L 113.078854 59.392686 
L 114.045238 56.789149 
L 114.770025 53.968919 
L 115.494813 49.924676 
L 117.427579 37.746139 
L 117.910771 35.931801 
L 118.393963 34.934791 
L 118.635558 34.742518 
L 118.877154 34.746861 
L 119.11875 34.940006 
L 119.601942 35.866442 
L 120.085133 37.486629 
L 120.568325 39.793824 
L 121.293113 44.547205 
L 122.0179 50.78604 
L 122.984283 61.047342 
L 124.433858 79.124739 
L 127.091413 112.819358 
L 128.540988 128.21795 
L 129.990563 141.240291 
L 131.440138 152.426125 
L 132.648117 160.093985 
L 133.372904 163.535535 
L 134.097692 165.904802 
L 134.580883 166.860155 
L 135.064075 167.312801 
L 135.305671 167.350909 
L 135.547267 167.264093 
L 136.030458 166.717774 
L 136.51365 165.677865 
L 136.996842 164.150155 
L 137.721629 160.976006 
L 138.688013 155.27848 
L 139.895992 146.322262 
L 141.103971 135.56012 
L 142.795142 117.970183 
L 144.486313 100.965178 
L 148.11025 68.022808 
L 149.318229 59.102706 
L 150.284613 53.741446 
L 151.0094 50.862905 
L 151.734188 48.872251 
L 152.458975 47.536425 
L 153.425358 46.32163 
L 154.150146 45.707882 
L 154.633338 45.499161 
L 155.116529 45.511759 
L 155.599721 45.769353 
L 156.324508 46.547576 
L 158.015679 48.685573 
L 158.740467 49.144453 
L 159.465254 49.319672 
L 161.881213 49.516597 
L 162.606 49.278277 
L 164.055575 48.665882 
L 164.538767 48.744413 
L 165.021958 49.051354 
L 165.746746 49.844385 
L 166.954725 51.220912 
L 167.679513 51.686576 
L 169.370683 52.43126 
L 170.095471 53.050208 
L 172.269833 55.148727 
L 174.685792 56.883767 
L 176.376963 58.657024 
L 179.276113 61.843178 
L 180.242496 62.294836 
L 181.208879 62.719652 
L 182.175263 63.443991 
L 183.624838 64.582243 
L 187.731967 66.783307 
L 189.423138 67.24513 
L 190.147925 67.763203 
L 191.355904 69.058962 
L 192.080692 69.744756 
L 192.805479 70.112936 
L 193.530267 70.124278 
L 194.738246 69.715729 
L 195.463033 69.589709 
L 195.946225 69.6941 
L 196.429417 69.9961 
L 197.154204 70.817354 
L 199.086971 73.432352 
L 199.811758 73.845797 
L 200.536546 73.963903 
L 202.227717 74.106148 
L 203.1941 74.536959 
L 205.368463 75.827071 
L 206.09325 76.555259 
L 207.059633 77.896557 
L 208.509208 79.910479 
L 209.475592 80.84956 
L 210.925167 82.214539 
L 211.649954 83.198066 
L 212.616338 84.919774 
L 214.307508 88.127344 
L 215.273892 89.49278 
L 217.931446 92.703586 
L 220.830596 97.439159 
L 222.038575 98.694963 
L 223.729746 100.435839 
L 225.179321 102.280774 
L 226.628896 104.493302 
L 228.078471 106.702128 
L 228.803258 107.399693 
L 229.28645 107.640514 
L 229.769642 107.699194 
L 230.494429 107.527133 
L 231.219217 107.314434 
L 231.702408 107.349676 
L 232.1856 107.626735 
L 232.910388 108.468362 
L 234.118367 110.033317 
L 234.601558 110.339065 
L 235.08475 110.392845 
L 235.809538 110.155855 
L 236.534325 109.919783 
L 237.017517 109.977574 
L 237.500708 110.297141 
L 238.225496 111.227987 
L 239.433475 113.01813 
L 239.916667 113.428999 
L 240.399858 113.575685 
L 241.124646 113.448525 
L 241.849433 113.354721 
L 242.332625 113.56868 
L 242.815817 114.083744 
L 243.7822 115.695777 
L 244.506988 116.760122 
L 244.990179 117.15771 
L 245.473371 117.30422 
L 247.164542 117.440549 
L 247.889329 117.877271 
L 249.5805 119.031396 
L 254.895608 121.692214 
L 255.861992 121.907786 
L 256.586779 121.840606 
L 257.311567 121.575492 
L 258.27795 120.968406 
L 259.727525 119.994017 
L 260.210717 119.876992 
L 260.693908 119.952499 
L 261.1771 120.222426 
L 263.351463 121.905281 
L 264.317846 122.099707 
L 266.009017 122.147415 
L 266.733804 121.972633 
L 267.458592 121.581517 
L 268.908167 120.654341 
L 269.632954 120.488403 
L 270.357742 120.582847 
L 271.324125 120.984334 
L 272.290508 121.610634 
L 273.981679 122.818372 
L 274.464871 122.910167 
L 274.948063 122.795304 
L 275.431254 122.479419 
L 276.156042 121.727505 
L 277.605617 120.06603 
L 278.330404 119.615765 
L 278.813596 119.544369 
L 279.538383 119.684848 
L 280.504767 119.878044 
L 281.229554 119.763368 
L 282.437533 119.231624 
L 285.578279 117.832903 
L 286.303067 117.891903 
L 288.719025 118.547885 
L 289.443813 118.504588 
L 290.1686 118.199789 
L 290.651792 117.77752 
L 291.376579 116.809903 
L 293.06775 114.211443 
L 293.550942 113.835326 
L 294.034133 113.744374 
L 294.517325 113.899917 
L 295.483708 114.398149 
L 295.9669 114.375067 
L 296.450092 113.984604 
L 296.933283 113.208613 
L 298.86605 109.174607 
L 299.349242 108.779797 
L 299.832433 108.725104 
L 300.557221 109.006924 
L 301.282008 109.270898 
L 301.7652 109.261249 
L 302.248392 109.061059 
L 302.973179 108.442337 
L 303.939563 107.255308 
L 305.389138 105.13086 
L 306.597117 103.327821 
L 307.080308 102.868137 
L 307.5635 102.717432 
L 308.046692 102.928066 
L 308.529883 103.467567 
L 310.221054 105.932231 
L 310.704246 106.204648 
L 311.187438 106.177045 
L 311.670629 105.893854 
L 312.395417 105.142497 
L 313.3618 103.765305 
L 314.086588 102.411449 
L 314.811375 100.603135 
L 315.777758 97.376572 
L 317.468929 91.310319 
L 318.193717 89.624018 
L 318.676908 89.032322 
L 318.918504 88.918619 
L 319.1601 88.933105 
L 319.401696 89.078555 
L 319.884888 89.75856 
L 320.368079 90.915413 
L 321.092867 93.319056 
L 323.025633 100.183638 
L 323.750421 101.892981 
L 324.475208 102.938298 
L 324.9584 103.288338 
L 325.441592 103.420814 
L 326.407975 103.357257 
L 327.374358 103.142449 
L 328.099146 102.716376 
L 328.582338 102.185376 
L 329.307125 100.968531 
L 330.273508 98.728297 
L 333.65585 90.174235 
L 335.105425 87.492181 
L 336.555 84.785699 
L 336.796596 84.279137 
L 336.796596 84.279137 
" clip-path="url(#p54c84f1dfa)" style="fill: none; stroke: #000080; stroke-linecap: square"/>
   </g>
   <g id="line2d_16">
    <path d="M 46.64 90.6388 
L 47.123192 90.531974 
L 47.606383 90.213912 
L 48.572767 89.174096 
L 49.53915 88.193993 
L 50.263938 87.775895 
L 52.196704 87.085695 
L 52.921492 86.466304 
L 55.095854 84.345554 
L 56.545429 83.560339 
L 58.961388 82.378565 
L 63.068517 81.22327 
L 64.276496 81.385423 
L 65.484475 81.4862 
L 68.142029 81.500529 
L 68.866817 81.459463 
L 69.350008 81.285143 
L 70.074796 80.728685 
L 72.007563 78.796873 
L 72.73235 78.498135 
L 74.906712 77.923449 
L 75.873096 77.29262 
L 77.805863 75.924122 
L 78.772246 75.581886 
L 79.738629 75.523737 
L 80.946608 75.4694 
L 81.912992 75.153112 
L 83.120971 74.72174 
L 83.845758 74.669254 
L 86.503313 74.799117 
L 89.644058 74.156793 
L 90.368846 73.803662 
L 92.543208 72.495903 
L 93.751188 72.089081 
L 94.234379 71.737776 
L 94.959167 70.861336 
L 96.891933 68.030879 
L 97.375125 67.696544 
L 97.858317 67.592834 
L 98.583104 67.770617 
L 99.791083 68.21682 
L 100.274275 68.207414 
L 100.999063 67.940678 
L 102.207042 67.38639 
L 102.931829 67.310961 
L 104.864596 67.377756 
L 105.830979 67.028757 
L 107.280554 66.441606 
L 108.971725 65.947053 
L 109.696513 65.375347 
L 110.4213 64.349908 
L 111.146088 62.857102 
L 112.354067 59.748544 
L 113.803642 55.503033 
L 114.528429 52.779592 
L 115.253217 49.327437 
L 116.461196 42.213028 
L 117.427579 36.88166 
L 117.910771 35.010327 
L 118.393963 33.914952 
L 118.635558 33.685774 
L 118.877154 33.672856 
L 119.11875 33.874526 
L 119.601942 34.901241 
L 120.085133 36.718571 
L 120.809921 40.831738 
L 121.534708 46.49592 
L 122.501092 56.148527 
L 123.950667 73.560214 
L 126.366625 102.787515 
L 128.299392 123.444831 
L 129.990563 139.2779 
L 131.440138 150.95728 
L 132.406521 157.168856 
L 133.131308 160.632122 
L 133.856096 162.942202 
L 134.339288 163.841426 
L 134.822479 164.245644 
L 135.064075 164.267388 
L 135.547267 163.959113 
L 136.030458 163.195044 
L 136.51365 161.999038 
L 137.238438 159.479163 
L 138.204821 154.974204 
L 139.171204 149.200582 
L 140.137588 141.936106 
L 141.345567 130.797398 
L 143.519929 107.867618 
L 145.935888 83.179486 
L 147.627058 67.811331 
L 148.835038 58.801152 
L 150.043017 51.651719 
L 151.0094 47.002998 
L 151.734188 44.269125 
L 152.458975 42.390443 
L 152.942167 41.636825 
L 153.425358 41.218702 
L 154.150146 40.994685 
L 155.599721 40.971665 
L 156.324508 41.108354 
L 157.049296 41.481171 
L 158.740467 42.551078 
L 159.465254 42.651379 
L 160.673233 42.46146 
L 161.881213 42.354108 
L 162.847596 42.540167 
L 164.055575 43.086855 
L 165.50515 43.733002 
L 166.954725 44.376534 
L 169.129088 45.531728 
L 170.095471 46.032583 
L 170.820258 46.687443 
L 171.786642 47.992409 
L 173.236217 50.041154 
L 173.961004 50.727737 
L 174.685792 51.136319 
L 177.343346 52.226193 
L 180.242496 54.150679 
L 181.450475 54.945821 
L 182.658454 55.729693 
L 183.141646 55.833078 
L 183.866433 55.687228 
L 185.316008 55.144568 
L 185.7992 55.215369 
L 186.282392 55.4973 
L 187.007179 56.260786 
L 188.215158 57.697582 
L 188.69835 58.013815 
L 189.181542 58.086031 
L 189.664733 57.93307 
L 191.5975 56.944939 
L 192.080692 57.072633 
L 192.805479 57.622742 
L 194.738246 59.512132 
L 195.463033 59.859712 
L 196.187821 59.912082 
L 198.603779 59.575792 
L 200.29495 59.722334 
L 201.502929 59.747808 
L 202.227717 59.959682 
L 203.1941 60.544972 
L 204.643675 61.544698 
L 205.610058 61.837871 
L 206.334846 62.061067 
L 206.818038 62.410296 
L 207.301229 63.001128 
L 208.026017 64.270928 
L 209.233996 66.455342 
L 209.958783 67.321564 
L 211.89155 69.16253 
L 214.307508 72.248307 
L 215.757083 73.429119 
L 216.481871 74.448803 
L 218.656233 78.073523 
L 219.139425 78.458946 
L 219.864213 78.707708 
L 221.072192 78.921796 
L 221.796979 79.314348 
L 222.763363 80.222109 
L 224.696129 82.231433 
L 225.662513 82.886564 
L 227.353683 83.734551 
L 228.561663 84.113172 
L 230.011238 84.509156 
L 232.1856 85.412609 
L 234.118367 85.754665 
L 234.843154 86.333688 
L 236.534325 88.032559 
L 237.259113 88.354233 
L 238.225496 88.659048 
L 238.950283 89.194236 
L 241.124646 91.454967 
L 241.607838 91.601244 
L 242.332625 91.512823 
L 243.540604 91.168413 
L 244.023796 91.227041 
L 244.506988 91.490737 
L 245.231775 92.252725 
L 246.68135 94.10509 
L 247.164542 94.474138 
L 247.647733 94.643658 
L 248.372521 94.585721 
L 250.063692 94.15464 
L 250.788479 94.298611 
L 251.513267 94.684857 
L 252.721246 95.645356 
L 254.170821 96.81502 
L 254.895608 97.087613 
L 255.3788 97.073821 
L 256.103588 96.753935 
L 257.311567 95.761248 
L 258.036354 95.312017 
L 258.519546 95.231304 
L 259.002738 95.348793 
L 259.969121 95.952857 
L 260.693908 96.349273 
L 261.418696 96.446536 
L 263.351463 96.232005 
L 264.07625 96.481716 
L 266.250613 97.437895 
L 267.458592 97.896357 
L 268.424975 98.55403 
L 269.87455 99.540422 
L 270.840933 99.863754 
L 271.565721 99.857512 
L 272.7737 99.489922 
L 273.498488 99.398652 
L 274.223275 99.604038 
L 275.189658 100.209979 
L 276.639233 101.139641 
L 277.364021 101.373094 
L 278.088808 101.322431 
L 278.813596 100.982374 
L 280.263171 100.12882 
L 280.987958 100.009433 
L 281.712746 100.178057 
L 284.3703 101.273661 
L 285.095088 101.212637 
L 286.061471 100.888576 
L 288.477429 99.849139 
L 289.443813 99.775949 
L 290.1686 99.941591 
L 290.893388 100.346924 
L 292.826154 101.723215 
L 293.792538 101.889109 
L 294.517325 102.094132 
L 295.000517 102.431589 
L 295.9669 103.502342 
L 296.691688 104.212393 
L 297.174879 104.435735 
L 297.658071 104.420785 
L 298.141263 104.204918 
L 298.86605 103.637518 
L 300.074029 102.360743 
L 301.282008 101.104131 
L 302.006796 100.71467 
L 302.731583 100.678177 
L 303.697967 100.715716 
L 304.181158 100.53085 
L 304.66435 100.137144 
L 305.389138 99.224395 
L 306.597117 97.655074 
L 307.080308 97.363848 
L 307.5635 97.426007 
L 308.046692 97.900778 
L 308.529883 98.785234 
L 309.254671 100.695934 
L 310.46265 104.08729 
L 310.945842 105.027322 
L 311.429033 105.566917 
L 311.912225 105.66938 
L 312.395417 105.340677 
L 312.878608 104.619038 
L 313.603396 102.94392 
L 314.811375 99.264881 
L 316.502546 94.164148 
L 317.468929 91.97908 
L 317.952121 91.294681 
L 318.435313 91.009994 
L 318.676908 91.039223 
L 319.1601 91.450335 
L 319.643292 92.294492 
L 320.368079 94.165859 
L 322.05925 99.599999 
L 323.508825 103.954232 
L 324.233613 105.533059 
L 324.716804 106.23797 
L 325.199996 106.649851 
L 325.683188 106.789893 
L 326.166379 106.68527 
L 326.649571 106.348019 
L 327.132763 105.771578 
L 327.85755 104.44817 
L 328.823933 102.03375 
L 330.031913 99.031329 
L 331.239892 96.775133 
L 332.206275 94.887881 
L 335.347021 88.028988 
L 336.313404 86.232487 
L 336.796596 85.115813 
L 336.796596 85.115813 
" clip-path="url(#p54c84f1dfa)" style="fill: none; stroke: #006400; stroke-linecap: square"/>
   </g>
   <g id="line2d_17">
    <path d="M 46.64 88.992788 
L 47.606383 88.178682 
L 48.331171 87.877006 
L 49.055958 87.84944 
L 50.263938 87.845455 
L 50.988725 87.583034 
L 52.196704 86.770961 
L 53.163088 86.203567 
L 54.129471 85.910743 
L 55.095854 85.622703 
L 55.820642 85.16357 
L 57.028621 83.976511 
L 57.995004 83.093984 
L 59.202983 82.345101 
L 61.13575 81.178098 
L 62.343729 80.546212 
L 63.310113 80.343723 
L 65.001283 80.330724 
L 66.209263 80.2144 
L 67.417242 79.83306 
L 68.383625 79.601243 
L 69.108413 79.712765 
L 70.074796 80.230571 
L 70.799583 80.574821 
L 71.282775 80.627324 
L 72.007563 80.404393 
L 73.457138 79.707681 
L 74.423521 79.584581 
L 75.148308 79.464292 
L 75.873096 79.083288 
L 76.839479 78.170693 
L 78.047458 76.997718 
L 78.772246 76.570019 
L 79.980225 76.226149 
L 80.705013 75.959839 
L 81.4298 75.477488 
L 83.362567 73.97576 
L 84.087354 73.79368 
L 86.503313 73.5013 
L 88.436079 73.171816 
L 90.12725 73.108093 
L 91.093633 73.296786 
L 92.543208 73.710556 
L 93.267996 73.651265 
L 94.234379 73.249986 
L 96.650338 71.883023 
L 98.341508 70.826544 
L 100.515871 69.655495 
L 103.656617 67.639588 
L 107.038958 65.566601 
L 108.005342 65.468599 
L 108.730129 65.393889 
L 109.213321 65.194554 
L 109.696513 64.780502 
L 110.179704 64.100384 
L 110.904492 62.583106 
L 112.837258 57.388908 
L 114.045238 54.065054 
L 114.770025 51.327082 
L 115.494813 47.671764 
L 117.669175 35.588303 
L 118.152367 34.169959 
L 118.635558 33.569091 
L 118.877154 33.582996 
L 119.11875 33.803677 
L 119.601942 34.84879 
L 120.085133 36.678598 
L 120.568325 39.284679 
L 121.293113 44.627387 
L 122.259496 54.085872 
L 123.709071 71.181218 
L 127.333008 114.86605 
L 128.782583 128.895383 
L 130.473754 142.735686 
L 132.406521 156.961828 
L 133.131308 161.1438 
L 133.856096 164.076175 
L 134.339288 165.221727 
L 134.822479 165.69815 
L 135.064075 165.69084 
L 135.305671 165.527104 
L 135.788863 164.76363 
L 136.272054 163.491556 
L 136.996842 160.837733 
L 137.963225 156.240793 
L 138.929608 150.439038 
L 139.895992 143.196268 
L 141.103971 132.217123 
L 147.627058 68.886824 
L 148.835038 59.678453 
L 149.801421 53.676471 
L 150.767804 48.992951 
L 151.734188 45.549128 
L 152.458975 43.654299 
L 153.425358 41.783589 
L 154.391742 40.351303 
L 155.116529 39.539071 
L 155.599721 39.206574 
L 156.082913 39.101284 
L 156.566104 39.238134 
L 157.290892 39.805089 
L 158.982063 41.374444 
L 159.948446 41.92142 
L 161.398021 42.486834 
L 163.089192 42.894979 
L 166.713129 43.630565 
L 167.437917 44.126775 
L 168.4043 45.112713 
L 169.853875 46.650368 
L 171.061854 47.513639 
L 174.927388 49.962412 
L 175.893771 50.939616 
L 178.068133 53.40714 
L 178.792921 53.748887 
L 179.517708 53.782022 
L 180.484092 53.791047 
L 181.208879 54.064524 
L 182.175263 54.7717 
L 183.141646 55.457892 
L 183.866433 55.724204 
L 184.591221 55.755109 
L 186.765583 55.599705 
L 187.731967 55.874369 
L 189.423138 56.438071 
L 190.389521 56.456554 
L 191.355904 56.445242 
L 192.080692 56.686372 
L 193.047075 57.339135 
L 194.013458 57.901102 
L 194.738246 58.008241 
L 196.671013 57.905036 
L 197.3958 58.191662 
L 198.845375 58.855991 
L 199.328567 58.872833 
L 200.053354 58.639475 
L 201.019738 58.259232 
L 201.502929 58.283418 
L 201.986121 58.529301 
L 202.710908 59.244268 
L 204.160483 60.89436 
L 204.885271 61.412433 
L 205.851654 61.767572 
L 206.818038 62.100494 
L 207.542825 62.608022 
L 208.509208 63.668836 
L 211.649954 67.689612 
L 213.341125 70.369986 
L 214.307508 71.358188 
L 215.273892 72.281642 
L 216.240275 73.575642 
L 218.173042 76.345866 
L 220.589 79.176668 
L 221.313788 79.756318 
L 223.729746 81.291111 
L 225.662513 83.022427 
L 227.595279 84.351282 
L 228.803258 85.705782 
L 229.528046 86.406645 
L 230.011238 86.6748 
L 230.736025 86.761742 
L 232.1856 86.674083 
L 232.910388 86.970767 
L 235.08475 88.25073 
L 235.809538 88.209826 
L 237.500708 87.826523 
L 238.225496 88.030243 
L 239.191879 88.683231 
L 240.158263 89.335866 
L 241.124646 89.690128 
L 242.091029 90.053633 
L 242.815817 90.669141 
L 243.540604 91.696433 
L 245.956563 95.736196 
L 246.439754 95.982964 
L 246.922946 95.899475 
L 247.406138 95.537042 
L 249.097308 93.878899 
L 249.5805 93.770689 
L 250.063692 93.919251 
L 250.546883 94.302644 
L 251.513267 95.51777 
L 252.47965 96.72311 
L 253.204438 97.229917 
L 253.687629 97.313232 
L 254.412417 97.113779 
L 255.620396 96.371243 
L 256.586779 95.883896 
L 257.311567 95.803595 
L 258.036354 96.010429 
L 260.210717 96.955384 
L 261.901888 97.141135 
L 262.385079 97.44898 
L 264.07625 98.993112 
L 264.559442 99.010744 
L 265.042633 98.723223 
L 266.492208 97.49913 
L 266.9754 97.530542 
L 267.458592 97.86628 
L 268.424975 99.012689 
L 269.149763 99.767207 
L 269.632954 100.061991 
L 270.116146 100.173629 
L 270.840933 100.074601 
L 272.532104 99.618064 
L 273.256892 99.749884 
L 273.981679 100.183619 
L 275.431254 101.174975 
L 276.156042 101.323188 
L 277.847213 101.413983 
L 279.538383 101.756657 
L 280.504767 101.581849 
L 281.47115 101.398901 
L 282.195938 101.452748 
L 283.162321 101.79595 
L 284.3703 102.222018 
L 285.578279 102.330751 
L 286.786258 102.518029 
L 287.994238 102.715415 
L 288.719025 102.584149 
L 289.443813 102.12566 
L 290.410196 101.053622 
L 291.134983 100.289111 
L 291.618175 100.04982 
L 292.101367 100.135041 
L 292.584558 100.539681 
L 293.550942 101.875146 
L 294.275729 102.801189 
L 295.000517 103.355593 
L 295.483708 103.497146 
L 296.208496 103.412488 
L 296.933283 103.018225 
L 297.658071 102.331966 
L 299.349242 100.397204 
L 299.832433 100.174478 
L 300.315625 100.21714 
L 300.798817 100.48562 
L 302.489988 101.722416 
L 302.973179 101.778883 
L 303.456371 101.585211 
L 303.939563 101.095742 
L 304.422754 100.291392 
L 305.147542 98.587362 
L 306.355521 95.674614 
L 306.838713 95.128092 
L 307.080308 95.087042 
L 307.321904 95.216986 
L 307.805096 95.982976 
L 308.288288 97.314098 
L 309.979458 102.642785 
L 310.46265 103.447605 
L 310.945842 103.828088 
L 311.429033 103.860485 
L 311.912225 103.627917 
L 312.395417 103.179089 
L 313.120204 102.111912 
L 313.844992 100.552564 
L 315.294567 96.56556 
L 316.26095 94.211495 
L 317.468929 91.971187 
L 318.435313 90.491115 
L 318.918504 90.014623 
L 319.401696 89.909575 
L 319.643292 90.041266 
L 320.126483 90.72633 
L 320.609675 91.968523 
L 321.334463 94.618352 
L 322.784038 100.182665 
L 323.508825 102.177076 
L 324.475208 104.164155 
L 325.441592 105.683212 
L 325.924783 106.17768 
L 326.407975 106.372984 
L 326.891167 106.187677 
L 327.374358 105.600741 
L 328.099146 104.105838 
L 329.548721 100.170954 
L 332.206275 92.904108 
L 332.931063 91.566879 
L 333.65585 90.711196 
L 335.830213 88.765254 
L 336.555 87.710195 
L 336.796596 87.2801 
L 336.796596 87.2801 
" clip-path="url(#p54c84f1dfa)" style="fill: none; stroke: #b22222; stroke-linecap: square"/>
   </g>
   <g id="line2d_18">
    <path d="M 94.959167 174.04 
L 94.959167 26.88 
" clip-path="url(#p54c84f1dfa)" style="fill: none; stroke-dasharray: 1.85,0.8; stroke-dashoffset: 0; stroke: #000000; stroke-opacity: 0.7; stroke-width: 0.5"/>
   </g>
   <g id="patch_4">
    <path d="M 46.64 174.04 
L 46.64 26.88 
" style="fill: none; stroke: #000000; stroke-width: 0.8; stroke-linejoin: miter; stroke-linecap: square"/>
   </g>
   <g id="patch_5">
    <path d="M 46.64 174.04 
L 336.555 174.04 
" style="fill: none; stroke: #000000; stroke-width: 0.8; stroke-linejoin: miter; stroke-linecap: square"/>
   </g>
   <g id="text_17">
    <!-- Pool: Occipital -->
    <g transform="translate(149.099688 20.88) scale(0.12 -0.12)">
     <defs>
      <path id="DejaVuSans-50" d="M 1259 4147 
L 1259 2394 
L 2053 2394 
Q 2494 2394 2734 2622 
Q 2975 2850 2975 3272 
Q 2975 3691 2734 3919 
Q 2494 4147 2053 4147 
L 1259 4147 
z
M 628 4666 
L 2053 4666 
Q 2838 4666 3239 4311 
Q 3641 3956 3641 3272 
Q 3641 2581 3239 2228 
Q 2838 1875 2053 1875 
L 1259 1875 
L 1259 0 
L 628 0 
L 628 4666 
z
" transform="scale(0.015625)"/>
      <path id="DejaVuSans-6f" d="M 1959 3097 
Q 1497 3097 1228 2736 
Q 959 2375 959 1747 
Q 959 1119 1226 758 
Q 1494 397 1959 397 
Q 2419 397 2687 759 
Q 2956 1122 2956 1747 
Q 2956 2369 2687 2733 
Q 2419 3097 1959 3097 
z
M 1959 3584 
Q 2709 3584 3137 3096 
Q 3566 2609 3566 1747 
Q 3566 888 3137 398 
Q 2709 -91 1959 -91 
Q 1206 -91 779 398 
Q 353 888 353 1747 
Q 353 2609 779 3096 
Q 1206 3584 1959 3584 
z
" transform="scale(0.015625)"/>
      <path id="DejaVuSans-3a" d="M 750 794 
L 1409 794 
L 1409 0 
L 750 0 
L 750 794 
z
M 750 3309 
L 1409 3309 
L 1409 2516 
L 750 2516 
L 750 3309 
z
" transform="scale(0.015625)"/>
      <path id="DejaVuSans-4f" d="M 2522 4238 
Q 1834 4238 1429 3725 
Q 1025 3213 1025 2328 
Q 1025 1447 1429 934 
Q 1834 422 2522 422 
Q 3209 422 3611 934 
Q 4013 1447 4013 2328 
Q 4013 3213 3611 3725 
Q 3209 4238 2522 4238 
z
M 2522 4750 
Q 3503 4750 4090 4092 
Q 4678 3434 4678 2328 
Q 4678 1225 4090 567 
Q 3503 -91 2522 -91 
Q 1538 -91 948 565 
Q 359 1222 359 2328 
Q 359 3434 948 4092 
Q 1538 4750 2522 4750 
z
" transform="scale(0.015625)"/>
      <path id="DejaVuSans-63" d="M 3122 3366 
L 3122 2828 
Q 2878 2963 2633 3030 
Q 2388 3097 2138 3097 
Q 1578 3097 1268 2742 
Q 959 2388 959 1747 
Q 959 1106 1268 751 
Q 1578 397 2138 397 
Q 2388 397 2633 464 
Q 2878 531 3122 666 
L 3122 134 
Q 2881 22 2623 -34 
Q 2366 -91 2075 -91 
Q 1284 -91 818 406 
Q 353 903 353 1747 
Q 353 2603 823 3093 
Q 1294 3584 2113 3584 
Q 2378 3584 2631 3529 
Q 2884 3475 3122 3366 
z
" transform="scale(0.015625)"/>
      <path id="DejaVuSans-61" d="M 2194 1759 
Q 1497 1759 1228 1600 
Q 959 1441 959 1056 
Q 959 750 1161 570 
Q 1363 391 1709 391 
Q 2188 391 2477 730 
Q 2766 1069 2766 1631 
L 2766 1759 
L 2194 1759 
z
M 3341 1997 
L 3341 0 
L 2766 0 
L 2766 531 
Q 2569 213 2275 61 
Q 1981 -91 1556 -91 
Q 1019 -91 701 211 
Q 384 513 384 1019 
Q 384 1609 779 1909 
Q 1175 2209 1959 2209 
L 2766 2209 
L 2766 2266 
Q 2766 2663 2505 2880 
Q 2244 3097 1772 3097 
Q 1472 3097 1187 3025 
Q 903 2953 641 2809 
L 641 3341 
Q 956 3463 1253 3523 
Q 1550 3584 1831 3584 
Q 2591 3584 2966 3190 
Q 3341 2797 3341 1997 
z
" transform="scale(0.015625)"/>
     </defs>
     <use xlink:href="#DejaVuSans-50"/>
     <use xlink:href="#DejaVuSans-6f" x="56.677734"/>
     <use xlink:href="#DejaVuSans-6f" x="117.859375"/>
     <use xlink:href="#DejaVuSans-6c" x="179.041016"/>
     <use xlink:href="#DejaVuSans-3a" x="206.824219"/>
     <use xlink:href="#DejaVuSans-20" x="240.515625"/>
     <use xlink:href="#DejaVuSans-4f" x="272.302734"/>
     <use xlink:href="#DejaVuSans-63" x="351.013672"/>
     <use xlink:href="#DejaVuSans-63" x="405.994141"/>
     <use xlink:href="#DejaVuSans-69" x="460.974609"/>
     <use xlink:href="#DejaVuSans-70" x="488.757812"/>
     <use xlink:href="#DejaVuSans-69" x="552.234375"/>
     <use xlink:href="#DejaVuSans-74" x="580.017578"/>
     <use xlink:href="#DejaVuSans-61" x="619.226562"/>
     <use xlink:href="#DejaVuSans-6c" x="680.505859"/>
    </g>
   </g>
  </g>
 </g>
 <defs>
  <clipPath id="p54c84f1dfa">
   <rect x="46.64" y="26.88" width="289.915" height="147.16"/>
  </clipPath>
 </defs>
</svg>
