<?xml version="1.0" encoding="utf-8" standalone="no"?>
<!DOCTYPE svg PUBLIC "-//W3C//DTD SVG 1.1//EN"
  "http://www.w3.org/Graphics/SVG/1.1/DTD/svg11.dtd">
<svg xmlns:xlink="http://www.w3.org/1999/xlink" width="360pt" height="216pt" viewBox="0 0 360 216" xmlns="http://www.w3.org/2000/svg" version="1.1">
 <metadata>
  <rdf:RDF xmlns:dc="http://purl.org/dc/elements/1.1/" xmlns:cc="http://creativecommons.org/ns#" xmlns:rdf="http://www.w3.org/1999/02/22-rdf-syntax-ns#">
   <cc:Work>
    <dc:type rdf:resource="http://purl.org/dc/dcmitype/StillImage"/>
    <dc:date>2025-07-03T15:01:16.118433</dc:date>
    <dc:format>image/svg+xml</dc:format>
    <dc:creator>
     <cc:Agent>
      <dc:title>Matplotlib v3.9.3, https://matplotlib.org/</dc:title>
     </cc:Agent>
    </dc:creator>
   </cc:Work>
  </rdf:RDF>
 </metadata>
 <defs>
  <style type="text/css">*{stroke-linejoin: round; stroke-linecap: butt}</style>
 </defs>
 <g id="figure_1">
  <g id="patch_1">
   <path d="M 0 216 
L 360 216 
L 360 0 
L 0 0 
z
" style="fill: #ffffff"/>
  </g>
  <g id="axes_1">
   <g id="patch_2">
    <path d="M 46.64 174.04 
L 336.555 174.04 
L 336.555 26.88 
L 46.64 26.88 
z
" style="fill: #ffffff"/>
   </g>
   <g id="patch_3">
    <path d="M 191.5975 174.04 
L 288.235833 174.04 
L 288.235833 26.88 
L 191.5975 26.88 
z
" clip-path="url(#p866cdad098)" style="fill: #d3d3d3; opacity: 0.2; stroke: #000000; stroke-linejoin: miter"/>
   </g>
   <g id="matplotlib.axis_1">
    <g id="xtick_1">
     <g id="line2d_1">
      <defs>
       <path id="m42f8888aed" d="M 0 0 
L 0 3.5 
" style="stroke: #000000; stroke-width: 0.8"/>
      </defs>
      <g>
       <use xlink:href="#m42f8888aed" x="46.64" y="174.04" style="stroke: #000000; stroke-width: 0.8"/>
      </g>
     </g>
     <g id="text_1">
      <!-- −200 -->
      <g transform="translate(32.906406 188.638438) scale(0.1 -0.1)">
       <defs>
        <path id="DejaVuSans-2212" d="M 678 2272 
L 4684 2272 
L 4684 1741 
L 678 1741 
L 678 2272 
z
" transform="scale(0.015625)"/>
        <path id="DejaVuSans-32" d="M 1228 531 
L 3431 531 
L 3431 0 
L 469 0 
L 469 531 
Q 828 903 1448 1529 
Q 2069 2156 2228 2338 
Q 2531 2678 2651 2914 
Q 2772 3150 2772 3378 
Q 2772 3750 2511 3984 
Q 2250 4219 1831 4219 
Q 1534 4219 1204 4116 
Q 875 4013 500 3803 
L 500 4441 
Q 881 4594 1212 4672 
Q 1544 4750 1819 4750 
Q 2544 4750 2975 4387 
Q 3406 4025 3406 3419 
Q 3406 3131 3298 2873 
Q 3191 2616 2906 2266 
Q 2828 2175 2409 1742 
Q 1991 1309 1228 531 
z
" transform="scale(0.015625)"/>
        <path id="DejaVuSans-30" d="M 2034 4250 
Q 1547 4250 1301 3770 
Q 1056 3291 1056 2328 
Q 1056 1369 1301 889 
Q 1547 409 2034 409 
Q 2525 409 2770 889 
Q 3016 1369 3016 2328 
Q 3016 3291 2770 3770 
Q 2525 4250 2034 4250 
z
M 2034 4750 
Q 2819 4750 3233 4129 
Q 3647 3509 3647 2328 
Q 3647 1150 3233 529 
Q 2819 -91 2034 -91 
Q 1250 -91 836 529 
Q 422 1150 422 2328 
Q 422 3509 836 4129 
Q 1250 4750 2034 4750 
z
" transform="scale(0.015625)"/>
       </defs>
       <use xlink:href="#DejaVuSans-2212"/>
       <use xlink:href="#DejaVuSans-32" x="83.789062"/>
       <use xlink:href="#DejaVuSans-30" x="147.412109"/>
       <use xlink:href="#DejaVuSans-30" x="211.035156"/>
      </g>
     </g>
    </g>
    <g id="xtick_2">
     <g id="line2d_2">
      <g>
       <use xlink:href="#m42f8888aed" x="94.959167" y="174.04" style="stroke: #000000; stroke-width: 0.8"/>
      </g>
     </g>
     <g id="text_2">
      <!-- 0 -->
      <g transform="translate(91.777917 188.638438) scale(0.1 -0.1)">
       <use xlink:href="#DejaVuSans-30"/>
      </g>
     </g>
    </g>
    <g id="xtick_3">
     <g id="line2d_3">
      <g>
       <use xlink:href="#m42f8888aed" x="143.278333" y="174.04" style="stroke: #000000; stroke-width: 0.8"/>
      </g>
     </g>
     <g id="text_3">
      <!-- 200 -->
      <g transform="translate(133.734583 188.638438) scale(0.1 -0.1)">
       <use xlink:href="#DejaVuSans-32"/>
       <use xlink:href="#DejaVuSans-30" x="63.623047"/>
       <use xlink:href="#DejaVuSans-30" x="127.246094"/>
      </g>
     </g>
    </g>
    <g id="xtick_4">
     <g id="line2d_4">
      <g>
       <use xlink:href="#m42f8888aed" x="191.5975" y="174.04" style="stroke: #000000; stroke-width: 0.8"/>
      </g>
     </g>
     <g id="text_4">
      <!-- 400 -->
      <g transform="translate(182.05375 188.638438) scale(0.1 -0.1)">
       <defs>
        <path id="DejaVuSans-34" d="M 2419 4116 
L 825 1625 
L 2419 1625 
L 2419 4116 
z
M 2253 4666 
L 3047 4666 
L 3047 1625 
L 3713 1625 
L 3713 1100 
L 3047 1100 
L 3047 0 
L 2419 0 
L 2419 1100 
L 313 1100 
L 313 1709 
L 2253 4666 
z
" transform="scale(0.015625)"/>
       </defs>
       <use xlink:href="#DejaVuSans-34"/>
       <use xlink:href="#DejaVuSans-30" x="63.623047"/>
       <use xlink:href="#DejaVuSans-30" x="127.246094"/>
      </g>
     </g>
    </g>
    <g id="xtick_5">
     <g id="line2d_5">
      <g>
       <use xlink:href="#m42f8888aed" x="239.916667" y="174.04" style="stroke: #000000; stroke-width: 0.8"/>
      </g>
     </g>
     <g id="text_5">
      <!-- 600 -->
      <g transform="translate(230.372917 188.638438) scale(0.1 -0.1)">
       <defs>
        <path id="DejaVuSans-36" d="M 2113 2584 
Q 1688 2584 1439 2293 
Q 1191 2003 1191 1497 
Q 1191 994 1439 701 
Q 1688 409 2113 409 
Q 2538 409 2786 701 
Q 3034 994 3034 1497 
Q 3034 2003 2786 2293 
Q 2538 2584 2113 2584 
z
M 3366 4563 
L 3366 3988 
Q 3128 4100 2886 4159 
Q 2644 4219 2406 4219 
Q 1781 4219 1451 3797 
Q 1122 3375 1075 2522 
Q 1259 2794 1537 2939 
Q 1816 3084 2150 3084 
Q 2853 3084 3261 2657 
Q 3669 2231 3669 1497 
Q 3669 778 3244 343 
Q 2819 -91 2113 -91 
Q 1303 -91 875 529 
Q 447 1150 447 2328 
Q 447 3434 972 4092 
Q 1497 4750 2381 4750 
Q 2619 4750 2861 4703 
Q 3103 4656 3366 4563 
z
" transform="scale(0.015625)"/>
       </defs>
       <use xlink:href="#DejaVuSans-36"/>
       <use xlink:href="#DejaVuSans-30" x="63.623047"/>
       <use xlink:href="#DejaVuSans-30" x="127.246094"/>
      </g>
     </g>
    </g>
    <g id="xtick_6">
     <g id="line2d_6">
      <g>
       <use xlink:href="#m42f8888aed" x="288.235833" y="174.04" style="stroke: #000000; stroke-width: 0.8"/>
      </g>
     </g>
     <g id="text_6">
      <!-- 800 -->
      <g transform="translate(278.692083 188.638438) scale(0.1 -0.1)">
       <defs>
        <path id="DejaVuSans-38" d="M 2034 2216 
Q 1584 2216 1326 1975 
Q 1069 1734 1069 1313 
Q 1069 891 1326 650 
Q 1584 409 2034 409 
Q 2484 409 2743 651 
Q 3003 894 3003 1313 
Q 3003 1734 2745 1975 
Q 2488 2216 2034 2216 
z
M 1403 2484 
Q 997 2584 770 2862 
Q 544 3141 544 3541 
Q 544 4100 942 4425 
Q 1341 4750 2034 4750 
Q 2731 4750 3128 4425 
Q 3525 4100 3525 3541 
Q 3525 3141 3298 2862 
Q 3072 2584 2669 2484 
Q 3125 2378 3379 2068 
Q 3634 1759 3634 1313 
Q 3634 634 3220 271 
Q 2806 -91 2034 -91 
Q 1263 -91 848 271 
Q 434 634 434 1313 
Q 434 1759 690 2068 
Q 947 2378 1403 2484 
z
M 1172 3481 
Q 1172 3119 1398 2916 
Q 1625 2713 2034 2713 
Q 2441 2713 2670 2916 
Q 2900 3119 2900 3481 
Q 2900 3844 2670 4047 
Q 2441 4250 2034 4250 
Q 1625 4250 1398 4047 
Q 1172 3844 1172 3481 
z
" transform="scale(0.015625)"/>
       </defs>
       <use xlink:href="#DejaVuSans-38"/>
       <use xlink:href="#DejaVuSans-30" x="63.623047"/>
       <use xlink:href="#DejaVuSans-30" x="127.246094"/>
      </g>
     </g>
    </g>
    <g id="xtick_7">
     <g id="line2d_7">
      <g>
       <use xlink:href="#m42f8888aed" x="336.555" y="174.04" style="stroke: #000000; stroke-width: 0.8"/>
      </g>
     </g>
     <g id="text_7">
      <!-- 1000 -->
      <g transform="translate(323.83 188.638438) scale(0.1 -0.1)">
       <defs>
        <path id="DejaVuSans-31" d="M 794 531 
L 1825 531 
L 1825 4091 
L 703 3866 
L 703 4441 
L 1819 4666 
L 2450 4666 
L 2450 531 
L 3481 531 
L 3481 0 
L 794 0 
L 794 531 
z
" transform="scale(0.015625)"/>
       </defs>
       <use xlink:href="#DejaVuSans-31"/>
       <use xlink:href="#DejaVuSans-30" x="63.623047"/>
       <use xlink:href="#DejaVuSans-30" x="127.246094"/>
       <use xlink:href="#DejaVuSans-30" x="190.869141"/>
      </g>
     </g>
    </g>
    <g id="text_8">
     <!-- Time (ms) -->
     <g transform="translate(166.398281 202.316563) scale(0.1 -0.1)">
      <defs>
       <path id="DejaVuSans-54" d="M -19 4666 
L 3928 4666 
L 3928 4134 
L 2272 4134 
L 2272 0 
L 1638 0 
L 1638 4134 
L -19 4134 
L -19 4666 
z
" transform="scale(0.015625)"/>
       <path id="DejaVuSans-69" d="M 603 3500 
L 1178 3500 
L 1178 0 
L 603 0 
L 603 3500 
z
M 603 4863 
L 1178 4863 
L 1178 4134 
L 603 4134 
L 603 4863 
z
" transform="scale(0.015625)"/>
       <path id="DejaVuSans-6d" d="M 3328 2828 
Q 3544 3216 3844 3400 
Q 4144 3584 4550 3584 
Q 5097 3584 5394 3201 
Q 5691 2819 5691 2113 
L 5691 0 
L 5113 0 
L 5113 2094 
Q 5113 2597 4934 2840 
Q 4756 3084 4391 3084 
Q 3944 3084 3684 2787 
Q 3425 2491 3425 1978 
L 3425 0 
L 2847 0 
L 2847 2094 
Q 2847 2600 2669 2842 
Q 2491 3084 2119 3084 
Q 1678 3084 1418 2786 
Q 1159 2488 1159 1978 
L 1159 0 
L 581 0 
L 581 3500 
L 1159 3500 
L 1159 2956 
Q 1356 3278 1631 3431 
Q 1906 3584 2284 3584 
Q 2666 3584 2933 3390 
Q 3200 3197 3328 2828 
z
" transform="scale(0.015625)"/>
       <path id="DejaVuSans-65" d="M 3597 1894 
L 3597 1613 
L 953 1613 
Q 991 1019 1311 708 
Q 1631 397 2203 397 
Q 2534 397 2845 478 
Q 3156 559 3463 722 
L 3463 178 
Q 3153 47 2828 -22 
Q 2503 -91 2169 -91 
Q 1331 -91 842 396 
Q 353 884 353 1716 
Q 353 2575 817 3079 
Q 1281 3584 2069 3584 
Q 2775 3584 3186 3129 
Q 3597 2675 3597 1894 
z
M 3022 2063 
Q 3016 2534 2758 2815 
Q 2500 3097 2075 3097 
Q 1594 3097 1305 2825 
Q 1016 2553 972 2059 
L 3022 2063 
z
" transform="scale(0.015625)"/>
       <path id="DejaVuSans-20" transform="scale(0.015625)"/>
       <path id="DejaVuSans-28" d="M 1984 4856 
Q 1566 4138 1362 3434 
Q 1159 2731 1159 2009 
Q 1159 1288 1364 580 
Q 1569 -128 1984 -844 
L 1484 -844 
Q 1016 -109 783 600 
Q 550 1309 550 2009 
Q 550 2706 781 3412 
Q 1013 4119 1484 4856 
L 1984 4856 
z
" transform="scale(0.015625)"/>
       <path id="DejaVuSans-73" d="M 2834 3397 
L 2834 2853 
Q 2591 2978 2328 3040 
Q 2066 3103 1784 3103 
Q 1356 3103 1142 2972 
Q 928 2841 928 2578 
Q 928 2378 1081 2264 
Q 1234 2150 1697 2047 
L 1894 2003 
Q 2506 1872 2764 1633 
Q 3022 1394 3022 966 
Q 3022 478 2636 193 
Q 2250 -91 1575 -91 
Q 1294 -91 989 -36 
Q 684 19 347 128 
L 347 722 
Q 666 556 975 473 
Q 1284 391 1588 391 
Q 1994 391 2212 530 
Q 2431 669 2431 922 
Q 2431 1156 2273 1281 
Q 2116 1406 1581 1522 
L 1381 1569 
Q 847 1681 609 1914 
Q 372 2147 372 2553 
Q 372 3047 722 3315 
Q 1072 3584 1716 3584 
Q 2034 3584 2315 3537 
Q 2597 3491 2834 3397 
z
" transform="scale(0.015625)"/>
       <path id="DejaVuSans-29" d="M 513 4856 
L 1013 4856 
Q 1481 4119 1714 3412 
Q 1947 2706 1947 2009 
Q 1947 1309 1714 600 
Q 1481 -109 1013 -844 
L 513 -844 
Q 928 -128 1133 580 
Q 1338 1288 1338 2009 
Q 1338 2731 1133 3434 
Q 928 4138 513 4856 
z
" transform="scale(0.015625)"/>
      </defs>
      <use xlink:href="#DejaVuSans-54"/>
      <use xlink:href="#DejaVuSans-69" x="57.958984"/>
      <use xlink:href="#DejaVuSans-6d" x="85.742188"/>
      <use xlink:href="#DejaVuSans-65" x="183.154297"/>
      <use xlink:href="#DejaVuSans-20" x="244.677734"/>
      <use xlink:href="#DejaVuSans-28" x="276.464844"/>
      <use xlink:href="#DejaVuSans-6d" x="315.478516"/>
      <use xlink:href="#DejaVuSans-73" x="412.890625"/>
      <use xlink:href="#DejaVuSans-29" x="464.990234"/>
     </g>
    </g>
   </g>
   <g id="matplotlib.axis_2">
    <g id="ytick_1">
     <g id="line2d_8">
      <defs>
       <path id="m807a7605a5" d="M 0 0 
L -3.5 0 
" style="stroke: #000000; stroke-width: 0.8"/>
      </defs>
      <g>
       <use xlink:href="#m807a7605a5" x="46.64" y="155.988411" style="stroke: #000000; stroke-width: 0.8"/>
      </g>
     </g>
     <g id="text_9">
      <!-- −2 -->
      <g transform="translate(24.897813 159.78763) scale(0.1 -0.1)">
       <use xlink:href="#DejaVuSans-2212"/>
       <use xlink:href="#DejaVuSans-32" x="83.789062"/>
      </g>
     </g>
    </g>
    <g id="ytick_2">
     <g id="line2d_9">
      <g>
       <use xlink:href="#m807a7605a5" x="46.64" y="133.755514" style="stroke: #000000; stroke-width: 0.8"/>
      </g>
     </g>
     <g id="text_10">
      <!-- −1 -->
      <g transform="translate(24.897813 137.554733) scale(0.1 -0.1)">
       <use xlink:href="#DejaVuSans-2212"/>
       <use xlink:href="#DejaVuSans-31" x="83.789062"/>
      </g>
     </g>
    </g>
    <g id="ytick_3">
     <g id="line2d_10">
      <g>
       <use xlink:href="#m807a7605a5" x="46.64" y="111.522617" style="stroke: #000000; stroke-width: 0.8"/>
      </g>
     </g>
     <g id="text_11">
      <!-- 0 -->
      <g transform="translate(33.2775 115.321836) scale(0.1 -0.1)">
       <use xlink:href="#DejaVuSans-30"/>
      </g>
     </g>
    </g>
    <g id="ytick_4">
     <g id="line2d_11">
      <g>
       <use xlink:href="#m807a7605a5" x="46.64" y="89.28972" style="stroke: #000000; stroke-width: 0.8"/>
      </g>
     </g>
     <g id="text_12">
      <!-- 1 -->
      <g transform="translate(33.2775 93.088939) scale(0.1 -0.1)">
       <use xlink:href="#DejaVuSans-31"/>
      </g>
     </g>
    </g>
    <g id="ytick_5">
     <g id="line2d_12">
      <g>
       <use xlink:href="#m807a7605a5" x="46.64" y="67.056824" style="stroke: #000000; stroke-width: 0.8"/>
      </g>
     </g>
     <g id="text_13">
      <!-- 2 -->
      <g transform="translate(33.2775 70.856042) scale(0.1 -0.1)">
       <use xlink:href="#DejaVuSans-32"/>
      </g>
     </g>
    </g>
    <g id="ytick_6">
     <g id="line2d_13">
      <g>
       <use xlink:href="#m807a7605a5" x="46.64" y="44.823927" style="stroke: #000000; stroke-width: 0.8"/>
      </g>
     </g>
     <g id="text_14">
      <!-- 3 -->
      <g transform="translate(33.2775 48.623145) scale(0.1 -0.1)">
       <defs>
        <path id="DejaVuSans-33" d="M 2597 2516 
Q 3050 2419 3304 2112 
Q 3559 1806 3559 1356 
Q 3559 666 3084 287 
Q 2609 -91 1734 -91 
Q 1441 -91 1130 -33 
Q 819 25 488 141 
L 488 750 
Q 750 597 1062 519 
Q 1375 441 1716 441 
Q 2309 441 2620 675 
Q 2931 909 2931 1356 
Q 2931 1769 2642 2001 
Q 2353 2234 1838 2234 
L 1294 2234 
L 1294 2753 
L 1863 2753 
Q 2328 2753 2575 2939 
Q 2822 3125 2822 3475 
Q 2822 3834 2567 4026 
Q 2313 4219 1838 4219 
Q 1578 4219 1281 4162 
Q 984 4106 628 3988 
L 628 4550 
Q 988 4650 1302 4700 
Q 1616 4750 1894 4750 
Q 2613 4750 3031 4423 
Q 3450 4097 3450 3541 
Q 3450 3153 3228 2886 
Q 3006 2619 2597 2516 
z
" transform="scale(0.015625)"/>
       </defs>
       <use xlink:href="#DejaVuSans-33"/>
      </g>
     </g>
    </g>
    <g id="text_15">
     <!-- Amplitude (μV) -->
     <g transform="translate(18.818125 138.174844) rotate(-90) scale(0.1 -0.1)">
      <defs>
       <path id="DejaVuSans-41" d="M 2188 4044 
L 1331 1722 
L 3047 1722 
L 2188 4044 
z
M 1831 4666 
L 2547 4666 
L 4325 0 
L 3669 0 
L 3244 1197 
L 1141 1197 
L 716 0 
L 50 0 
L 1831 4666 
z
" transform="scale(0.015625)"/>
       <path id="DejaVuSans-70" d="M 1159 525 
L 1159 -1331 
L 581 -1331 
L 581 3500 
L 1159 3500 
L 1159 2969 
Q 1341 3281 1617 3432 
Q 1894 3584 2278 3584 
Q 2916 3584 3314 3078 
Q 3713 2572 3713 1747 
Q 3713 922 3314 415 
Q 2916 -91 2278 -91 
Q 1894 -91 1617 61 
Q 1341 213 1159 525 
z
M 3116 1747 
Q 3116 2381 2855 2742 
Q 2594 3103 2138 3103 
Q 1681 3103 1420 2742 
Q 1159 2381 1159 1747 
Q 1159 1113 1420 752 
Q 1681 391 2138 391 
Q 2594 391 2855 752 
Q 3116 1113 3116 1747 
z
" transform="scale(0.015625)"/>
       <path id="DejaVuSans-6c" d="M 603 4863 
L 1178 4863 
L 1178 0 
L 603 0 
L 603 4863 
z
" transform="scale(0.015625)"/>
       <path id="DejaVuSans-74" d="M 1172 4494 
L 1172 3500 
L 2356 3500 
L 2356 3053 
L 1172 3053 
L 1172 1153 
Q 1172 725 1289 603 
Q 1406 481 1766 481 
L 2356 481 
L 2356 0 
L 1766 0 
Q 1100 0 847 248 
Q 594 497 594 1153 
L 594 3053 
L 172 3053 
L 172 3500 
L 594 3500 
L 594 4494 
L 1172 4494 
z
" transform="scale(0.015625)"/>
       <path id="DejaVuSans-75" d="M 544 1381 
L 544 3500 
L 1119 3500 
L 1119 1403 
Q 1119 906 1312 657 
Q 1506 409 1894 409 
Q 2359 409 2629 706 
Q 2900 1003 2900 1516 
L 2900 3500 
L 3475 3500 
L 3475 0 
L 2900 0 
L 2900 538 
Q 2691 219 2414 64 
Q 2138 -91 1772 -91 
Q 1169 -91 856 284 
Q 544 659 544 1381 
z
M 1991 3584 
L 1991 3584 
z
" transform="scale(0.015625)"/>
       <path id="DejaVuSans-64" d="M 2906 2969 
L 2906 4863 
L 3481 4863 
L 3481 0 
L 2906 0 
L 2906 525 
Q 2725 213 2448 61 
Q 2172 -91 1784 -91 
Q 1150 -91 751 415 
Q 353 922 353 1747 
Q 353 2572 751 3078 
Q 1150 3584 1784 3584 
Q 2172 3584 2448 3432 
Q 2725 3281 2906 2969 
z
M 947 1747 
Q 947 1113 1208 752 
Q 1469 391 1925 391 
Q 2381 391 2643 752 
Q 2906 1113 2906 1747 
Q 2906 2381 2643 2742 
Q 2381 3103 1925 3103 
Q 1469 3103 1208 2742 
Q 947 2381 947 1747 
z
" transform="scale(0.015625)"/>
       <path id="DejaVuSans-3bc" d="M 544 -1331 
L 544 3500 
L 1119 3500 
L 1119 1325 
Q 1119 872 1334 640 
Q 1550 409 1972 409 
Q 2434 409 2667 671 
Q 2900 934 2900 1459 
L 2900 3500 
L 3475 3500 
L 3475 806 
Q 3475 619 3529 530 
Q 3584 441 3700 441 
Q 3728 441 3778 458 
Q 3828 475 3916 513 
L 3916 50 
Q 3788 -22 3673 -56 
Q 3559 -91 3450 -91 
Q 3234 -91 3106 31 
Q 2978 153 2931 403 
Q 2775 156 2548 32 
Q 2322 -91 2016 -91 
Q 1697 -91 1473 31 
Q 1250 153 1119 397 
L 1119 -1331 
L 544 -1331 
z
" transform="scale(0.015625)"/>
       <path id="DejaVuSans-56" d="M 1831 0 
L 50 4666 
L 709 4666 
L 2188 738 
L 3669 4666 
L 4325 4666 
L 2547 0 
L 1831 0 
z
" transform="scale(0.015625)"/>
      </defs>
      <use xlink:href="#DejaVuSans-41"/>
      <use xlink:href="#DejaVuSans-6d" x="68.408203"/>
      <use xlink:href="#DejaVuSans-70" x="165.820312"/>
      <use xlink:href="#DejaVuSans-6c" x="229.296875"/>
      <use xlink:href="#DejaVuSans-69" x="257.080078"/>
      <use xlink:href="#DejaVuSans-74" x="284.863281"/>
      <use xlink:href="#DejaVuSans-75" x="324.072266"/>
      <use xlink:href="#DejaVuSans-64" x="387.451172"/>
      <use xlink:href="#DejaVuSans-65" x="450.927734"/>
      <use xlink:href="#DejaVuSans-20" x="512.451172"/>
      <use xlink:href="#DejaVuSans-28" x="544.238281"/>
      <use xlink:href="#DejaVuSans-3bc" x="583.251953"/>
      <use xlink:href="#DejaVuSans-56" x="646.875"/>
      <use xlink:href="#DejaVuSans-29" x="715.283203"/>
     </g>
    </g>
   </g>
   <g id="line2d_14">
    <path d="M 46.64 115.573807 
L 48.331171 113.226202 
L 49.055958 112.69648 
L 49.780746 112.508725 
L 51.471917 112.269179 
L 52.4383 111.821259 
L 53.646279 111.230135 
L 54.371067 111.109452 
L 55.095854 111.217758 
L 56.062238 111.416575 
L 56.545429 111.36123 
L 57.270217 110.976874 
L 58.719792 109.927217 
L 59.202983 109.861363 
L 59.686175 110.033277 
L 60.169367 110.426534 
L 61.13575 111.611801 
L 62.343729 113.012747 
L 64.759688 115.110363 
L 65.484475 115.585669 
L 65.967667 115.681973 
L 66.450858 115.5544 
L 67.175646 115.003301 
L 68.383625 113.875583 
L 68.866817 113.630759 
L 69.350008 113.565572 
L 70.316392 113.769737 
L 71.041179 113.867769 
L 71.765967 113.687579 
L 72.490754 113.213798 
L 73.457138 112.257406 
L 75.389904 110.218215 
L 76.114692 109.817407 
L 76.597883 109.745856 
L 77.322671 109.914714 
L 79.255437 110.705914 
L 79.980225 110.656954 
L 81.188204 110.23644 
L 86.020121 108.434398 
L 87.2281 108.256555 
L 87.952888 108.342708 
L 88.677675 108.683579 
L 91.093633 110.264977 
L 91.818421 110.336587 
L 93.0264 110.393602 
L 93.751188 110.733106 
L 94.475975 111.409091 
L 95.92555 113.036949 
L 96.408742 113.318457 
L 96.891933 113.377009 
L 97.375125 113.241051 
L 98.341508 112.65222 
L 100.999063 110.709717 
L 102.207042 109.434003 
L 103.898213 107.188858 
L 104.864596 106.023985 
L 105.589383 105.527214 
L 106.072575 105.470196 
L 106.555767 105.64699 
L 107.280554 106.259096 
L 108.488533 107.450222 
L 108.971725 107.656621 
L 109.454917 107.539617 
L 109.938108 107.010299 
L 110.4213 106.026408 
L 111.146088 103.788434 
L 112.837258 97.837987 
L 113.803642 95.611667 
L 114.528429 93.848868 
L 115.011621 92.143992 
L 115.736408 88.53958 
L 117.185983 80.306247 
L 117.669175 78.616522 
L 117.910771 78.152629 
L 118.152367 77.97443 
L 118.393963 78.095222 
L 118.635558 78.520824 
L 119.11875 80.278031 
L 119.601942 83.183631 
L 120.326729 89.441629 
L 121.293113 100.479714 
L 124.192263 136.225036 
L 125.158646 145.248879 
L 126.125029 152.204705 
L 126.849817 155.854009 
L 127.333008 157.487568 
L 127.8162 158.494729 
L 128.299392 158.926971 
L 128.782583 158.877526 
L 129.265775 158.481373 
L 130.71535 156.955605 
L 131.198542 156.864574 
L 131.681733 157.12186 
L 132.164925 157.708024 
L 132.889713 159.042324 
L 135.547267 164.593547 
L 136.51365 166.03806 
L 137.238438 166.839317 
L 137.963225 167.299982 
L 138.446417 167.339074 
L 138.929608 167.099065 
L 139.4128 166.523681 
L 139.895992 165.558299 
L 140.379183 164.149936 
L 141.103971 161.115343 
L 141.828758 156.944113 
L 142.795142 149.897127 
L 144.244717 137.502314 
L 146.177483 119.075269 
L 149.076633 91.110906 
L 150.043017 83.73304 
L 151.0094 78.174935 
L 151.734188 75.163862 
L 152.700571 72.209727 
L 153.90855 69.377442 
L 154.633338 68.157754 
L 155.116529 67.685885 
L 155.599721 67.527532 
L 156.082913 67.629634 
L 157.290892 68.074259 
L 157.774083 67.915166 
L 158.257275 67.436641 
L 158.982063 66.201684 
L 161.398021 61.44039 
L 162.364404 59.396141 
L 163.089192 57.315469 
L 165.263554 50.326767 
L 165.988342 48.80722 
L 166.954725 47.331841 
L 169.370683 44.161217 
L 170.337067 43.284314 
L 171.30345 42.747567 
L 172.753025 42.242839 
L 173.477813 42.142172 
L 174.2026 42.274998 
L 174.927388 42.704268 
L 175.652175 43.407129 
L 176.618558 44.655714 
L 179.276113 48.437942 
L 182.175263 51.358239 
L 182.90005 52.120064 
L 183.383242 52.41662 
L 183.866433 52.505616 
L 184.591221 52.345852 
L 187.007179 51.343201 
L 187.731967 50.643662 
L 189.906329 47.973108 
L 190.389521 47.743153 
L 191.114308 47.690072 
L 191.839096 47.687459 
L 192.322288 47.518625 
L 192.805479 47.124069 
L 193.530267 46.088719 
L 194.738246 43.666386 
L 195.704629 41.950017 
L 196.187821 41.397146 
L 196.671013 41.094946 
L 197.154204 41.02242 
L 197.878992 41.184165 
L 198.603779 41.351681 
L 199.086971 41.310966 
L 199.570163 41.100357 
L 200.29495 40.489744 
L 201.261333 39.312568 
L 202.952504 37.205461 
L 203.677292 36.573264 
L 204.160483 36.334511 
L 204.643675 36.293383 
L 205.126867 36.462591 
L 205.851654 37.008596 
L 206.818038 37.735238 
L 207.301229 37.870146 
L 207.784421 37.805764 
L 208.509208 37.443401 
L 209.475592 36.941098 
L 210.200379 36.851497 
L 211.166763 37.085574 
L 213.824317 37.96535 
L 214.549104 38.594562 
L 215.998679 40.066034 
L 216.723467 40.431285 
L 217.68985 40.753096 
L 218.173042 41.143326 
L 218.656233 41.836937 
L 219.381021 43.473867 
L 221.555383 49.194025 
L 222.280171 50.110199 
L 224.454533 51.930313 
L 225.420917 53.354279 
L 228.561663 58.477644 
L 230.011238 60.004747 
L 231.219217 61.360386 
L 232.1856 62.808226 
L 233.876771 65.555596 
L 234.601558 66.341632 
L 237.259113 68.681303 
L 238.950283 70.878461 
L 240.158263 72.234721 
L 242.091029 74.127896 
L 242.815817 75.273626 
L 246.198158 81.711525 
L 248.130925 85.50715 
L 248.855713 86.395186 
L 250.305288 87.831119 
L 251.030075 89.020018 
L 252.238054 91.694436 
L 253.446033 94.192184 
L 254.654013 96.060445 
L 255.861992 97.55713 
L 256.828375 98.415563 
L 258.036354 99.104812 
L 259.969121 100.090032 
L 260.935504 100.8594 
L 263.109867 102.755646 
L 264.317846 103.771644 
L 266.9754 106.265397 
L 268.424975 107.171684 
L 269.149763 107.991681 
L 269.87455 109.185614 
L 273.740083 116.250771 
L 274.706467 117.728292 
L 275.431254 118.497596 
L 276.156042 118.944529 
L 277.364021 119.29888 
L 278.088808 119.577541 
L 278.813596 120.066698 
L 281.47115 122.221781 
L 285.095088 124.040202 
L 286.061471 124.473223 
L 287.027854 125.193125 
L 289.927004 127.767286 
L 290.410196 127.886438 
L 290.893388 127.806955 
L 291.618175 127.386292 
L 292.584558 126.74806 
L 293.06775 126.657186 
L 293.550942 126.834142 
L 294.034133 127.290643 
L 295.9669 129.639066 
L 296.450092 129.611784 
L 296.933283 129.242565 
L 298.382858 127.648474 
L 298.86605 127.568643 
L 299.349242 127.857642 
L 300.074029 128.787811 
L 301.040413 130.076758 
L 301.523604 130.442446 
L 302.006796 130.577591 
L 302.489988 130.521247 
L 303.214775 130.193966 
L 303.939563 129.658033 
L 304.66435 128.887457 
L 305.630733 127.4901 
L 306.597117 126.123335 
L 307.080308 125.709002 
L 307.5635 125.587108 
L 308.046692 125.785769 
L 308.529883 126.275967 
L 309.496267 127.782172 
L 310.46265 129.218709 
L 310.945842 129.648158 
L 311.429033 129.790981 
L 311.912225 129.625285 
L 312.395417 129.166496 
L 313.120204 128.011944 
L 313.844992 126.36912 
L 314.569779 124.206737 
L 315.536163 120.43821 
L 318.193717 108.75251 
L 318.676908 107.573085 
L 319.1601 107.024334 
L 319.401696 107.009857 
L 319.643292 107.172806 
L 320.126483 108.0149 
L 320.609675 109.477196 
L 321.334463 112.542332 
L 323.992017 125.028158 
L 324.9584 128.215978 
L 325.924783 130.651732 
L 326.891167 132.560165 
L 327.615954 133.569835 
L 328.099146 133.947122 
L 328.582338 134.034852 
L 329.065529 133.813262 
L 329.548721 133.282731 
L 330.031913 132.447548 
L 330.7567 130.625638 
L 331.481488 128.162125 
L 334.139042 118.290655 
L 336.313404 111.722642 
L 336.796596 109.951668 
L 336.796596 109.951668 
" clip-path="url(#p866cdad098)" style="fill: none; stroke: #000080; stroke-linecap: square"/>
   </g>
   <g id="line2d_15">
    <path d="M 46.64 119.332047 
L 47.123192 119.879482 
L 47.606383 120.116268 
L 48.089575 120.052486 
L 48.814363 119.586122 
L 49.780746 118.880768 
L 50.505533 118.595714 
L 51.713513 118.266512 
L 52.4383 117.732146 
L 53.163088 116.830725 
L 56.062238 112.641812 
L 57.028621 111.688007 
L 57.995004 111.06591 
L 58.961388 110.793324 
L 62.102133 110.529662 
L 62.826921 110.744324 
L 63.793304 111.382038 
L 65.001283 112.237107 
L 65.967667 112.615263 
L 67.900433 113.221631 
L 69.108413 113.627396 
L 69.8332 113.557437 
L 70.557988 113.202355 
L 71.765967 112.540193 
L 72.490754 112.379468 
L 74.181925 112.195522 
L 74.906712 111.788731 
L 75.6315 111.034221 
L 76.597883 109.561233 
L 78.047458 107.239931 
L 78.772246 106.411768 
L 79.738629 105.693269 
L 82.637779 104.139232 
L 83.120971 104.103073 
L 83.604163 104.255374 
L 84.087354 104.605867 
L 84.812142 105.447855 
L 87.469696 109.029113 
L 88.677675 109.973145 
L 90.368846 111.027543 
L 91.576825 111.534777 
L 92.543208 111.73477 
L 93.267996 111.681469 
L 93.992783 111.328868 
L 94.717571 110.604924 
L 95.683954 109.17838 
L 97.375125 106.490112 
L 98.099913 105.722822 
L 98.8247 105.340574 
L 99.549488 105.260361 
L 101.240658 105.201778 
L 102.690233 105.013318 
L 103.656617 105.128678 
L 105.106192 105.320672 
L 106.797363 105.16328 
L 108.971725 104.901936 
L 109.454917 104.604722 
L 109.938108 104.098904 
L 110.662896 102.872943 
L 111.387683 101.119429 
L 113.078854 96.110748 
L 114.286833 92.072142 
L 115.011621 88.889433 
L 115.736408 84.779978 
L 117.427579 74.162429 
L 117.910771 72.444102 
L 118.152367 72.048365 
L 118.393963 72.00523 
L 118.635558 72.334489 
L 118.877154 73.044451 
L 119.360346 75.586726 
L 119.843538 79.49724 
L 120.568325 87.371303 
L 122.0179 106.561463 
L 123.467475 124.893539 
L 124.675454 137.265133 
L 125.641838 145.028749 
L 126.608221 150.879563 
L 127.333008 153.885847 
L 127.8162 155.217707 
L 128.299392 156.07757 
L 128.782583 156.58068 
L 129.507371 156.980457 
L 130.473754 157.464328 
L 131.440138 158.224679 
L 136.996842 163.229084 
L 137.721629 163.491529 
L 138.204821 163.45101 
L 138.688013 163.159451 
L 139.171204 162.525178 
L 139.654396 161.455525 
L 140.137588 159.874832 
L 140.862375 156.468594 
L 141.587163 151.868966 
L 142.553546 144.248223 
L 144.244717 128.744641 
L 147.868654 95.247453 
L 149.318229 83.678206 
L 150.526208 75.515562 
L 151.492592 70.146328 
L 152.217379 67.076929 
L 152.942167 64.973157 
L 153.666954 63.728949 
L 154.391742 63.064807 
L 155.116529 62.715596 
L 156.082913 62.539152 
L 158.015679 62.491956 
L 158.498871 62.128765 
L 158.982063 61.500714 
L 159.70685 60.137363 
L 161.156425 56.716323 
L 162.364404 53.348651 
L 163.572383 49.20808 
L 165.263554 43.411414 
L 166.229938 40.867427 
L 167.196321 38.983436 
L 168.887492 36.322233 
L 169.612279 35.394597 
L 170.095471 34.995291 
L 170.578663 34.832978 
L 171.061854 34.908212 
L 171.786642 35.363593 
L 173.236217 36.759467 
L 175.893771 39.623677 
L 178.309729 42.117782 
L 181.692071 45.077356 
L 182.416858 45.614236 
L 183.141646 45.849533 
L 183.624838 45.792016 
L 184.349625 45.445101 
L 185.7992 44.608917 
L 186.523988 44.450937 
L 188.456754 44.322715 
L 189.181542 43.852629 
L 190.147925 42.803219 
L 191.355904 41.474296 
L 192.080692 41.057228 
L 192.563883 41.00655 
L 193.288671 41.209415 
L 194.49665 41.657976 
L 194.979842 41.594648 
L 195.463033 41.26028 
L 195.946225 40.606986 
L 196.671013 39.077849 
L 198.120588 35.672142 
L 198.603779 34.981261 
L 199.086971 34.595623 
L 199.811758 34.414014 
L 201.019738 34.276904 
L 202.227717 33.784456 
L 202.952504 33.577387 
L 203.677292 33.65669 
L 205.610058 34.244567 
L 207.542825 34.037152 
L 208.026017 34.307905 
L 208.750804 35.009178 
L 210.200379 36.57104 
L 210.925167 37.002626 
L 211.649954 37.169807 
L 212.857933 37.359492 
L 213.582721 37.700452 
L 214.549104 38.489029 
L 215.515488 39.566973 
L 216.723467 41.277808 
L 218.173042 43.346932 
L 218.897829 44.064501 
L 219.622617 44.52216 
L 221.796979 45.558137 
L 222.521767 46.233464 
L 223.48815 47.495036 
L 224.937725 49.398634 
L 227.595279 52.228879 
L 229.528046 54.943514 
L 230.252833 55.604798 
L 230.977621 55.959997 
L 231.702408 56.023138 
L 233.393579 55.906236 
L 233.876771 56.159608 
L 234.359963 56.653429 
L 235.08475 57.821323 
L 237.017517 61.457717 
L 237.9839 62.570689 
L 239.191879 63.926039 
L 241.124646 66.380034 
L 242.091029 67.064395 
L 242.815817 67.56424 
L 243.540604 68.395927 
L 244.265392 69.753236 
L 245.231775 72.318634 
L 246.922946 77.183132 
L 247.647733 78.592396 
L 248.130925 79.178092 
L 248.614117 79.51967 
L 250.546883 80.424071 
L 251.271671 81.263292 
L 253.929225 84.850649 
L 254.654013 85.303273 
L 255.3788 85.454568 
L 256.345183 85.337594 
L 257.553163 85.166055 
L 258.036354 85.260483 
L 258.519546 85.513733 
L 259.244333 86.182655 
L 260.935504 87.977462 
L 261.660292 88.36876 
L 263.351463 88.99242 
L 264.317846 89.73003 
L 266.009017 91.400726 
L 266.9754 92.590943 
L 267.941783 94.228066 
L 270.599338 99.302246 
L 271.324125 100.090096 
L 272.048913 100.53872 
L 273.015296 101.040875 
L 273.498488 101.483404 
L 274.223275 102.513552 
L 276.639233 106.642368 
L 277.364021 107.396479 
L 278.330404 108.044798 
L 280.746363 109.427607 
L 283.403917 111.229578 
L 284.3703 111.580367 
L 286.061471 111.878881 
L 288.235833 111.984447 
L 291.134983 112.158437 
L 291.859771 112.744287 
L 292.826154 113.971626 
L 295.9669 118.440104 
L 297.174879 120.419208 
L 297.899667 121.142102 
L 298.624454 121.522179 
L 299.349242 121.680058 
L 300.315625 121.640267 
L 301.523604 121.550717 
L 302.248392 121.762363 
L 303.456371 122.304379 
L 303.939563 122.313042 
L 304.422754 122.10074 
L 305.147542 121.417252 
L 306.355521 120.110707 
L 306.838713 119.876553 
L 307.321904 119.966896 
L 307.805096 120.458307 
L 308.288288 121.384375 
L 309.013075 123.484087 
L 310.46265 128.100638 
L 310.945842 128.983859 
L 311.429033 129.323018 
L 311.670629 129.287061 
L 312.153821 128.845933 
L 312.637013 127.996789 
L 313.3618 126.188701 
L 314.328183 123.15624 
L 315.777758 117.786563 
L 317.227333 112.51943 
L 317.710525 111.285396 
L 318.193717 110.56541 
L 318.435313 110.435073 
L 318.676908 110.468819 
L 318.918504 110.668003 
L 319.401696 111.541297 
L 319.884888 112.966945 
L 320.609675 115.830167 
L 323.750421 129.415412 
L 324.9584 133.370298 
L 325.924783 135.77936 
L 326.649571 137.029278 
L 327.132763 137.525862 
L 327.615954 137.717 
L 328.099146 137.59434 
L 328.582338 137.17477 
L 329.307125 136.085097 
L 330.273508 134.073392 
L 331.481488 130.974975 
L 332.447871 127.899275 
L 334.139042 121.50723 
L 335.830213 115.515102 
L 336.796596 112.135428 
L 336.796596 112.135428 
" clip-path="url(#p866cdad098)" style="fill: none; stroke: #006400; stroke-linecap: square"/>
   </g>
   <g id="line2d_16">
    <path d="M 46.64 116.028094 
L 47.364787 115.448683 
L 47.847979 115.330914 
L 48.331171 115.414714 
L 49.780746 115.851303 
L 50.263938 115.701242 
L 50.988725 115.111072 
L 52.4383 113.689829 
L 52.921492 113.479764 
L 53.404683 113.452914 
L 55.095854 113.655895 
L 55.579046 113.364906 
L 56.303833 112.531379 
L 57.511813 110.921062 
L 58.2366 110.351811 
L 58.961388 110.11746 
L 60.410963 109.801648 
L 62.343729 109.145961 
L 63.068517 109.284625 
L 63.793304 109.732997 
L 66.209263 111.718233 
L 67.175646 111.99731 
L 68.383625 112.273898 
L 69.108413 112.67313 
L 71.524371 114.420298 
L 72.490754 114.581548 
L 73.698733 114.787688 
L 74.906712 115.011385 
L 75.6315 114.842866 
L 76.356288 114.401726 
L 78.53065 112.840298 
L 80.705013 111.781874 
L 81.4298 111.026544 
L 84.087354 107.730992 
L 85.053738 107.093033 
L 86.020121 106.723052 
L 86.744908 106.71723 
L 87.711292 107.021514 
L 89.160867 107.518767 
L 90.610442 107.98574 
L 91.576825 108.641133 
L 92.784804 109.483687 
L 93.509592 109.724212 
L 96.650338 110.102276 
L 97.616721 110.025836 
L 98.583104 109.704743 
L 99.549488 109.130514 
L 101.240658 108.080427 
L 101.965446 107.93103 
L 102.931829 108.060684 
L 103.898213 108.198561 
L 104.623 108.009047 
L 105.347788 107.487841 
L 107.280554 105.795445 
L 108.005342 105.608558 
L 109.213321 105.494726 
L 109.696513 105.159801 
L 110.179704 104.487048 
L 110.662896 103.438785 
L 111.387683 101.28106 
L 114.770025 89.703351 
L 115.494813 85.538919 
L 117.427579 72.852439 
L 117.910771 71.236147 
L 118.152367 70.894279 
L 118.393963 70.89238 
L 118.635558 71.240051 
L 118.877154 71.938585 
L 119.360346 74.357505 
L 119.843538 78.038604 
L 120.568325 85.563485 
L 121.534708 98.247602 
L 123.709071 127.58364 
L 124.675454 137.514463 
L 125.641838 145.254458 
L 126.366625 149.655156 
L 127.091413 152.800421 
L 127.574604 154.213152 
L 128.057796 155.137544 
L 128.540988 155.669759 
L 129.265775 156.019714 
L 130.232158 156.393685 
L 130.71535 156.813211 
L 131.198542 157.488245 
L 131.923329 158.991022 
L 134.339288 164.900885 
L 134.822479 165.54254 
L 135.305671 165.906649 
L 135.788863 166.029381 
L 136.51365 165.910677 
L 137.480033 165.498326 
L 138.204821 164.946273 
L 138.688013 164.280154 
L 139.171204 163.225287 
L 139.654396 161.682132 
L 140.379183 158.384603 
L 141.345567 152.451604 
L 142.795142 141.685428 
L 144.244717 129.214653 
L 148.11025 93.924621 
L 150.043017 79.244044 
L 151.250996 71.793346 
L 151.975783 68.400619 
L 152.700571 65.874561 
L 153.425358 64.061739 
L 154.391742 62.315152 
L 155.358125 60.980331 
L 156.324508 59.979855 
L 160.914829 56.014104 
L 161.639617 54.815117 
L 162.364404 53.023426 
L 163.572383 49.186942 
L 165.263554 43.85467 
L 166.471533 40.779267 
L 167.437917 38.88361 
L 168.4043 37.481283 
L 169.853875 35.876748 
L 171.061854 34.841087 
L 171.786642 34.49296 
L 172.511429 34.385586 
L 173.236217 34.477168 
L 174.2026 34.858541 
L 174.927388 35.395919 
L 175.652175 36.242159 
L 176.376963 37.452272 
L 179.034517 42.510953 
L 179.759304 43.122033 
L 181.692071 44.412681 
L 182.90005 45.350961 
L 183.383242 45.525886 
L 183.866433 45.523878 
L 184.591221 45.249031 
L 185.7992 44.687332 
L 186.523988 44.667417 
L 187.248775 44.92526 
L 188.215158 45.321584 
L 188.69835 45.357577 
L 189.181542 45.215054 
L 189.906329 44.665229 
L 192.322288 42.196075 
L 193.288671 41.722187 
L 194.738246 41.28172 
L 195.946225 41.147514 
L 197.3958 41.101646 
L 198.120588 40.822121 
L 198.845375 40.276365 
L 201.019738 38.305454 
L 201.502929 38.198257 
L 201.986121 38.284104 
L 202.710908 38.686107 
L 204.402079 39.841628 
L 205.126867 40.086441 
L 205.851654 40.127574 
L 208.026017 39.994682 
L 208.9924 40.240182 
L 210.441975 40.854859 
L 211.408358 41.517867 
L 213.582721 43.267005 
L 215.273892 44.048451 
L 215.998679 44.721188 
L 217.448254 46.511219 
L 218.897829 48.578658 
L 220.347404 50.688137 
L 221.072192 51.277181 
L 221.796979 51.483284 
L 223.004958 51.704979 
L 223.729746 52.16059 
L 224.937725 53.346323 
L 225.904108 54.19711 
L 228.803258 56.13544 
L 229.528046 56.422263 
L 230.252833 56.489135 
L 231.460813 56.303372 
L 232.910388 56.040998 
L 233.635175 56.152985 
L 234.359963 56.595774 
L 236.534325 58.467512 
L 237.259113 58.618353 
L 238.225496 58.76852 
L 238.708688 59.037271 
L 239.191879 59.507406 
L 239.916667 60.533122 
L 241.849433 63.447152 
L 242.815817 64.900555 
L 243.540604 66.48045 
L 244.265392 68.61369 
L 245.956563 74.062555 
L 246.439754 75.084343 
L 246.922946 75.689955 
L 247.406138 75.920247 
L 247.889329 75.894687 
L 249.097308 75.702591 
L 249.5805 75.873221 
L 250.063692 76.254626 
L 250.788479 77.171145 
L 253.204438 80.695971 
L 253.929225 81.242091 
L 254.654013 81.486819 
L 255.3788 81.501808 
L 256.828375 81.416744 
L 257.553163 81.664751 
L 258.27795 82.180989 
L 260.210717 83.827641 
L 262.143483 84.931919 
L 262.868271 85.891694 
L 264.317846 88.065212 
L 264.801038 88.462635 
L 265.525825 88.732024 
L 266.492208 89.042976 
L 266.9754 89.416636 
L 267.700188 90.367204 
L 268.908167 92.603305 
L 269.87455 94.244074 
L 270.599338 95.091174 
L 271.565721 95.830565 
L 272.532104 96.583102 
L 273.498488 97.693802 
L 275.67285 100.52961 
L 277.605617 102.507091 
L 279.055192 104.595447 
L 280.746363 106.939124 
L 281.712746 107.981499 
L 282.679129 108.706139 
L 283.645513 109.105381 
L 285.095088 109.584149 
L 286.061471 110.222132 
L 290.1686 113.44788 
L 291.376579 114.196462 
L 292.101367 114.962244 
L 292.826154 116.11732 
L 294.758921 119.559617 
L 295.483708 120.320846 
L 296.208496 120.742508 
L 296.933283 120.92346 
L 297.658071 120.886103 
L 298.382858 120.614876 
L 299.349242 120.170518 
L 299.832433 120.133457 
L 300.315625 120.310316 
L 301.040413 120.917759 
L 302.489988 122.301277 
L 302.973179 122.541526 
L 303.456371 122.584301 
L 303.939563 122.37945 
L 304.422754 121.887408 
L 305.147542 120.626184 
L 306.355521 118.116225 
L 306.838713 117.594336 
L 307.080308 117.547102 
L 307.321904 117.664557 
L 307.805096 118.404523 
L 308.288288 119.733118 
L 309.979458 125.304226 
L 310.46265 126.17219 
L 310.945842 126.569579 
L 311.429033 126.5653 
L 311.912225 126.24993 
L 312.637013 125.338296 
L 313.3618 124.005932 
L 314.569779 121.175218 
L 316.26095 117.235195 
L 319.1601 111.012713 
L 319.643292 110.681202 
L 319.884888 110.744146 
L 320.126483 110.978181 
L 320.609675 111.974074 
L 321.092867 113.613619 
L 322.05925 118.064616 
L 323.508825 124.639114 
L 326.166379 134.94461 
L 326.649571 136.151879 
L 327.132763 136.786008 
L 327.374358 136.875581 
L 327.615954 136.822453 
L 328.099146 136.354118 
L 328.823933 135.072192 
L 330.998296 130.330405 
L 331.964679 127.632368 
L 334.139042 121.20491 
L 336.071808 116.319182 
L 336.796596 113.588261 
L 336.796596 113.588261 
" clip-path="url(#p866cdad098)" style="fill: none; stroke: #b22222; stroke-linecap: square"/>
   </g>
   <g id="line2d_17">
    <path d="M 94.959167 174.04 
L 94.959167 26.88 
" clip-path="url(#p866cdad098)" style="fill: none; stroke-dasharray: 1.85,0.8; stroke-dashoffset: 0; stroke: #000000; stroke-opacity: 0.7; stroke-width: 0.5"/>
   </g>
   <g id="patch_4">
    <path d="M 46.64 174.04 
L 46.64 26.88 
" style="fill: none; stroke: #000000; stroke-width: 0.8; stroke-linejoin: miter; stroke-linecap: square"/>
   </g>
   <g id="patch_5">
    <path d="M 46.64 174.04 
L 336.555 174.04 
" style="fill: none; stroke: #000000; stroke-width: 0.8; stroke-linejoin: miter; stroke-linecap: square"/>
   </g>
   <g id="text_16">
    <!-- Pool: Parietal -->
    <g transform="translate(152.71375 20.88) scale(0.12 -0.12)">
     <defs>
      <path id="DejaVuSans-50" d="M 1259 4147 
L 1259 2394 
L 2053 2394 
Q 2494 2394 2734 2622 
Q 2975 2850 2975 3272 
Q 2975 3691 2734 3919 
Q 2494 4147 2053 4147 
L 1259 4147 
z
M 628 4666 
L 2053 4666 
Q 2838 4666 3239 4311 
Q 3641 3956 3641 3272 
Q 3641 2581 3239 2228 
Q 2838 1875 2053 1875 
L 1259 1875 
L 1259 0 
L 628 0 
L 628 4666 
z
" transform="scale(0.015625)"/>
      <path id="DejaVuSans-6f" d="M 1959 3097 
Q 1497 3097 1228 2736 
Q 959 2375 959 1747 
Q 959 1119 1226 758 
Q 1494 397 1959 397 
Q 2419 397 2687 759 
Q 2956 1122 2956 1747 
Q 2956 2369 2687 2733 
Q 2419 3097 1959 3097 
z
M 1959 3584 
Q 2709 3584 3137 3096 
Q 3566 2609 3566 1747 
Q 3566 888 3137 398 
Q 2709 -91 1959 -91 
Q 1206 -91 779 398 
Q 353 888 353 1747 
Q 353 2609 779 3096 
Q 1206 3584 1959 3584 
z
" transform="scale(0.015625)"/>
      <path id="DejaVuSans-3a" d="M 750 794 
L 1409 794 
L 1409 0 
L 750 0 
L 750 794 
z
M 750 3309 
L 1409 3309 
L 1409 2516 
L 750 2516 
L 750 3309 
z
" transform="scale(0.015625)"/>
      <path id="DejaVuSans-61" d="M 2194 1759 
Q 1497 1759 1228 1600 
Q 959 1441 959 1056 
Q 959 750 1161 570 
Q 1363 391 1709 391 
Q 2188 391 2477 730 
Q 2766 1069 2766 1631 
L 2766 1759 
L 2194 1759 
z
M 3341 1997 
L 3341 0 
L 2766 0 
L 2766 531 
Q 2569 213 2275 61 
Q 1981 -91 1556 -91 
Q 1019 -91 701 211 
Q 384 513 384 1019 
Q 384 1609 779 1909 
Q 1175 2209 1959 2209 
L 2766 2209 
L 2766 2266 
Q 2766 2663 2505 2880 
Q 2244 3097 1772 3097 
Q 1472 3097 1187 3025 
Q 903 2953 641 2809 
L 641 3341 
Q 956 3463 1253 3523 
Q 1550 3584 1831 3584 
Q 2591 3584 2966 3190 
Q 3341 2797 3341 1997 
z
" transform="scale(0.015625)"/>
      <path id="DejaVuSans-72" d="M 2631 2963 
Q 2534 3019 2420 3045 
Q 2306 3072 2169 3072 
Q 1681 3072 1420 2755 
Q 1159 2438 1159 1844 
L 1159 0 
L 581 0 
L 581 3500 
L 1159 3500 
L 1159 2956 
Q 1341 3275 1631 3429 
Q 1922 3584 2338 3584 
Q 2397 3584 2469 3576 
Q 2541 3569 2628 3553 
L 2631 2963 
z
" transform="scale(0.015625)"/>
     </defs>
     <use xlink:href="#DejaVuSans-50"/>
     <use xlink:href="#DejaVuSans-6f" x="56.677734"/>
     <use xlink:href="#DejaVuSans-6f" x="117.859375"/>
     <use xlink:href="#DejaVuSans-6c" x="179.041016"/>
     <use xlink:href="#DejaVuSans-3a" x="206.824219"/>
     <use xlink:href="#DejaVuSans-20" x="240.515625"/>
     <use xlink:href="#DejaVuSans-50" x="272.302734"/>
     <use xlink:href="#DejaVuSans-61" x="328.105469"/>
     <use xlink:href="#DejaVuSans-72" x="389.384766"/>
     <use xlink:href="#DejaVuSans-69" x="430.498047"/>
     <use xlink:href="#DejaVuSans-65" x="458.28125"/>
     <use xlink:href="#DejaVuSans-74" x="519.804688"/>
     <use xlink:href="#DejaVuSans-61" x="559.013672"/>
     <use xlink:href="#DejaVuSans-6c" x="620.292969"/>
    </g>
   </g>
  </g>
 </g>
 <defs>
  <clipPath id="p866cdad098">
   <rect x="46.64" y="26.88" width="289.915" height="147.16"/>
  </clipPath>
 </defs>
</svg>
