<?xml version="1.0" encoding="utf-8" standalone="no"?>
<!DOCTYPE svg PUBLIC "-//W3C//DTD SVG 1.1//EN"
  "http://www.w3.org/Graphics/SVG/1.1/DTD/svg11.dtd">
<svg xmlns:xlink="http://www.w3.org/1999/xlink" width="360pt" height="216pt" viewBox="0 0 360 216" xmlns="http://www.w3.org/2000/svg" version="1.1">
 <metadata>
  <rdf:RDF xmlns:dc="http://purl.org/dc/elements/1.1/" xmlns:cc="http://creativecommons.org/ns#" xmlns:rdf="http://www.w3.org/1999/02/22-rdf-syntax-ns#">
   <cc:Work>
    <dc:type rdf:resource="http://purl.org/dc/dcmitype/StillImage"/>
    <dc:date>2025-07-03T15:01:15.796874</dc:date>
    <dc:format>image/svg+xml</dc:format>
    <dc:creator>
     <cc:Agent>
      <dc:title>Matplotlib v3.9.3, https://matplotlib.org/</dc:title>
     </cc:Agent>
    </dc:creator>
   </cc:Work>
  </rdf:RDF>
 </metadata>
 <defs>
  <style type="text/css">*{stroke-linejoin: round; stroke-linecap: butt}</style>
 </defs>
 <g id="figure_1">
  <g id="patch_1">
   <path d="M 0 216 
L 360 216 
L 360 0 
L 0 0 
z
" style="fill: #ffffff"/>
  </g>
  <g id="axes_1">
   <g id="patch_2">
    <path d="M 56.09 174.04 
L 336.555 174.04 
L 336.555 26.88 
L 56.09 26.88 
z
" style="fill: #ffffff"/>
   </g>
   <g id="patch_3">
    <path d="M 196.3225 174.04 
L 289.810833 174.04 
L 289.810833 26.88 
L 196.3225 26.88 
z
" clip-path="url(#p1a8f86092e)" style="fill: #d3d3d3; opacity: 0.2; stroke: #000000; stroke-linejoin: miter"/>
   </g>
   <g id="matplotlib.axis_1">
    <g id="xtick_1">
     <g id="line2d_1">
      <defs>
       <path id="md0ec8c0531" d="M 0 0 
L 0 3.5 
" style="stroke: #000000; stroke-width: 0.8"/>
      </defs>
      <g>
       <use xlink:href="#md0ec8c0531" x="56.09" y="174.04" style="stroke: #000000; stroke-width: 0.8"/>
      </g>
     </g>
     <g id="text_1">
      <!-- −200 -->
      <g transform="translate(42.356406 188.638438) scale(0.1 -0.1)">
       <defs>
        <path id="DejaVuSans-2212" d="M 678 2272 
L 4684 2272 
L 4684 1741 
L 678 1741 
L 678 2272 
z
" transform="scale(0.015625)"/>
        <path id="DejaVuSans-32" d="M 1228 531 
L 3431 531 
L 3431 0 
L 469 0 
L 469 531 
Q 828 903 1448 1529 
Q 2069 2156 2228 2338 
Q 2531 2678 2651 2914 
Q 2772 3150 2772 3378 
Q 2772 3750 2511 3984 
Q 2250 4219 1831 4219 
Q 1534 4219 1204 4116 
Q 875 4013 500 3803 
L 500 4441 
Q 881 4594 1212 4672 
Q 1544 4750 1819 4750 
Q 2544 4750 2975 4387 
Q 3406 4025 3406 3419 
Q 3406 3131 3298 2873 
Q 3191 2616 2906 2266 
Q 2828 2175 2409 1742 
Q 1991 1309 1228 531 
z
" transform="scale(0.015625)"/>
        <path id="DejaVuSans-30" d="M 2034 4250 
Q 1547 4250 1301 3770 
Q 1056 3291 1056 2328 
Q 1056 1369 1301 889 
Q 1547 409 2034 409 
Q 2525 409 2770 889 
Q 3016 1369 3016 2328 
Q 3016 3291 2770 3770 
Q 2525 4250 2034 4250 
z
M 2034 4750 
Q 2819 4750 3233 4129 
Q 3647 3509 3647 2328 
Q 3647 1150 3233 529 
Q 2819 -91 2034 -91 
Q 1250 -91 836 529 
Q 422 1150 422 2328 
Q 422 3509 836 4129 
Q 1250 4750 2034 4750 
z
" transform="scale(0.015625)"/>
       </defs>
       <use xlink:href="#DejaVuSans-2212"/>
       <use xlink:href="#DejaVuSans-32" x="83.789062"/>
       <use xlink:href="#DejaVuSans-30" x="147.412109"/>
       <use xlink:href="#DejaVuSans-30" x="211.035156"/>
      </g>
     </g>
    </g>
    <g id="xtick_2">
     <g id="line2d_2">
      <g>
       <use xlink:href="#md0ec8c0531" x="102.834167" y="174.04" style="stroke: #000000; stroke-width: 0.8"/>
      </g>
     </g>
     <g id="text_2">
      <!-- 0 -->
      <g transform="translate(99.652917 188.638438) scale(0.1 -0.1)">
       <use xlink:href="#DejaVuSans-30"/>
      </g>
     </g>
    </g>
    <g id="xtick_3">
     <g id="line2d_3">
      <g>
       <use xlink:href="#md0ec8c0531" x="149.578333" y="174.04" style="stroke: #000000; stroke-width: 0.8"/>
      </g>
     </g>
     <g id="text_3">
      <!-- 200 -->
      <g transform="translate(140.034583 188.638438) scale(0.1 -0.1)">
       <use xlink:href="#DejaVuSans-32"/>
       <use xlink:href="#DejaVuSans-30" x="63.623047"/>
       <use xlink:href="#DejaVuSans-30" x="127.246094"/>
      </g>
     </g>
    </g>
    <g id="xtick_4">
     <g id="line2d_4">
      <g>
       <use xlink:href="#md0ec8c0531" x="196.3225" y="174.04" style="stroke: #000000; stroke-width: 0.8"/>
      </g>
     </g>
     <g id="text_4">
      <!-- 400 -->
      <g transform="translate(186.77875 188.638438) scale(0.1 -0.1)">
       <defs>
        <path id="DejaVuSans-34" d="M 2419 4116 
L 825 1625 
L 2419 1625 
L 2419 4116 
z
M 2253 4666 
L 3047 4666 
L 3047 1625 
L 3713 1625 
L 3713 1100 
L 3047 1100 
L 3047 0 
L 2419 0 
L 2419 1100 
L 313 1100 
L 313 1709 
L 2253 4666 
z
" transform="scale(0.015625)"/>
       </defs>
       <use xlink:href="#DejaVuSans-34"/>
       <use xlink:href="#DejaVuSans-30" x="63.623047"/>
       <use xlink:href="#DejaVuSans-30" x="127.246094"/>
      </g>
     </g>
    </g>
    <g id="xtick_5">
     <g id="line2d_5">
      <g>
       <use xlink:href="#md0ec8c0531" x="243.066667" y="174.04" style="stroke: #000000; stroke-width: 0.8"/>
      </g>
     </g>
     <g id="text_5">
      <!-- 600 -->
      <g transform="translate(233.522917 188.638438) scale(0.1 -0.1)">
       <defs>
        <path id="DejaVuSans-36" d="M 2113 2584 
Q 1688 2584 1439 2293 
Q 1191 2003 1191 1497 
Q 1191 994 1439 701 
Q 1688 409 2113 409 
Q 2538 409 2786 701 
Q 3034 994 3034 1497 
Q 3034 2003 2786 2293 
Q 2538 2584 2113 2584 
z
M 3366 4563 
L 3366 3988 
Q 3128 4100 2886 4159 
Q 2644 4219 2406 4219 
Q 1781 4219 1451 3797 
Q 1122 3375 1075 2522 
Q 1259 2794 1537 2939 
Q 1816 3084 2150 3084 
Q 2853 3084 3261 2657 
Q 3669 2231 3669 1497 
Q 3669 778 3244 343 
Q 2819 -91 2113 -91 
Q 1303 -91 875 529 
Q 447 1150 447 2328 
Q 447 3434 972 4092 
Q 1497 4750 2381 4750 
Q 2619 4750 2861 4703 
Q 3103 4656 3366 4563 
z
" transform="scale(0.015625)"/>
       </defs>
       <use xlink:href="#DejaVuSans-36"/>
       <use xlink:href="#DejaVuSans-30" x="63.623047"/>
       <use xlink:href="#DejaVuSans-30" x="127.246094"/>
      </g>
     </g>
    </g>
    <g id="xtick_6">
     <g id="line2d_6">
      <g>
       <use xlink:href="#md0ec8c0531" x="289.810833" y="174.04" style="stroke: #000000; stroke-width: 0.8"/>
      </g>
     </g>
     <g id="text_6">
      <!-- 800 -->
      <g transform="translate(280.267083 188.638438) scale(0.1 -0.1)">
       <defs>
        <path id="DejaVuSans-38" d="M 2034 2216 
Q 1584 2216 1326 1975 
Q 1069 1734 1069 1313 
Q 1069 891 1326 650 
Q 1584 409 2034 409 
Q 2484 409 2743 651 
Q 3003 894 3003 1313 
Q 3003 1734 2745 1975 
Q 2488 2216 2034 2216 
z
M 1403 2484 
Q 997 2584 770 2862 
Q 544 3141 544 3541 
Q 544 4100 942 4425 
Q 1341 4750 2034 4750 
Q 2731 4750 3128 4425 
Q 3525 4100 3525 3541 
Q 3525 3141 3298 2862 
Q 3072 2584 2669 2484 
Q 3125 2378 3379 2068 
Q 3634 1759 3634 1313 
Q 3634 634 3220 271 
Q 2806 -91 2034 -91 
Q 1263 -91 848 271 
Q 434 634 434 1313 
Q 434 1759 690 2068 
Q 947 2378 1403 2484 
z
M 1172 3481 
Q 1172 3119 1398 2916 
Q 1625 2713 2034 2713 
Q 2441 2713 2670 2916 
Q 2900 3119 2900 3481 
Q 2900 3844 2670 4047 
Q 2441 4250 2034 4250 
Q 1625 4250 1398 4047 
Q 1172 3844 1172 3481 
z
" transform="scale(0.015625)"/>
       </defs>
       <use xlink:href="#DejaVuSans-38"/>
       <use xlink:href="#DejaVuSans-30" x="63.623047"/>
       <use xlink:href="#DejaVuSans-30" x="127.246094"/>
      </g>
     </g>
    </g>
    <g id="xtick_7">
     <g id="line2d_7">
      <g>
       <use xlink:href="#md0ec8c0531" x="336.555" y="174.04" style="stroke: #000000; stroke-width: 0.8"/>
      </g>
     </g>
     <g id="text_7">
      <!-- 1000 -->
      <g transform="translate(323.83 188.638438) scale(0.1 -0.1)">
       <defs>
        <path id="DejaVuSans-31" d="M 794 531 
L 1825 531 
L 1825 4091 
L 703 3866 
L 703 4441 
L 1819 4666 
L 2450 4666 
L 2450 531 
L 3481 531 
L 3481 0 
L 794 0 
L 794 531 
z
" transform="scale(0.015625)"/>
       </defs>
       <use xlink:href="#DejaVuSans-31"/>
       <use xlink:href="#DejaVuSans-30" x="63.623047"/>
       <use xlink:href="#DejaVuSans-30" x="127.246094"/>
       <use xlink:href="#DejaVuSans-30" x="190.869141"/>
      </g>
     </g>
    </g>
    <g id="text_8">
     <!-- Time (ms) -->
     <g transform="translate(171.123281 202.316563) scale(0.1 -0.1)">
      <defs>
       <path id="DejaVuSans-54" d="M -19 4666 
L 3928 4666 
L 3928 4134 
L 2272 4134 
L 2272 0 
L 1638 0 
L 1638 4134 
L -19 4134 
L -19 4666 
z
" transform="scale(0.015625)"/>
       <path id="DejaVuSans-69" d="M 603 3500 
L 1178 3500 
L 1178 0 
L 603 0 
L 603 3500 
z
M 603 4863 
L 1178 4863 
L 1178 4134 
L 603 4134 
L 603 4863 
z
" transform="scale(0.015625)"/>
       <path id="DejaVuSans-6d" d="M 3328 2828 
Q 3544 3216 3844 3400 
Q 4144 3584 4550 3584 
Q 5097 3584 5394 3201 
Q 5691 2819 5691 2113 
L 5691 0 
L 5113 0 
L 5113 2094 
Q 5113 2597 4934 2840 
Q 4756 3084 4391 3084 
Q 3944 3084 3684 2787 
Q 3425 2491 3425 1978 
L 3425 0 
L 2847 0 
L 2847 2094 
Q 2847 2600 2669 2842 
Q 2491 3084 2119 3084 
Q 1678 3084 1418 2786 
Q 1159 2488 1159 1978 
L 1159 0 
L 581 0 
L 581 3500 
L 1159 3500 
L 1159 2956 
Q 1356 3278 1631 3431 
Q 1906 3584 2284 3584 
Q 2666 3584 2933 3390 
Q 3200 3197 3328 2828 
z
" transform="scale(0.015625)"/>
       <path id="DejaVuSans-65" d="M 3597 1894 
L 3597 1613 
L 953 1613 
Q 991 1019 1311 708 
Q 1631 397 2203 397 
Q 2534 397 2845 478 
Q 3156 559 3463 722 
L 3463 178 
Q 3153 47 2828 -22 
Q 2503 -91 2169 -91 
Q 1331 -91 842 396 
Q 353 884 353 1716 
Q 353 2575 817 3079 
Q 1281 3584 2069 3584 
Q 2775 3584 3186 3129 
Q 3597 2675 3597 1894 
z
M 3022 2063 
Q 3016 2534 2758 2815 
Q 2500 3097 2075 3097 
Q 1594 3097 1305 2825 
Q 1016 2553 972 2059 
L 3022 2063 
z
" transform="scale(0.015625)"/>
       <path id="DejaVuSans-20" transform="scale(0.015625)"/>
       <path id="DejaVuSans-28" d="M 1984 4856 
Q 1566 4138 1362 3434 
Q 1159 2731 1159 2009 
Q 1159 1288 1364 580 
Q 1569 -128 1984 -844 
L 1484 -844 
Q 1016 -109 783 600 
Q 550 1309 550 2009 
Q 550 2706 781 3412 
Q 1013 4119 1484 4856 
L 1984 4856 
z
" transform="scale(0.015625)"/>
       <path id="DejaVuSans-73" d="M 2834 3397 
L 2834 2853 
Q 2591 2978 2328 3040 
Q 2066 3103 1784 3103 
Q 1356 3103 1142 2972 
Q 928 2841 928 2578 
Q 928 2378 1081 2264 
Q 1234 2150 1697 2047 
L 1894 2003 
Q 2506 1872 2764 1633 
Q 3022 1394 3022 966 
Q 3022 478 2636 193 
Q 2250 -91 1575 -91 
Q 1294 -91 989 -36 
Q 684 19 347 128 
L 347 722 
Q 666 556 975 473 
Q 1284 391 1588 391 
Q 1994 391 2212 530 
Q 2431 669 2431 922 
Q 2431 1156 2273 1281 
Q 2116 1406 1581 1522 
L 1381 1569 
Q 847 1681 609 1914 
Q 372 2147 372 2553 
Q 372 3047 722 3315 
Q 1072 3584 1716 3584 
Q 2034 3584 2315 3537 
Q 2597 3491 2834 3397 
z
" transform="scale(0.015625)"/>
       <path id="DejaVuSans-29" d="M 513 4856 
L 1013 4856 
Q 1481 4119 1714 3412 
Q 1947 2706 1947 2009 
Q 1947 1309 1714 600 
Q 1481 -109 1013 -844 
L 513 -844 
Q 928 -128 1133 580 
Q 1338 1288 1338 2009 
Q 1338 2731 1133 3434 
Q 928 4138 513 4856 
z
" transform="scale(0.015625)"/>
      </defs>
      <use xlink:href="#DejaVuSans-54"/>
      <use xlink:href="#DejaVuSans-69" x="57.958984"/>
      <use xlink:href="#DejaVuSans-6d" x="85.742188"/>
      <use xlink:href="#DejaVuSans-65" x="183.154297"/>
      <use xlink:href="#DejaVuSans-20" x="244.677734"/>
      <use xlink:href="#DejaVuSans-28" x="276.464844"/>
      <use xlink:href="#DejaVuSans-6d" x="315.478516"/>
      <use xlink:href="#DejaVuSans-73" x="412.890625"/>
      <use xlink:href="#DejaVuSans-29" x="464.990234"/>
     </g>
    </g>
   </g>
   <g id="matplotlib.axis_2">
    <g id="ytick_1">
     <g id="line2d_8">
      <defs>
       <path id="mea2c4f9935" d="M 0 0 
L -3.5 0 
" style="stroke: #000000; stroke-width: 0.8"/>
      </defs>
      <g>
       <use xlink:href="#mea2c4f9935" x="56.09" y="166.077817" style="stroke: #000000; stroke-width: 0.8"/>
      </g>
     </g>
     <g id="text_9">
      <!-- −1.0 -->
      <g transform="translate(24.807188 169.877036) scale(0.1 -0.1)">
       <defs>
        <path id="DejaVuSans-2e" d="M 684 794 
L 1344 794 
L 1344 0 
L 684 0 
L 684 794 
z
" transform="scale(0.015625)"/>
       </defs>
       <use xlink:href="#DejaVuSans-2212"/>
       <use xlink:href="#DejaVuSans-31" x="83.789062"/>
       <use xlink:href="#DejaVuSans-2e" x="147.412109"/>
       <use xlink:href="#DejaVuSans-30" x="179.199219"/>
      </g>
     </g>
    </g>
    <g id="ytick_2">
     <g id="line2d_9">
      <g>
       <use xlink:href="#mea2c4f9935" x="56.09" y="133.211695" style="stroke: #000000; stroke-width: 0.8"/>
      </g>
     </g>
     <g id="text_10">
      <!-- −0.5 -->
      <g transform="translate(24.807188 137.010914) scale(0.1 -0.1)">
       <defs>
        <path id="DejaVuSans-35" d="M 691 4666 
L 3169 4666 
L 3169 4134 
L 1269 4134 
L 1269 2991 
Q 1406 3038 1543 3061 
Q 1681 3084 1819 3084 
Q 2600 3084 3056 2656 
Q 3513 2228 3513 1497 
Q 3513 744 3044 326 
Q 2575 -91 1722 -91 
Q 1428 -91 1123 -41 
Q 819 9 494 109 
L 494 744 
Q 775 591 1075 516 
Q 1375 441 1709 441 
Q 2250 441 2565 725 
Q 2881 1009 2881 1497 
Q 2881 1984 2565 2268 
Q 2250 2553 1709 2553 
Q 1456 2553 1204 2497 
Q 953 2441 691 2322 
L 691 4666 
z
" transform="scale(0.015625)"/>
       </defs>
       <use xlink:href="#DejaVuSans-2212"/>
       <use xlink:href="#DejaVuSans-30" x="83.789062"/>
       <use xlink:href="#DejaVuSans-2e" x="147.412109"/>
       <use xlink:href="#DejaVuSans-35" x="179.199219"/>
      </g>
     </g>
    </g>
    <g id="ytick_3">
     <g id="line2d_10">
      <g>
       <use xlink:href="#mea2c4f9935" x="56.09" y="100.345573" style="stroke: #000000; stroke-width: 0.8"/>
      </g>
     </g>
     <g id="text_11">
      <!-- 0.0 -->
      <g transform="translate(33.186875 104.144792) scale(0.1 -0.1)">
       <use xlink:href="#DejaVuSans-30"/>
       <use xlink:href="#DejaVuSans-2e" x="63.623047"/>
       <use xlink:href="#DejaVuSans-30" x="95.410156"/>
      </g>
     </g>
    </g>
    <g id="ytick_4">
     <g id="line2d_11">
      <g>
       <use xlink:href="#mea2c4f9935" x="56.09" y="67.479451" style="stroke: #000000; stroke-width: 0.8"/>
      </g>
     </g>
     <g id="text_12">
      <!-- 0.5 -->
      <g transform="translate(33.186875 71.27867) scale(0.1 -0.1)">
       <use xlink:href="#DejaVuSans-30"/>
       <use xlink:href="#DejaVuSans-2e" x="63.623047"/>
       <use xlink:href="#DejaVuSans-35" x="95.410156"/>
      </g>
     </g>
    </g>
    <g id="ytick_5">
     <g id="line2d_12">
      <g>
       <use xlink:href="#mea2c4f9935" x="56.09" y="34.613329" style="stroke: #000000; stroke-width: 0.8"/>
      </g>
     </g>
     <g id="text_13">
      <!-- 1.0 -->
      <g transform="translate(33.186875 38.412548) scale(0.1 -0.1)">
       <use xlink:href="#DejaVuSans-31"/>
       <use xlink:href="#DejaVuSans-2e" x="63.623047"/>
       <use xlink:href="#DejaVuSans-30" x="95.410156"/>
      </g>
     </g>
    </g>
    <g id="text_14">
     <!-- Amplitude (μV) -->
     <g transform="translate(18.7275 138.174844) rotate(-90) scale(0.1 -0.1)">
      <defs>
       <path id="DejaVuSans-41" d="M 2188 4044 
L 1331 1722 
L 3047 1722 
L 2188 4044 
z
M 1831 4666 
L 2547 4666 
L 4325 0 
L 3669 0 
L 3244 1197 
L 1141 1197 
L 716 0 
L 50 0 
L 1831 4666 
z
" transform="scale(0.015625)"/>
       <path id="DejaVuSans-70" d="M 1159 525 
L 1159 -1331 
L 581 -1331 
L 581 3500 
L 1159 3500 
L 1159 2969 
Q 1341 3281 1617 3432 
Q 1894 3584 2278 3584 
Q 2916 3584 3314 3078 
Q 3713 2572 3713 1747 
Q 3713 922 3314 415 
Q 2916 -91 2278 -91 
Q 1894 -91 1617 61 
Q 1341 213 1159 525 
z
M 3116 1747 
Q 3116 2381 2855 2742 
Q 2594 3103 2138 3103 
Q 1681 3103 1420 2742 
Q 1159 2381 1159 1747 
Q 1159 1113 1420 752 
Q 1681 391 2138 391 
Q 2594 391 2855 752 
Q 3116 1113 3116 1747 
z
" transform="scale(0.015625)"/>
       <path id="DejaVuSans-6c" d="M 603 4863 
L 1178 4863 
L 1178 0 
L 603 0 
L 603 4863 
z
" transform="scale(0.015625)"/>
       <path id="DejaVuSans-74" d="M 1172 4494 
L 1172 3500 
L 2356 3500 
L 2356 3053 
L 1172 3053 
L 1172 1153 
Q 1172 725 1289 603 
Q 1406 481 1766 481 
L 2356 481 
L 2356 0 
L 1766 0 
Q 1100 0 847 248 
Q 594 497 594 1153 
L 594 3053 
L 172 3053 
L 172 3500 
L 594 3500 
L 594 4494 
L 1172 4494 
z
" transform="scale(0.015625)"/>
       <path id="DejaVuSans-75" d="M 544 1381 
L 544 3500 
L 1119 3500 
L 1119 1403 
Q 1119 906 1312 657 
Q 1506 409 1894 409 
Q 2359 409 2629 706 
Q 2900 1003 2900 1516 
L 2900 3500 
L 3475 3500 
L 3475 0 
L 2900 0 
L 2900 538 
Q 2691 219 2414 64 
Q 2138 -91 1772 -91 
Q 1169 -91 856 284 
Q 544 659 544 1381 
z
M 1991 3584 
L 1991 3584 
z
" transform="scale(0.015625)"/>
       <path id="DejaVuSans-64" d="M 2906 2969 
L 2906 4863 
L 3481 4863 
L 3481 0 
L 2906 0 
L 2906 525 
Q 2725 213 2448 61 
Q 2172 -91 1784 -91 
Q 1150 -91 751 415 
Q 353 922 353 1747 
Q 353 2572 751 3078 
Q 1150 3584 1784 3584 
Q 2172 3584 2448 3432 
Q 2725 3281 2906 2969 
z
M 947 1747 
Q 947 1113 1208 752 
Q 1469 391 1925 391 
Q 2381 391 2643 752 
Q 2906 1113 2906 1747 
Q 2906 2381 2643 2742 
Q 2381 3103 1925 3103 
Q 1469 3103 1208 2742 
Q 947 2381 947 1747 
z
" transform="scale(0.015625)"/>
       <path id="DejaVuSans-3bc" d="M 544 -1331 
L 544 3500 
L 1119 3500 
L 1119 1325 
Q 1119 872 1334 640 
Q 1550 409 1972 409 
Q 2434 409 2667 671 
Q 2900 934 2900 1459 
L 2900 3500 
L 3475 3500 
L 3475 806 
Q 3475 619 3529 530 
Q 3584 441 3700 441 
Q 3728 441 3778 458 
Q 3828 475 3916 513 
L 3916 50 
Q 3788 -22 3673 -56 
Q 3559 -91 3450 -91 
Q 3234 -91 3106 31 
Q 2978 153 2931 403 
Q 2775 156 2548 32 
Q 2322 -91 2016 -91 
Q 1697 -91 1473 31 
Q 1250 153 1119 397 
L 1119 -1331 
L 544 -1331 
z
" transform="scale(0.015625)"/>
       <path id="DejaVuSans-56" d="M 1831 0 
L 50 4666 
L 709 4666 
L 2188 738 
L 3669 4666 
L 4325 4666 
L 2547 0 
L 1831 0 
z
" transform="scale(0.015625)"/>
      </defs>
      <use xlink:href="#DejaVuSans-41"/>
      <use xlink:href="#DejaVuSans-6d" x="68.408203"/>
      <use xlink:href="#DejaVuSans-70" x="165.820312"/>
      <use xlink:href="#DejaVuSans-6c" x="229.296875"/>
      <use xlink:href="#DejaVuSans-69" x="257.080078"/>
      <use xlink:href="#DejaVuSans-74" x="284.863281"/>
      <use xlink:href="#DejaVuSans-75" x="324.072266"/>
      <use xlink:href="#DejaVuSans-64" x="387.451172"/>
      <use xlink:href="#DejaVuSans-65" x="450.927734"/>
      <use xlink:href="#DejaVuSans-20" x="512.451172"/>
      <use xlink:href="#DejaVuSans-28" x="544.238281"/>
      <use xlink:href="#DejaVuSans-3bc" x="583.251953"/>
      <use xlink:href="#DejaVuSans-56" x="646.875"/>
      <use xlink:href="#DejaVuSans-29" x="715.283203"/>
     </g>
    </g>
   </g>
   <g id="line2d_13">
    <path d="M 56.09 109.469468 
L 56.323721 109.453068 
L 56.791162 109.041689 
L 57.258604 108.147371 
L 57.959767 106.030825 
L 58.89465 102.140158 
L 60.296975 95.982143 
L 60.764417 94.892666 
L 60.998137 94.715022 
L 61.231858 94.814 
L 61.465579 95.194413 
L 61.933021 96.719524 
L 63.569067 104.01505 
L 63.802788 104.464305 
L 64.036508 104.655838 
L 64.270229 104.589157 
L 64.50395 104.276275 
L 64.971392 103.002618 
L 65.672554 100.007456 
L 66.373717 96.928609 
L 66.841158 95.635272 
L 67.074879 95.364315 
L 67.3086 95.370859 
L 67.542321 95.645869 
L 68.009762 96.854011 
L 69.178367 100.697326 
L 69.645808 101.342133 
L 69.879529 101.391163 
L 70.346971 101.09546 
L 71.048133 100.444053 
L 71.515575 100.373474 
L 71.983017 100.650874 
L 72.450458 100.995164 
L 72.684179 101.068707 
L 72.9179 101.021919 
L 73.385342 100.51659 
L 74.553946 98.449561 
L 74.787667 98.372046 
L 75.021388 98.525266 
L 75.255108 98.925482 
L 75.72255 100.405933 
L 76.891154 105.09765 
L 77.124875 105.502605 
L 77.358596 105.554266 
L 77.592317 105.220701 
L 78.059758 103.430397 
L 78.760921 98.811033 
L 79.462083 94.136278 
L 79.929525 92.132434 
L 80.396967 91.308726 
L 80.630688 91.28163 
L 81.098129 91.724126 
L 82.734175 94.001855 
L 83.435338 95.050683 
L 84.837663 97.423504 
L 85.305104 97.67048 
L 85.772546 97.549508 
L 86.94115 96.830095 
L 87.408592 96.832056 
L 87.876033 97.135403 
L 88.343475 97.779365 
L 88.810917 98.813805 
L 89.512079 101.186389 
L 90.914404 106.76828 
L 91.381846 107.511537 
L 91.615567 107.505663 
L 91.849288 107.245218 
L 92.316729 106.062503 
L 93.485333 102.056158 
L 93.719054 101.678136 
L 93.952775 101.580341 
L 94.186496 101.780094 
L 94.653938 102.993221 
L 96.056263 108.22967 
L 96.289983 108.55437 
L 96.523704 108.612262 
L 96.757425 108.409969 
L 97.224867 107.341781 
L 99.328354 100.666314 
L 100.029517 99.545053 
L 100.9644 98.521099 
L 101.665563 98.121126 
L 103.301608 97.650833 
L 103.76905 96.985886 
L 105.171375 94.416848 
L 105.405096 94.324283 
L 105.638817 94.404453 
L 106.106258 95.050312 
L 106.807421 96.778532 
L 107.508583 98.467757 
L 107.976025 99.174183 
L 108.443467 99.453101 
L 108.910908 99.390202 
L 109.612071 99.163105 
L 110.079513 99.314813 
L 110.546954 99.879997 
L 111.248117 101.354657 
L 112.416721 103.961849 
L 113.585325 106.356211 
L 114.286488 108.548586 
L 115.221371 111.563103 
L 115.455092 111.989118 
L 115.688813 112.175246 
L 115.922533 112.086295 
L 116.156254 111.705816 
L 116.623696 110.108483 
L 117.324858 106.242941 
L 118.259742 101.10384 
L 118.727183 99.680511 
L 118.960904 99.390795 
L 119.194625 99.391738 
L 119.428346 99.667058 
L 119.895788 100.903013 
L 120.59695 103.753185 
L 122.232996 111.433847 
L 123.167879 117.301145 
L 124.336483 125.110132 
L 124.803925 127.054617 
L 125.037646 127.520934 
L 125.271367 127.578225 
L 125.505088 127.186351 
L 125.738808 126.31815 
L 126.20625 123.114508 
L 126.673692 118.034623 
L 127.374854 107.556067 
L 129.945783 64.262681 
L 130.646946 56.611543 
L 131.581829 49.132374 
L 132.750433 41.776303 
L 133.451596 38.768226 
L 133.685317 38.23239 
L 133.919038 37.997196 
L 134.152758 38.090596 
L 134.386479 38.529368 
L 134.853921 40.458334 
L 135.321363 43.746498 
L 136.022525 50.998416 
L 136.957408 64.011865 
L 139.528338 101.931127 
L 140.696942 116.479769 
L 141.398104 123.323591 
L 142.099267 127.991591 
L 142.800429 130.7199 
L 144.202754 134.90463 
L 145.8388 141.356776 
L 146.072521 141.725013 
L 146.306242 141.849869 
L 146.539963 141.749579 
L 147.007404 141.057316 
L 147.708567 139.767592 
L 148.176008 139.353955 
L 148.64345 139.370085 
L 149.110892 139.505508 
L 149.344613 139.486098 
L 149.578333 139.351355 
L 150.045775 138.672535 
L 151.4481 135.662443 
L 151.681821 135.581653 
L 151.915542 135.729687 
L 152.382983 136.697154 
L 153.084146 139.245674 
L 153.785308 141.626038 
L 154.25275 142.458815 
L 154.486471 142.608351 
L 154.720192 142.599192 
L 155.187633 142.209465 
L 155.888796 141.060748 
L 156.823679 138.929623 
L 157.524842 136.874331 
L 158.226004 134.190617 
L 160.329492 124.743333 
L 161.030654 123.160961 
L 161.731817 121.516624 
L 162.199258 119.845702 
L 164.069025 111.608154 
L 164.536467 110.68441 
L 165.003908 110.280646 
L 165.938792 109.810907 
L 166.406233 109.198302 
L 167.808558 106.558175 
L 168.042279 106.500812 
L 168.276 106.699442 
L 168.509721 107.189838 
L 168.977163 109.091964 
L 169.678325 113.86465 
L 170.846929 122.665002 
L 171.314371 125.013344 
L 171.781813 126.400427 
L 172.249254 126.984378 
L 172.716696 127.06979 
L 173.8853 126.888717 
L 174.586463 127.110737 
L 175.287625 127.621521 
L 176.68995 128.754145 
L 177.157392 128.840529 
L 177.624833 128.673691 
L 178.092275 128.259937 
L 178.793438 127.285699 
L 179.962042 125.177724 
L 180.663204 123.503786 
L 181.598088 120.463193 
L 182.29925 118.48378 
L 182.532971 118.162286 
L 182.766692 118.088806 
L 183.000413 118.284384 
L 183.467854 119.435588 
L 184.636458 123.590852 
L 184.870179 123.86042 
L 185.1039 123.743788 
L 185.337621 123.207842 
L 185.805063 120.950151 
L 187.441108 110.543087 
L 187.674829 110.103554 
L 187.90855 110.060411 
L 188.142271 110.379243 
L 188.609713 111.839111 
L 189.778317 116.255877 
L 190.012038 116.680261 
L 190.245758 116.86101 
L 190.479479 116.799 
L 190.7132 116.514516 
L 191.180642 115.436084 
L 192.816688 110.818825 
L 193.751571 108.42382 
L 195.387617 103.57558 
L 195.855058 103.099034 
L 196.088779 103.106464 
L 196.556221 103.517691 
L 197.724825 105.010155 
L 197.958546 105.076286 
L 198.192267 105.015807 
L 198.659708 104.553322 
L 199.828313 102.585984 
L 201.698079 99.698201 
L 201.9318 99.555813 
L 202.165521 99.58384 
L 202.399242 99.825256 
L 202.632963 100.311102 
L 203.100404 102.050812 
L 203.801567 106.129278 
L 204.502729 110.216998 
L 204.970171 111.776992 
L 205.203892 112.023311 
L 205.437613 111.890207 
L 205.671333 111.395451 
L 206.138775 109.517414 
L 207.774821 101.292188 
L 208.242263 100.299446 
L 208.475983 100.138772 
L 208.709704 100.200405 
L 208.943425 100.479053 
L 209.410867 101.651393 
L 209.878308 103.548628 
L 211.981796 113.653619 
L 212.449238 114.56903 
L 213.1504 115.677544 
L 213.617842 117.098419 
L 214.085283 119.521649 
L 215.020167 126.553811 
L 215.721329 131.061872 
L 216.188771 132.544033 
L 216.422492 132.792525 
L 216.656213 132.776256 
L 217.123654 132.287944 
L 217.591096 131.830498 
L 217.824817 131.817324 
L 218.058538 132.009134 
L 218.525979 133.000336 
L 219.928304 137.065459 
L 220.395746 137.447861 
L 220.863188 137.336464 
L 221.330629 137.143964 
L 221.56435 137.172652 
L 221.798071 137.357328 
L 222.265513 138.32208 
L 222.732954 140.047996 
L 223.667838 143.786676 
L 223.901558 144.213284 
L 224.135279 144.26129 
L 224.369 143.889195 
L 224.836442 141.915006 
L 225.537604 136.93503 
L 226.238767 132.199144 
L 226.706208 130.511515 
L 226.939929 130.277092 
L 227.17365 130.469967 
L 227.407371 131.080898 
L 227.874813 133.436474 
L 228.575975 138.996485 
L 229.510858 146.9033 
L 229.9783 149.525379 
L 230.212021 150.264199 
L 230.445742 150.570721 
L 230.679463 150.430757 
L 230.913183 149.85302 
L 231.380625 147.51943 
L 232.081788 142.008587 
L 233.250392 132.473266 
L 233.717833 129.964055 
L 234.185275 128.592264 
L 234.418996 128.328097 
L 234.652717 128.304718 
L 235.120158 128.734777 
L 235.5876 129.245842 
L 235.821321 129.311073 
L 236.055042 129.154221 
L 236.288763 128.734566 
L 236.756204 127.092077 
L 237.457367 123.25031 
L 238.39225 118.310452 
L 238.859692 116.723528 
L 239.327133 115.766925 
L 239.794575 115.282689 
L 240.262017 115.102875 
L 240.963179 115.13916 
L 241.898063 115.260992 
L 242.365504 115.133701 
L 242.832946 114.776923 
L 243.534108 113.788576 
L 244.702713 111.829019 
L 245.170154 111.513147 
L 245.403875 111.552154 
L 245.871317 112.05987 
L 246.338758 113.051405 
L 248.208525 117.642365 
L 248.675967 118.375586 
L 249.143408 118.69818 
L 249.377129 118.626832 
L 249.61085 118.35864 
L 250.078292 117.138957 
L 250.545733 114.98886 
L 252.649221 103.095564 
L 254.518988 96.423677 
L 255.453871 91.185854 
L 257.323638 79.989077 
L 258.0248 77.11719 
L 258.492242 75.94458 
L 258.959683 75.272125 
L 260.362008 73.915157 
L 260.82945 73.080568 
L 261.530613 71.267676 
L 263.166658 66.086041 
L 263.400379 65.720384 
L 263.6341 65.563564 
L 263.867821 65.633085 
L 264.101542 65.930518 
L 264.568983 67.122684 
L 265.737588 71.109022 
L 266.205029 71.809026 
L 266.43875 71.824957 
L 266.672471 71.632794 
L 267.139913 70.790062 
L 268.074796 68.889599 
L 268.542238 68.584631 
L 268.775958 68.64964 
L 269.2434 69.129423 
L 270.178283 70.412323 
L 270.412004 70.536971 
L 270.645725 70.504903 
L 270.879446 70.294516 
L 271.346888 69.328542 
L 272.04805 66.891962 
L 272.982933 63.73976 
L 273.450375 62.81243 
L 274.385258 61.739388 
L 275.086421 60.689298 
L 276.021304 59.159805 
L 276.488746 58.751145 
L 276.956188 58.624253 
L 277.65735 58.749508 
L 278.358513 59.160729 
L 278.825954 59.703819 
L 279.994558 61.422454 
L 280.228279 61.461619 
L 280.462 61.258835 
L 280.695721 60.772751 
L 281.163163 58.927337 
L 282.565488 51.330383 
L 282.799208 50.862852 
L 283.032929 50.819414 
L 283.26665 51.188198 
L 283.734092 52.896813 
L 284.668975 57.07226 
L 285.136417 58.044621 
L 285.370138 58.176787 
L 285.837579 58.029072 
L 286.305021 57.88841 
L 286.538742 57.996364 
L 287.006183 58.702194 
L 288.174788 61.508573 
L 288.408508 61.746077 
L 288.642229 61.770858 
L 288.87595 61.578811 
L 289.343392 60.63207 
L 290.278275 57.594662 
L 291.213158 54.858255 
L 291.6806 54.135904 
L 291.914321 54.032313 
L 292.148042 54.129979 
L 292.381763 54.439865 
L 292.849204 55.677021 
L 293.550367 58.713388 
L 295.653854 68.893934 
L 296.355017 71.383008 
L 296.822458 72.550968 
L 297.2899 73.147923 
L 297.523621 73.190384 
L 297.757342 73.053575 
L 298.224783 72.277611 
L 298.925946 70.264582 
L 300.09455 66.775442 
L 301.496875 63.494324 
L 302.198038 62.284289 
L 302.665479 61.997636 
L 302.8992 62.074614 
L 303.132921 62.316851 
L 303.600363 63.296008 
L 304.301525 65.740028 
L 305.470129 70.168726 
L 306.171292 71.915042 
L 306.872454 73.02284 
L 307.573617 73.736685 
L 308.041058 73.888464 
L 308.5085 73.677942 
L 309.910825 72.492055 
L 310.144546 72.579945 
L 310.378267 72.824178 
L 310.845708 73.838109 
L 311.31315 75.589176 
L 312.014313 79.335807 
L 312.715475 83.139703 
L 313.182917 84.652084 
L 313.416638 84.897056 
L 313.650358 84.758376 
L 313.884079 84.236133 
L 314.351521 82.174857 
L 315.987567 72.53835 
L 316.221288 72.158575 
L 316.455008 72.289662 
L 316.688729 72.972197 
L 317.156171 75.976964 
L 317.857333 83.474651 
L 318.558496 91.215958 
L 319.025938 94.625101 
L 319.259658 95.56597 
L 319.493379 95.982674 
L 319.7271 95.907042 
L 319.960821 95.398233 
L 320.428263 93.394947 
L 321.830588 85.733505 
L 322.298029 84.277364 
L 322.765471 83.465473 
L 323.466633 82.5507 
L 323.934075 81.415203 
L 324.401517 79.456133 
L 325.102679 74.950087 
L 326.738725 62.897984 
L 327.206167 60.991501 
L 327.439888 60.504597 
L 327.673608 60.344941 
L 327.907329 60.506903 
L 328.14105 60.973412 
L 328.608492 62.705404 
L 329.309654 66.789076 
L 330.478258 75.581911 
L 331.413142 83.935501 
L 332.348025 94.457242 
L 333.516629 108.193927 
L 334.217792 113.699838 
L 334.685233 115.607443 
L 334.918954 116.062926 
L 335.152675 116.23948 
L 335.386396 116.195797 
L 336.555 115.326082 
L 336.788721 115.564304 
L 336.788721 115.564304 
" clip-path="url(#p1a8f86092e)" style="fill: none; stroke: #000080; stroke-linecap: square"/>
   </g>
   <g id="line2d_14">
    <path d="M 56.09 96.966902 
L 56.557442 95.816886 
L 57.024883 95.250149 
L 57.258604 95.196623 
L 57.726046 95.422873 
L 58.427208 95.938456 
L 58.89465 95.923744 
L 59.362092 95.416708 
L 59.829533 94.404047 
L 61.465579 89.731728 
L 61.6993 89.532028 
L 61.933021 89.582773 
L 62.166742 89.894845 
L 62.634183 91.234731 
L 64.036508 96.797013 
L 64.50395 97.518529 
L 64.737671 97.532351 
L 64.971392 97.328531 
L 65.438833 96.393374 
L 66.607438 93.2726 
L 67.074879 92.788937 
L 67.3086 92.848606 
L 67.542321 93.117596 
L 68.009762 94.221611 
L 69.645808 99.25806 
L 69.879529 99.392442 
L 70.11325 99.260392 
L 70.346971 98.856328 
L 70.814413 97.307229 
L 72.216738 91.184507 
L 72.450458 90.778767 
L 72.684179 90.701021 
L 72.9179 90.95641 
L 73.385342 92.343612 
L 74.553946 97.191294 
L 74.787667 97.628507 
L 75.021388 97.724436 
L 75.255108 97.466453 
L 75.72255 96.017301 
L 76.891154 91.22139 
L 77.124875 90.909394 
L 77.358596 90.976936 
L 77.592317 91.431316 
L 78.059758 93.355734 
L 79.695804 102.532808 
L 80.163246 103.902112 
L 80.630688 104.618628 
L 81.098129 104.837188 
L 81.565571 104.637634 
L 82.033013 104.011935 
L 82.500454 102.916586 
L 83.201617 100.417967 
L 84.370221 95.629834 
L 84.837663 94.623864 
L 85.071383 94.541373 
L 85.305104 94.79653 
L 85.538825 95.411158 
L 86.006267 97.710919 
L 86.707429 103.2413 
L 87.876033 113.023826 
L 88.343475 115.514151 
L 88.810917 116.892 
L 89.278358 117.353993 
L 89.7458 117.252781 
L 90.914404 116.613088 
L 91.615567 116.364143 
L 92.083008 115.934257 
L 92.55045 115.066723 
L 93.251613 112.891556 
L 94.420217 108.775485 
L 94.887658 107.712618 
L 96.289983 105.249191 
L 96.757425 103.610619 
L 98.15975 97.483529 
L 98.393471 96.983215 
L 98.627192 96.793157 
L 98.860913 96.932766 
L 99.094633 97.397258 
L 99.562075 99.157168 
L 100.9644 105.849684 
L 101.198121 106.358307 
L 101.431842 106.56704 
L 101.665563 106.479777 
L 101.899283 106.128409 
L 102.366725 104.868453 
L 103.067888 102.752587 
L 103.535329 101.95842 
L 103.76905 101.826827 
L 104.002771 101.853488 
L 104.470213 102.22786 
L 106.106258 104.085541 
L 106.5737 105.190711 
L 107.041142 107.056218 
L 107.742304 111.27293 
L 108.910908 118.956564 
L 109.37835 120.982248 
L 109.845792 122.11792 
L 110.079513 122.364212 
L 110.313233 122.411709 
L 110.546954 122.271778 
L 111.014396 121.456925 
L 111.481838 119.963834 
L 112.183 116.587333 
L 113.351604 109.084951 
L 114.286488 103.322634 
L 114.753929 101.316741 
L 115.221371 100.275587 
L 115.455092 100.167426 
L 115.688813 100.336965 
L 116.156254 101.429576 
L 116.857417 104.367973 
L 118.493463 111.842115 
L 121.531833 124.426481 
L 122.232996 128.53119 
L 123.869042 139.276353 
L 124.336483 141.00425 
L 124.570204 141.41438 
L 124.803925 141.480322 
L 125.037646 141.180136 
L 125.271367 140.500356 
L 125.738808 137.987435 
L 126.20625 133.98853 
L 126.907413 125.547647 
L 128.076017 107.371103 
L 129.244621 89.661389 
L 130.179504 79.038596 
L 131.114388 71.43039 
L 132.282992 64.151173 
L 132.984154 60.725691 
L 133.451596 59.106172 
L 133.919038 58.340858 
L 134.152758 58.385673 
L 134.386479 58.770659 
L 134.6202 59.531285 
L 135.087642 62.266248 
L 135.555083 66.641671 
L 136.256246 75.867463 
L 139.294617 121.796083 
L 141.398104 144.736252 
L 142.566708 156.386651 
L 143.03415 159.465876 
L 143.501592 161.274786 
L 143.969033 161.973796 
L 144.436475 162.008107 
L 144.903917 161.94192 
L 145.137638 162.020635 
L 145.605079 162.538492 
L 146.773683 164.631232 
L 147.007404 164.754022 
L 147.241125 164.677496 
L 147.474846 164.395233 
L 147.942288 163.289816 
L 149.578333 158.164231 
L 150.045775 157.412525 
L 150.513217 157.069548 
L 150.980658 157.008905 
L 152.616704 157.249527 
L 153.084146 157.49115 
L 153.551588 158.034468 
L 154.019029 158.990949 
L 154.720192 161.245524 
L 156.122517 166.523764 
L 156.589958 167.311262 
L 156.823679 167.350909 
L 157.0574 167.135149 
L 157.524842 165.966052 
L 158.226004 162.834083 
L 159.160888 158.296633 
L 159.628329 156.760294 
L 160.095771 155.822324 
L 160.796933 154.744856 
L 161.264375 153.435671 
L 161.731817 151.141268 
L 162.432979 145.925869 
L 163.367863 138.634704 
L 163.835304 136.448393 
L 164.069025 135.910617 
L 164.302746 135.744905 
L 164.536467 135.91601 
L 165.003908 137.008102 
L 165.938792 139.73552 
L 166.172513 140.066484 
L 166.406233 140.167277 
L 166.639954 140.036266 
L 167.107396 139.191149 
L 168.042279 136.822733 
L 168.276 136.504555 
L 168.509721 136.427044 
L 168.743442 136.63419 
L 168.977163 137.152973 
L 169.444604 139.124573 
L 170.145767 143.860749 
L 171.08065 150.478171 
L 171.548092 152.687459 
L 172.015533 153.991143 
L 173.651579 157.082001 
L 174.820183 160.401856 
L 175.053904 160.646882 
L 175.287625 160.637508 
L 175.521346 160.359595 
L 175.988788 159.056363 
L 177.624833 152.516723 
L 177.858554 152.131623 
L 178.092275 151.970875 
L 178.325996 152.018621 
L 178.793438 152.590064 
L 179.4946 153.764088 
L 179.728321 153.960538 
L 179.962042 153.941585 
L 180.195763 153.644857 
L 180.429483 153.021425 
L 180.896925 150.680426 
L 181.364367 146.913395 
L 183.234133 128.564977 
L 183.701575 126.361172 
L 184.169017 125.479077 
L 184.402738 125.39288 
L 185.337621 125.543737 
L 185.571342 125.35973 
L 186.038783 124.497838 
L 186.739946 122.273419 
L 187.441108 120.060615 
L 187.90855 119.185489 
L 188.375992 118.91011 
L 189.544596 118.991816 
L 189.778317 118.706198 
L 190.245758 117.521549 
L 190.7132 115.560801 
L 191.881804 109.893798 
L 192.349246 108.565263 
L 192.816688 108.033211 
L 193.284129 108.013425 
L 193.751571 108.029913 
L 193.985292 107.912041 
L 194.452733 107.274871 
L 195.153896 105.494525 
L 195.855058 103.683534 
L 196.556221 102.499044 
L 197.023663 101.720281 
L 197.491104 100.463524 
L 197.958546 98.448478 
L 198.659708 94.164614 
L 199.594592 88.441928 
L 200.062033 86.761834 
L 200.295754 86.348791 
L 200.529475 86.214733 
L 200.763196 86.327312 
L 201.230638 87.065153 
L 201.9318 88.303534 
L 202.165521 88.434622 
L 202.399242 88.319689 
L 202.632963 87.923989 
L 203.100404 86.277577 
L 203.801567 82.255551 
L 204.73645 76.911754 
L 205.203892 75.301991 
L 205.671333 74.552441 
L 206.138775 74.411789 
L 206.839938 74.39275 
L 207.073658 74.220967 
L 207.5411 73.440772 
L 208.242263 71.347574 
L 208.943425 69.351596 
L 209.177146 69.007096 
L 209.410867 68.897508 
L 209.644588 69.034872 
L 210.112029 69.974943 
L 211.514354 74.169632 
L 211.981796 74.662737 
L 212.215517 74.657744 
L 212.682958 74.236539 
L 213.851563 72.589663 
L 214.085283 72.524095 
L 214.319004 72.634023 
L 214.552725 72.933356 
L 215.020167 74.071542 
L 216.889933 80.183217 
L 217.357375 80.793917 
L 217.824817 81.028261 
L 219.460863 81.364545 
L 219.928304 81.843576 
L 220.395746 82.67665 
L 220.863188 84.002415 
L 221.330629 85.92488 
L 222.265513 91.145965 
L 223.200396 96.147692 
L 223.901558 98.742886 
L 224.602721 100.392704 
L 225.070163 101.009871 
L 225.537604 101.200356 
L 225.771325 101.121921 
L 226.238767 100.61582 
L 226.706208 99.678945 
L 227.407371 97.654309 
L 228.342254 94.749881 
L 228.809696 93.972647 
L 229.043417 93.926002 
L 229.277138 94.148735 
L 229.744579 95.402905 
L 230.445742 98.706847 
L 231.146904 102.042156 
L 231.614346 103.458674 
L 232.081788 104.056413 
L 232.549229 104.036748 
L 233.484113 103.613546 
L 233.951554 103.75479 
L 234.418996 104.202193 
L 235.821321 105.920857 
L 236.055042 106.005157 
L 236.288763 105.9667 
L 236.522483 105.789163 
L 236.989925 104.989662 
L 237.457367 103.651552 
L 239.327133 97.488465 
L 239.794575 96.921007 
L 240.262017 96.845823 
L 240.963179 97.051603 
L 241.1969 97.005604 
L 241.430621 96.816825 
L 241.664342 96.44176 
L 242.131783 95.009115 
L 242.599225 92.589632 
L 243.300388 87.485553 
L 244.235271 80.543034 
L 244.702713 78.367821 
L 244.936433 77.794718 
L 245.170154 77.59353 
L 245.403875 77.75988 
L 245.637596 78.274564 
L 246.105038 80.195496 
L 247.039921 85.926833 
L 247.741083 89.549748 
L 248.208525 90.624053 
L 248.442246 90.645879 
L 248.675967 90.320257 
L 249.143408 88.735972 
L 249.844571 84.848587 
L 250.779454 79.831841 
L 251.246896 78.440834 
L 251.714338 77.903302 
L 252.181779 77.86909 
L 252.649221 77.810917 
L 252.882942 77.620468 
L 253.350383 76.7582 
L 254.051546 74.460772 
L 254.752708 72.089017 
L 255.22015 71.042485 
L 255.687592 70.455121 
L 256.622475 69.529825 
L 257.089917 68.661186 
L 258.0248 66.148744 
L 259.894567 60.583689 
L 260.595729 57.241237 
L 261.998054 49.780309 
L 262.465496 48.178613 
L 262.932938 47.324664 
L 263.166658 47.183362 
L 263.400379 47.222209 
L 263.6341 47.427909 
L 264.101542 48.271769 
L 264.802704 50.300815 
L 265.971308 53.820855 
L 266.43875 54.460472 
L 266.672471 54.501732 
L 266.906192 54.34523 
L 267.373633 53.456423 
L 267.841075 51.887385 
L 268.542238 48.56898 
L 270.178283 40.112136 
L 270.645725 38.848242 
L 270.879446 38.574249 
L 271.113167 38.558758 
L 271.346888 38.802652 
L 271.814329 40.002675 
L 272.515492 42.949305 
L 273.216654 45.69594 
L 273.684096 46.542483 
L 273.917817 46.549598 
L 274.151538 46.266967 
L 274.618979 44.900946 
L 275.320142 41.549357 
L 276.021304 38.409411 
L 276.488746 37.468611 
L 276.722467 37.484011 
L 276.956188 37.8264 
L 277.423629 39.337795 
L 278.825954 45.272596 
L 279.293396 46.079143 
L 279.527117 46.190437 
L 279.760838 46.145995 
L 280.228279 45.759395 
L 281.396883 44.577034 
L 282.331767 43.658038 
L 283.734092 41.910793 
L 284.201533 41.868586 
L 285.370138 42.342791 
L 285.837579 42.024395 
L 286.538742 41.280607 
L 286.772463 41.264075 
L 287.006183 41.521875 
L 287.239904 42.139516 
L 287.707346 44.650318 
L 288.174788 48.792542 
L 289.343392 60.853672 
L 289.810833 63.375294 
L 290.044554 63.741379 
L 290.278275 63.494935 
L 290.511996 62.681795 
L 290.979438 59.749529 
L 291.914321 52.746544 
L 292.381763 50.869168 
L 292.615483 50.585651 
L 292.849204 50.724329 
L 293.082925 51.226829 
L 293.550367 52.966267 
L 294.251529 55.819117 
L 294.718971 56.800314 
L 294.952692 56.854574 
L 295.186413 56.610894 
L 295.653854 55.37586 
L 296.588738 52.048424 
L 296.822458 51.55501 
L 297.056179 51.338352 
L 297.2899 51.433434 
L 297.523621 51.84714 
L 297.991063 53.53344 
L 299.393388 60.359861 
L 299.627108 60.875422 
L 299.860829 61.065825 
L 300.09455 60.93363 
L 300.328271 60.51115 
L 300.795713 59.052221 
L 301.730596 55.943733 
L 302.198038 55.243664 
L 302.431758 55.157239 
L 302.8992 55.371372 
L 304.067804 56.347166 
L 304.768967 56.513151 
L 305.470129 56.7323 
L 306.171292 57.272007 
L 307.339896 58.560396 
L 307.807338 59.347083 
L 308.274779 60.505627 
L 308.975942 63.059943 
L 309.910825 66.759488 
L 310.378267 67.655601 
L 310.611988 67.660879 
L 310.845708 67.3325 
L 311.31315 65.691882 
L 312.014313 61.426283 
L 312.715475 56.999386 
L 313.182917 55.295073 
L 313.416638 55.049303 
L 313.650358 55.248442 
L 313.884079 55.877973 
L 314.351521 58.194611 
L 315.286404 63.948496 
L 315.753846 65.36461 
L 315.987567 65.394701 
L 316.221288 64.955113 
L 316.688729 62.904586 
L 317.623613 57.785997 
L 317.857333 57.177529 
L 318.091054 57.061968 
L 318.324775 57.476935 
L 318.792217 59.793061 
L 320.428263 71.862082 
L 320.661983 72.470166 
L 320.895704 72.601828 
L 321.129425 72.274789 
L 321.596867 70.467652 
L 323.232913 61.456555 
L 323.700354 60.506994 
L 323.934075 60.392331 
L 324.167796 60.463734 
L 325.3364 61.374051 
L 325.570121 61.225274 
L 325.803842 60.861663 
L 326.271283 59.440829 
L 326.972446 55.839793 
L 327.907329 50.581219 
L 328.374771 49.170177 
L 328.608492 49.020115 
L 328.842213 49.294596 
L 329.075933 50.006504 
L 329.543375 52.679096 
L 330.244538 59.094808 
L 332.348025 80.512606 
L 333.282908 87.746941 
L 333.984071 91.977593 
L 334.918954 95.990408 
L 335.620117 99.186382 
L 336.321279 104.038383 
L 336.788721 108.086494 
L 336.788721 108.086494 
" clip-path="url(#p1a8f86092e)" style="fill: none; stroke: #006400; stroke-linecap: square"/>
   </g>
   <g id="line2d_15">
    <path d="M 56.09 100.2814 
L 56.557442 102.120698 
L 56.791162 102.655059 
L 57.024883 102.898841 
L 57.258604 102.851894 
L 57.492325 102.535921 
L 57.959767 101.302659 
L 58.660929 99.15843 
L 58.89465 98.718997 
L 59.128371 98.532014 
L 59.362092 98.629156 
L 59.595813 99.009899 
L 60.063254 100.468512 
L 60.998137 103.943615 
L 61.231858 104.411227 
L 61.465579 104.594856 
L 61.6993 104.479807 
L 61.933021 104.083375 
L 62.400463 102.648231 
L 63.335346 99.460456 
L 63.569067 99.080588 
L 63.802788 98.985683 
L 64.036508 99.192221 
L 64.50395 100.421294 
L 65.672554 104.672487 
L 65.906275 104.987315 
L 66.139996 104.980966 
L 66.373717 104.652116 
L 66.841158 103.186888 
L 67.776042 99.441432 
L 68.009762 98.898502 
L 68.243483 98.653155 
L 68.477204 98.728327 
L 68.710925 99.116101 
L 69.178367 100.662183 
L 70.580692 106.544327 
L 71.048133 107.402006 
L 71.281854 107.489818 
L 71.515575 107.339624 
L 71.749296 106.951858 
L 72.216738 105.515787 
L 72.9179 102.203343 
L 73.852783 97.907694 
L 74.320225 96.670573 
L 74.787667 96.124414 
L 75.255108 95.996468 
L 75.72255 95.910437 
L 76.189992 95.596293 
L 76.891154 94.687849 
L 77.592317 93.871349 
L 78.059758 93.740603 
L 78.5272 94.03936 
L 79.228363 95.065787 
L 79.929525 95.987015 
L 80.163246 96.071685 
L 80.396967 95.98124 
L 80.630688 95.694559 
L 81.098129 94.541217 
L 82.500454 89.905379 
L 82.734175 89.669829 
L 82.967896 89.705207 
L 83.201617 89.999123 
L 83.669058 91.180371 
L 84.603942 93.837733 
L 84.837663 94.146575 
L 85.071383 94.229903 
L 85.305104 94.082923 
L 85.772546 93.198025 
L 86.94115 90.273101 
L 87.174871 90.09979 
L 87.408592 90.17529 
L 87.642313 90.514971 
L 88.109754 91.967755 
L 88.810917 95.668016 
L 90.446963 105.482229 
L 91.148125 108.133888 
L 91.849288 109.836315 
L 93.485333 112.933205 
L 93.952775 113.272615 
L 94.186496 113.229691 
L 94.420217 113.029011 
L 94.887658 112.168535 
L 95.588821 109.986594 
L 97.692308 102.50385 
L 98.393471 101.036266 
L 99.094633 100.252791 
L 99.795796 99.897329 
L 100.263238 99.873023 
L 100.730679 100.05923 
L 102.133004 101.08468 
L 102.600446 101.026069 
L 103.76905 100.494318 
L 104.002771 100.616735 
L 104.470213 101.302201 
L 104.937654 102.531834 
L 106.106258 106.104713 
L 106.5737 106.817162 
L 106.807421 106.910092 
L 107.041142 106.824246 
L 107.508583 106.158414 
L 107.976025 104.944093 
L 108.677188 102.346487 
L 109.845792 96.74033 
L 110.546954 93.777008 
L 111.014396 92.708934 
L 111.248117 92.562908 
L 111.481838 92.699246 
L 111.715558 93.116533 
L 112.183 94.700288 
L 113.117883 99.514192 
L 113.819046 102.755886 
L 114.286488 104.115408 
L 114.753929 104.75612 
L 115.221371 104.864227 
L 115.922533 104.790073 
L 116.389975 105.055167 
L 116.857417 105.689925 
L 117.7923 107.221226 
L 118.259742 107.586656 
L 119.428346 107.846097 
L 119.662067 108.165167 
L 120.129508 109.410395 
L 120.59695 111.495037 
L 122.700438 122.929982 
L 124.336483 128.749138 
L 125.505088 133.959824 
L 125.738808 134.446601 
L 125.972529 134.51388 
L 126.20625 134.06872 
L 126.439971 133.038743 
L 126.907413 129.061705 
L 127.374854 122.585325 
L 128.309738 104.60805 
L 129.478342 82.566495 
L 130.179504 73.310083 
L 131.114388 64.507256 
L 132.750433 51.554011 
L 133.217875 49.316965 
L 133.451596 48.708211 
L 133.685317 48.47759 
L 133.919038 48.631193 
L 134.152758 49.157689 
L 134.6202 51.211463 
L 135.321363 56.148843 
L 136.489967 66.690074 
L 138.126013 83.379102 
L 139.060896 95.077322 
L 140.2295 113.399588 
L 141.398104 130.94838 
L 142.099267 137.920461 
L 142.566708 140.76646 
L 143.03415 142.402394 
L 143.501592 143.174744 
L 143.969033 143.461803 
L 144.670196 143.770356 
L 145.137638 144.395885 
L 145.605079 145.707936 
L 146.072521 147.857514 
L 147.007404 153.974764 
L 147.708567 158.076816 
L 148.176008 159.460604 
L 148.409729 159.637238 
L 148.64345 159.483331 
L 149.110892 158.371661 
L 150.279496 154.426552 
L 150.513217 154.038539 
L 150.746938 153.899099 
L 150.980658 154.018365 
L 151.214379 154.384602 
L 151.681821 155.706384 
L 152.616704 158.896 
L 153.084146 159.655027 
L 153.317867 159.67022 
L 153.551588 159.443393 
L 154.019029 158.414321 
L 154.953913 155.908958 
L 155.421354 155.369161 
L 155.655075 155.339495 
L 156.122517 155.599207 
L 156.823679 156.054443 
L 157.291121 155.989656 
L 157.758563 155.578332 
L 158.693446 154.204561 
L 159.394608 152.82807 
L 159.86205 151.442409 
L 160.329492 149.435419 
L 161.030654 145.302587 
L 162.199258 138.01984 
L 162.900421 134.987689 
L 163.601583 133.022219 
L 164.069025 132.155606 
L 164.536467 131.643383 
L 165.003908 131.543581 
L 165.47135 131.87727 
L 165.938792 132.587264 
L 168.042279 136.527221 
L 168.977163 137.42244 
L 169.444604 138.390682 
L 169.912046 140.059923 
L 170.846929 144.864955 
L 171.548092 147.849747 
L 172.015533 148.723776 
L 172.249254 148.783194 
L 172.482975 148.618909 
L 172.950417 147.797296 
L 173.8853 145.709292 
L 174.352742 145.106153 
L 174.820183 144.867689 
L 175.521346 144.65842 
L 175.988788 144.157284 
L 176.456229 143.137522 
L 177.157392 140.780768 
L 178.092275 137.613771 
L 178.559717 136.705906 
L 179.027158 136.356108 
L 179.728321 136.214592 
L 179.962042 136.012629 
L 180.195763 135.621726 
L 180.663204 134.096402 
L 181.130646 131.511974 
L 183.000413 118.800301 
L 183.467854 117.406622 
L 183.701575 117.108673 
L 183.935296 117.055156 
L 184.169017 117.215303 
L 184.636458 117.990217 
L 185.337621 119.313759 
L 185.571342 119.495781 
L 185.805063 119.429687 
L 186.038783 119.061351 
L 186.506225 117.307128 
L 186.973667 114.246575 
L 188.843433 99.017834 
L 189.310875 97.393034 
L 189.544596 97.10059 
L 189.778317 97.116076 
L 190.012038 97.383058 
L 191.180642 99.684042 
L 191.414363 99.755756 
L 191.648083 99.550258 
L 191.881804 99.041444 
L 192.349246 97.119845 
L 193.050408 92.445413 
L 195.387617 74.483158 
L 196.088779 71.216728 
L 196.556221 69.939733 
L 197.023663 69.24563 
L 198.192267 68.103497 
L 198.659708 66.962891 
L 199.12715 64.949727 
L 199.594592 61.878959 
L 200.295754 55.500182 
L 201.464358 44.380858 
L 201.9318 41.616886 
L 202.399242 40.326455 
L 202.632963 40.19956 
L 202.866683 40.359649 
L 203.334125 41.280479 
L 204.269008 43.596384 
L 204.73645 44.084468 
L 204.970171 44.040025 
L 205.203892 43.788084 
L 205.671333 42.69029 
L 206.372496 39.929132 
L 207.5411 34.987897 
L 208.008542 33.845363 
L 208.242263 33.586974 
L 208.475983 33.569091 
L 208.709704 33.809654 
L 208.943425 34.320965 
L 209.410867 36.170067 
L 209.878308 39.065619 
L 210.813192 46.974973 
L 211.748075 54.589273 
L 212.215517 57.102633 
L 212.682958 58.469196 
L 212.916679 58.748448 
L 213.1504 58.803216 
L 213.617842 58.428502 
L 214.552725 57.246295 
L 214.786446 57.143404 
L 215.020167 57.189691 
L 215.253888 57.408126 
L 215.721329 58.407998 
L 216.188771 60.147703 
L 216.889933 63.815575 
L 218.058538 70.355728 
L 218.525979 72.227965 
L 218.993421 73.434935 
L 219.460863 74.098726 
L 220.395746 75.040662 
L 220.863188 75.884144 
L 221.56435 77.859659 
L 223.434117 83.905336 
L 224.602721 86.860759 
L 225.070163 88.730936 
L 225.771325 92.696526 
L 226.706208 98.29781 
L 227.17365 99.951992 
L 227.407371 100.299677 
L 227.641092 100.30587 
L 227.874813 99.984146 
L 228.342254 98.531431 
L 229.510858 93.893294 
L 229.744579 93.486738 
L 229.9783 93.390362 
L 230.212021 93.611735 
L 230.679463 94.889262 
L 232.081788 100.113127 
L 232.315508 100.453902 
L 232.549229 100.581862 
L 232.78295 100.534128 
L 233.717833 99.862047 
L 233.951554 99.914022 
L 234.185275 100.151443 
L 234.652717 101.212261 
L 235.353879 103.825621 
L 236.055042 106.345248 
L 236.522483 107.293726 
L 236.756204 107.477158 
L 236.989925 107.472176 
L 237.457367 106.99688 
L 239.093413 104.332785 
L 239.560854 104.185603 
L 240.028296 104.36591 
L 240.729458 104.784307 
L 240.963179 104.801071 
L 241.1969 104.68179 
L 241.430621 104.386392 
L 241.898063 103.163496 
L 242.365504 101.089414 
L 244.00155 92.676039 
L 244.468992 91.786875 
L 244.936433 91.596061 
L 245.403875 91.59337 
L 245.637596 91.478747 
L 245.871317 91.201814 
L 246.338758 89.989293 
L 246.8062 87.804623 
L 247.507363 83.109717 
L 248.442246 76.660762 
L 248.909688 74.571381 
L 249.143408 73.975351 
L 249.377129 73.69262 
L 249.61085 73.709437 
L 249.844571 73.993684 
L 250.312013 75.180295 
L 251.714338 79.855607 
L 252.181779 80.535263 
L 252.4155 80.557198 
L 252.649221 80.344569 
L 253.116663 79.218764 
L 253.584104 77.300583 
L 255.22015 69.648536 
L 255.921313 67.833793 
L 256.622475 66.812906 
L 260.362008 63.037322 
L 261.296892 62.675485 
L 261.998054 62.55475 
L 262.465496 62.682686 
L 262.932938 63.07304 
L 263.6341 64.064908 
L 264.568983 65.408332 
L 265.270146 65.972709 
L 265.737588 66.126214 
L 266.205029 66.106588 
L 266.672471 65.855496 
L 267.139913 65.30216 
L 267.841075 63.950554 
L 268.542238 62.515049 
L 269.009679 61.943391 
L 269.477121 61.852983 
L 269.944563 62.13634 
L 270.412004 62.471343 
L 270.645725 62.534489 
L 270.879446 62.470964 
L 271.113167 62.252494 
L 271.580608 61.32742 
L 272.515492 58.305151 
L 272.982933 56.985519 
L 273.450375 56.198547 
L 273.917817 55.913419 
L 274.618979 55.685422 
L 275.086421 55.054374 
L 275.553863 53.778298 
L 276.255025 50.937008 
L 277.189908 47.318748 
L 277.65735 46.396661 
L 277.891071 46.250253 
L 278.124792 46.318865 
L 278.358513 46.592028 
L 278.825954 47.659651 
L 280.228279 51.788731 
L 280.462 52.042242 
L 280.695721 52.061931 
L 280.929442 51.841524 
L 281.396883 50.766575 
L 282.565488 47.186727 
L 282.799208 46.895723 
L 283.032929 46.875971 
L 283.26665 47.147262 
L 283.734092 48.552709 
L 284.201533 50.920428 
L 285.837579 60.40545 
L 286.0713 61.026064 
L 286.305021 61.276905 
L 286.538742 61.120552 
L 286.772463 60.543408 
L 287.239904 58.212223 
L 288.87595 46.892053 
L 289.109671 46.197674 
L 289.343392 45.881146 
L 289.577113 45.911655 
L 289.810833 46.231141 
L 290.511996 48.083294 
L 290.979438 49.206922 
L 291.446879 49.733527 
L 291.914321 49.680382 
L 292.615483 49.352559 
L 292.849204 49.400412 
L 293.316646 49.890535 
L 294.251529 51.470221 
L 294.48525 51.602443 
L 294.718971 51.50217 
L 294.952692 51.141357 
L 295.420133 49.666691 
L 296.121296 46.242537 
L 297.056179 41.721122 
L 297.523621 40.238767 
L 297.757342 39.818911 
L 297.991063 39.66261 
L 298.224783 39.805119 
L 298.458504 40.274326 
L 298.925946 42.251175 
L 299.393388 45.535767 
L 300.795713 57.510444 
L 301.263154 59.249499 
L 301.496875 59.292466 
L 301.730596 58.756701 
L 302.198038 56.092965 
L 302.8992 49.519379 
L 303.600363 43.022261 
L 304.067804 40.398858 
L 304.301525 39.839046 
L 304.535246 39.818055 
L 304.768967 40.323643 
L 305.236408 42.727932 
L 305.937571 48.573509 
L 306.872454 56.465125 
L 307.339896 59.148264 
L 307.807338 60.742483 
L 308.274779 61.438824 
L 308.742221 61.622638 
L 309.443383 61.780508 
L 309.910825 62.119479 
L 311.079429 63.183146 
L 311.31315 63.152531 
L 311.546871 62.951103 
L 312.014313 61.961924 
L 312.481754 60.252381 
L 313.416638 56.455109 
L 313.650358 55.941777 
L 313.884079 55.782803 
L 314.1178 56.042628 
L 314.351521 56.758457 
L 314.818963 59.547329 
L 315.520125 66.334648 
L 316.92245 81.090088 
L 317.623613 85.95987 
L 318.091054 87.879051 
L 318.324775 88.405048 
L 318.558496 88.622333 
L 318.792217 88.519763 
L 319.025938 88.091326 
L 319.493379 86.290863 
L 320.194542 81.815263 
L 321.129425 75.913388 
L 321.596867 74.525051 
L 321.830588 74.339961 
L 322.064308 74.440866 
L 322.999192 75.617261 
L 323.232913 75.46741 
L 323.466633 74.91977 
L 323.934075 72.445518 
L 324.401517 68.277839 
L 325.570121 56.268128 
L 326.037563 53.788496 
L 326.271283 53.442067 
L 326.505004 53.711668 
L 326.738725 54.557963 
L 327.206167 57.6103 
L 328.374771 66.673216 
L 328.842213 68.458164 
L 329.075933 68.836035 
L 329.309654 68.946716 
L 329.777096 68.724503 
L 330.244538 68.54934 
L 330.478258 68.679158 
L 330.711979 69.0169 
L 331.179421 70.329201 
L 333.984071 81.387521 
L 334.451513 85.152102 
L 335.152675 93.814183 
L 336.555 113.656552 
L 336.788721 115.763397 
L 336.788721 115.763397 
" clip-path="url(#p1a8f86092e)" style="fill: none; stroke: #b22222; stroke-linecap: square"/>
   </g>
   <g id="line2d_16">
    <path d="M 102.834167 174.04 
L 102.834167 26.88 
" clip-path="url(#p1a8f86092e)" style="fill: none; stroke-dasharray: 1.85,0.8; stroke-dashoffset: 0; stroke: #000000; stroke-opacity: 0.7; stroke-width: 0.5"/>
   </g>
   <g id="patch_4">
    <path d="M 56.09 174.04 
L 56.09 26.88 
" style="fill: none; stroke: #000000; stroke-width: 0.8; stroke-linejoin: miter; stroke-linecap: square"/>
   </g>
   <g id="patch_5">
    <path d="M 56.09 174.04 
L 336.555 174.04 
" style="fill: none; stroke: #000000; stroke-width: 0.8; stroke-linejoin: miter; stroke-linecap: square"/>
   </g>
   <g id="text_15">
    <!-- Pool: Temporal -->
    <g transform="translate(152.513125 20.88) scale(0.12 -0.12)">
     <defs>
      <path id="DejaVuSans-50" d="M 1259 4147 
L 1259 2394 
L 2053 2394 
Q 2494 2394 2734 2622 
Q 2975 2850 2975 3272 
Q 2975 3691 2734 3919 
Q 2494 4147 2053 4147 
L 1259 4147 
z
M 628 4666 
L 2053 4666 
Q 2838 4666 3239 4311 
Q 3641 3956 3641 3272 
Q 3641 2581 3239 2228 
Q 2838 1875 2053 1875 
L 1259 1875 
L 1259 0 
L 628 0 
L 628 4666 
z
" transform="scale(0.015625)"/>
      <path id="DejaVuSans-6f" d="M 1959 3097 
Q 1497 3097 1228 2736 
Q 959 2375 959 1747 
Q 959 1119 1226 758 
Q 1494 397 1959 397 
Q 2419 397 2687 759 
Q 2956 1122 2956 1747 
Q 2956 2369 2687 2733 
Q 2419 3097 1959 3097 
z
M 1959 3584 
Q 2709 3584 3137 3096 
Q 3566 2609 3566 1747 
Q 3566 888 3137 398 
Q 2709 -91 1959 -91 
Q 1206 -91 779 398 
Q 353 888 353 1747 
Q 353 2609 779 3096 
Q 1206 3584 1959 3584 
z
" transform="scale(0.015625)"/>
      <path id="DejaVuSans-3a" d="M 750 794 
L 1409 794 
L 1409 0 
L 750 0 
L 750 794 
z
M 750 3309 
L 1409 3309 
L 1409 2516 
L 750 2516 
L 750 3309 
z
" transform="scale(0.015625)"/>
      <path id="DejaVuSans-72" d="M 2631 2963 
Q 2534 3019 2420 3045 
Q 2306 3072 2169 3072 
Q 1681 3072 1420 2755 
Q 1159 2438 1159 1844 
L 1159 0 
L 581 0 
L 581 3500 
L 1159 3500 
L 1159 2956 
Q 1341 3275 1631 3429 
Q 1922 3584 2338 3584 
Q 2397 3584 2469 3576 
Q 2541 3569 2628 3553 
L 2631 2963 
z
" transform="scale(0.015625)"/>
      <path id="DejaVuSans-61" d="M 2194 1759 
Q 1497 1759 1228 1600 
Q 959 1441 959 1056 
Q 959 750 1161 570 
Q 1363 391 1709 391 
Q 2188 391 2477 730 
Q 2766 1069 2766 1631 
L 2766 1759 
L 2194 1759 
z
M 3341 1997 
L 3341 0 
L 2766 0 
L 2766 531 
Q 2569 213 2275 61 
Q 1981 -91 1556 -91 
Q 1019 -91 701 211 
Q 384 513 384 1019 
Q 384 1609 779 1909 
Q 1175 2209 1959 2209 
L 2766 2209 
L 2766 2266 
Q 2766 2663 2505 2880 
Q 2244 3097 1772 3097 
Q 1472 3097 1187 3025 
Q 903 2953 641 2809 
L 641 3341 
Q 956 3463 1253 3523 
Q 1550 3584 1831 3584 
Q 2591 3584 2966 3190 
Q 3341 2797 3341 1997 
z
" transform="scale(0.015625)"/>
     </defs>
     <use xlink:href="#DejaVuSans-50"/>
     <use xlink:href="#DejaVuSans-6f" x="56.677734"/>
     <use xlink:href="#DejaVuSans-6f" x="117.859375"/>
     <use xlink:href="#DejaVuSans-6c" x="179.041016"/>
     <use xlink:href="#DejaVuSans-3a" x="206.824219"/>
     <use xlink:href="#DejaVuSans-20" x="240.515625"/>
     <use xlink:href="#DejaVuSans-54" x="272.302734"/>
     <use xlink:href="#DejaVuSans-65" x="316.386719"/>
     <use xlink:href="#DejaVuSans-6d" x="377.910156"/>
     <use xlink:href="#DejaVuSans-70" x="475.322266"/>
     <use xlink:href="#DejaVuSans-6f" x="538.798828"/>
     <use xlink:href="#DejaVuSans-72" x="599.980469"/>
     <use xlink:href="#DejaVuSans-61" x="641.09375"/>
     <use xlink:href="#DejaVuSans-6c" x="702.373047"/>
    </g>
   </g>
  </g>
 </g>
 <defs>
  <clipPath id="p1a8f86092e">
   <rect x="56.09" y="26.88" width="280.465" height="147.16"/>
  </clipPath>
 </defs>
</svg>
